<svg width="30" height="30" viewBox="0 0 30 30" fill="none" xmlns="http://www.w3.org/2000/svg">
<path d="M28.1369 15.5661C28.1405 15.699 28.1043 15.8299 28.0329 15.9421C27.9616 16.0542 27.8584 16.1425 27.7365 16.1956C27.6147 16.2487 27.4797 16.2641 27.349 16.24C27.2183 16.2158 27.0978 16.1532 27.0029 16.0601C26.908 15.967 26.8432 15.8477 26.8166 15.7174C26.79 15.5872 26.8029 15.452 26.8537 15.3292C26.9045 15.2063 26.9908 15.1015 27.1016 15.028C27.2124 14.9546 27.3426 14.916 27.4756 14.917C27.5617 14.9159 27.6472 14.9319 27.7271 14.9639C27.8071 14.996 27.8799 15.0436 27.9414 15.1039C28.0028 15.1642 28.0518 15.2361 28.0853 15.3155C28.1189 15.3948 28.1364 15.48 28.1369 15.5661ZM26.9691 15.5661C26.9671 15.6338 26.9787 15.7011 27.0033 15.7641C27.0279 15.8272 27.0649 15.8846 27.1122 15.933C27.1594 15.9814 27.216 16.0198 27.2784 16.0459C27.3408 16.072 27.4079 16.0852 27.4756 16.0848C27.5422 16.0846 27.6081 16.071 27.6694 16.0448C27.7307 16.0186 27.786 15.9803 27.8322 15.9323C27.8784 15.8842 27.9145 15.8274 27.9382 15.7652C27.962 15.7029 27.973 15.6365 27.9706 15.5699C27.9748 15.5016 27.965 15.4331 27.9417 15.3687C27.9185 15.3043 27.8823 15.2453 27.8353 15.1954C27.7884 15.1456 27.7318 15.1058 27.669 15.0786C27.6061 15.0515 27.5384 15.0374 27.4699 15.0374C27.4014 15.0374 27.3337 15.0515 27.2708 15.0786C27.208 15.1058 27.1513 15.1456 27.1044 15.1954C27.0575 15.2453 27.0213 15.3043 26.998 15.3687C26.9748 15.4331 26.9649 15.5016 26.9691 15.5699V15.5661ZM27.3688 15.9062H27.2186V15.2572C27.3009 15.2427 27.3844 15.236 27.468 15.2373C27.5463 15.2308 27.6247 15.2472 27.6938 15.2846C27.7144 15.3021 27.7307 15.324 27.7417 15.3487C27.7526 15.3734 27.7579 15.4002 27.7571 15.4272C27.7544 15.4638 27.7397 15.4985 27.7153 15.5258C27.6908 15.5531 27.658 15.5716 27.622 15.5784V15.586C27.6546 15.5988 27.683 15.6204 27.704 15.6484C27.725 15.6765 27.7379 15.7098 27.741 15.7447C27.7473 15.8012 27.7633 15.8562 27.7883 15.9072H27.6258C27.6009 15.8571 27.5837 15.8036 27.5748 15.7485C27.5625 15.6767 27.5228 15.6455 27.4397 15.6455H27.3688V15.9062ZM27.3688 15.5378H27.4397C27.5228 15.5378 27.5899 15.5104 27.5899 15.4433C27.5899 15.3762 27.5464 15.3488 27.451 15.3488C27.4231 15.3481 27.3952 15.3506 27.3678 15.3564L27.3688 15.5378Z" fill="white"/>
<path d="M29.1988 22.693V29.0061H0.827638V0.801184H6.81195V0H0V0.801184V29.8328H0.827638H30V29.0061V22.693H29.1988Z" fill="white"/>
<path d="M12.2936 0.129883L14.0472 10.9827H13.6211L13.2205 8.47807H10.6818L10.2812 10.9827H9.85513L11.6087 0.129883H12.2936ZM13.144 8.06047L11.9516 0.649519L10.7574 8.06142L13.144 8.06047Z" fill="white"/>
<path d="M18.037 8.40343C17.8721 8.4542 17.7004 8.47968 17.5278 8.47902H16.275V10.9837H15.8574V0.129884H17.5268C17.7461 0.129635 17.9633 0.172647 18.166 0.256457C18.3687 0.340266 18.5528 0.463228 18.7079 0.6183C18.8629 0.773372 18.9859 0.957509 19.0697 1.16017C19.1535 1.36283 19.1965 1.58003 19.1963 1.79933V6.80673C19.2 7.02563 19.1589 7.24297 19.0756 7.44541C18.9922 7.64785 18.8684 7.83111 18.7116 7.98394C18.6279 8.06874 18.5354 8.14443 18.4357 8.20975L19.2284 10.9818H18.7692L18.037 8.40343ZM18.7787 1.80028C18.7782 1.46842 18.6461 1.1503 18.4115 0.915637C18.1768 0.680978 17.8587 0.548927 17.5268 0.548427H16.275V8.06142H17.5268C17.8589 8.06092 18.1771 7.92874 18.4118 7.69387C18.6465 7.45901 18.7784 7.14064 18.7787 6.80862V1.80028Z" fill="white"/>
<path d="M24.5561 1.80128V3.47073H24.1385V1.80128C24.1385 1.46915 24.0066 1.15061 23.7717 0.915759C23.5368 0.680903 23.2183 0.548962 22.8862 0.548962C22.554 0.548962 22.2355 0.680903 22.0006 0.915759C21.7658 1.15061 21.6338 1.46915 21.6338 1.80128V9.31427C21.6338 9.64641 21.7658 9.96494 22.0006 10.1998C22.2355 10.4347 22.554 10.5666 22.8862 10.5666C23.2183 10.5666 23.5368 10.4347 23.7717 10.1998C24.0066 9.96494 24.1385 9.64641 24.1385 9.31427V7.64199H24.5561V9.31427C24.5561 9.53351 24.5129 9.7506 24.429 9.95315C24.3451 10.1557 24.2221 10.3397 24.0671 10.4948C23.9121 10.6498 23.7281 10.7727 23.5255 10.8566C23.323 10.9405 23.1059 10.9837 22.8866 10.9837C22.6674 10.9837 22.4503 10.9405 22.2478 10.8566C22.0452 10.7727 21.8612 10.6498 21.7062 10.4948C21.5511 10.3397 21.4282 10.1557 21.3443 9.95315C21.2604 9.7506 21.2172 9.53351 21.2172 9.31427V1.80128C21.2172 1.58205 21.2604 1.36496 21.3443 1.16241C21.4282 0.959867 21.5511 0.775829 21.7062 0.620806C21.8612 0.465783 22.0452 0.342813 22.2478 0.258915C22.4503 0.175018 22.6674 0.131836 22.8866 0.131836C23.1059 0.131836 23.323 0.175018 23.5255 0.258915C23.7281 0.342813 23.9121 0.465783 24.0671 0.620806C24.2221 0.775829 24.3451 0.959867 24.429 1.16241C24.5129 1.36496 24.5561 1.58205 24.5561 1.80128Z" fill="white"/>
<path d="M26.337 10.9964V0.143555H26.7546V5.15096H29.2593V0.143555H29.6769V10.9964H29.2593V5.5695H26.7537V10.9964H26.337Z" fill="white"/>
<path d="M6.98203 11.7383H9.48667V12.1559H7.39962V16.7476H9.06907V17.1652H7.39962V22.5921H6.98203V11.7383Z" fill="white"/>
<path d="M12.3928 11.7383L14.1492 22.5911H13.7231L13.3225 20.0865H10.781L10.3804 22.5911H9.95432L11.7079 11.7383H12.3928ZM13.2431 19.6689L12.0489 12.256L10.8547 19.6689H13.2431Z" fill="white"/>
<path d="M19.1698 13.4048V15.0742H18.7522V13.4048C18.7522 13.0727 18.6203 12.7541 18.3854 12.5193C18.1506 12.2844 17.832 12.1525 17.4999 12.1525C17.1678 12.1525 16.8492 12.2844 16.6144 12.5193C16.3795 12.7541 16.2476 13.0727 16.2476 13.4048V20.9187C16.2476 21.2509 16.3795 21.5694 16.6144 21.8043C16.8492 22.0391 17.1678 22.1711 17.4999 22.1711C17.832 22.1711 18.1506 22.0391 18.3854 21.8043C18.6203 21.5694 18.7522 21.2509 18.7522 20.9187V19.2531H19.1698V20.9225C19.1698 21.3653 18.9939 21.7899 18.6809 22.103C18.3678 22.4161 17.9431 22.592 17.5004 22.592C17.0576 22.592 16.633 22.4161 16.3199 22.103C16.0068 21.7899 15.8309 21.3653 15.8309 20.9225V13.4048C15.8309 12.962 16.0068 12.5374 16.3199 12.2243C16.633 11.9112 17.0576 11.7354 17.5004 11.7354C17.9431 11.7354 18.3678 11.9112 18.6809 12.2243C18.9939 12.5374 19.1698 12.962 19.1698 13.4048Z" fill="white"/>
<path d="M20.9432 11.7383H23.4479V12.1559H21.3599V16.7476H23.0303V17.1652H21.3599V22.1726H23.4469V22.5902H20.9432V11.7383Z" fill="white"/>
<path d="M25.6842 22.7103C25.6274 22.7109 25.5712 22.6992 25.5193 22.6761C25.4674 22.6529 25.4212 22.6188 25.3837 22.5761C25.3016 22.4878 25.2572 22.3708 25.26 22.2502C25.2577 22.1295 25.3016 22.0126 25.3828 21.9233L25.4017 21.9053H25.26V21.7901H27.5936C27.6504 21.7894 27.7067 21.8011 27.7585 21.8243C27.8104 21.8474 27.8566 21.8815 27.8941 21.9242C27.9739 22.0139 28.018 22.1297 28.018 22.2497C28.018 22.3697 27.9739 22.4856 27.8941 22.5752C27.8566 22.6179 27.8104 22.652 27.7585 22.6751C27.7067 22.6983 27.6504 22.71 27.5936 22.7093V22.5941C27.6362 22.5945 27.6783 22.5856 27.7171 22.5682C27.7559 22.5507 27.7905 22.5251 27.8185 22.493C27.8784 22.426 27.9116 22.3392 27.9116 22.2492C27.9116 22.1593 27.8784 22.0725 27.8185 22.0055C27.7901 21.9741 27.7554 21.9492 27.7166 21.9324C27.6778 21.9156 27.6359 21.9074 27.5936 21.9082H27.3451L27.3621 21.9261C27.4422 22.0158 27.4865 22.1318 27.4865 22.2521C27.4865 22.3723 27.4422 22.4883 27.3621 22.578C27.3247 22.6207 27.2785 22.6548 27.2266 22.678C27.1747 22.7011 27.1185 22.7128 27.0617 22.7122L25.6842 22.7103ZM25.6842 21.9053C25.6416 21.9049 25.5995 21.9138 25.5607 21.9312C25.5219 21.9487 25.4873 21.9743 25.4593 22.0064C25.3992 22.0734 25.3659 22.1602 25.3659 22.2502C25.3659 22.3402 25.3992 22.427 25.4593 22.4939C25.4873 22.526 25.5219 22.5517 25.5607 22.5691C25.5995 22.5866 25.6416 22.5954 25.6842 22.595H27.0636C27.1061 22.5954 27.1483 22.5866 27.1871 22.5691C27.2259 22.5517 27.2605 22.526 27.2885 22.4939C27.3484 22.4269 27.3816 22.3401 27.3816 22.2502C27.3816 22.1602 27.3484 22.0735 27.2885 22.0064C27.2605 21.9743 27.2259 21.9487 27.1871 21.9312C27.1483 21.9138 27.1061 21.9049 27.0636 21.9053H25.6842Z" fill="white"/>
<path d="M25.4017 21.1925L25.3828 21.1717C25.3013 21.0838 25.2572 20.9675 25.26 20.8477H25.3658C25.3643 20.9381 25.3982 21.0256 25.4603 21.0914C25.4882 21.1235 25.5228 21.1491 25.5616 21.1666C25.6004 21.184 25.6426 21.1929 25.6851 21.1925H27.4887V21.3078H25.26V21.1925H25.4017Z" fill="white"/>
<path d="M25.6842 20.5599C25.6274 20.5605 25.5712 20.5489 25.5193 20.5257C25.4675 20.5026 25.4212 20.4685 25.3838 20.4258C25.304 20.3361 25.2599 20.2203 25.2599 20.1003C25.2599 19.9803 25.304 19.8644 25.3838 19.7748C25.4212 19.7321 25.4675 19.698 25.5193 19.6749C25.5712 19.6517 25.6274 19.64 25.6842 19.6406H27.0636C27.1204 19.64 27.1767 19.6517 27.2285 19.6749C27.2804 19.698 27.3266 19.7321 27.3641 19.7748C27.4439 19.8644 27.488 19.9803 27.488 20.1003C27.488 20.2203 27.4439 20.3361 27.3641 20.4258C27.3266 20.4685 27.2804 20.5026 27.2285 20.5257C27.1767 20.5489 27.1204 20.5605 27.0636 20.5599H25.6842ZM25.6842 19.755C25.6417 19.7546 25.5995 19.7634 25.5607 19.7809C25.5219 19.7983 25.4873 19.824 25.4594 19.8561C25.3992 19.923 25.3659 20.0098 25.3659 20.0998C25.3659 20.1898 25.3992 20.2766 25.4594 20.3436C25.4873 20.3757 25.5219 20.4013 25.5607 20.4188C25.5995 20.4362 25.6417 20.445 25.6842 20.4447H27.0636C27.1062 20.445 27.1483 20.4362 27.1871 20.4188C27.2259 20.4013 27.2605 20.3757 27.2885 20.3436C27.3484 20.2765 27.3816 20.1898 27.3816 20.0998C27.3816 20.0099 27.3484 19.9231 27.2885 19.8561C27.2605 19.824 27.2259 19.7983 27.1871 19.7809C27.1483 19.7634 27.1062 19.7546 27.0636 19.755H25.6842Z" fill="white"/>
<path d="M27.4878 18.2363V18.3516H27.346L27.3631 18.3695C27.4431 18.4592 27.4874 18.5752 27.4874 18.6955C27.4874 18.8157 27.4431 18.9317 27.3631 19.0214C27.3256 19.0641 27.2794 19.0982 27.2275 19.1214C27.1757 19.1445 27.1194 19.1562 27.0626 19.1556H25.2599V19.0403H27.0636C27.1061 19.0407 27.1482 19.0319 27.1871 19.0144C27.2259 18.997 27.2605 18.9713 27.2884 18.9392C27.3484 18.8722 27.3815 18.7854 27.3815 18.6955C27.3815 18.6055 27.3484 18.5187 27.2884 18.4517C27.2605 18.4196 27.2259 18.394 27.1871 18.3765C27.1482 18.3591 27.1061 18.3502 27.0636 18.3506H25.2599V18.2354L27.4878 18.2363Z" fill="white"/>
<path d="M27.0636 16.836C27.1204 16.8353 27.1766 16.847 27.2285 16.8702C27.2803 16.8933 27.3266 16.9274 27.364 16.9701C27.4462 17.0585 27.4906 17.1754 27.4878 17.2961C27.4906 17.4163 27.4457 17.5328 27.3631 17.6201L27.3461 17.6409H28.0207V17.7562H25.2619V17.6409H25.4017L25.3828 17.6201C25.3032 17.5306 25.2593 17.4149 25.2593 17.2951C25.2593 17.1753 25.3032 17.0597 25.3828 16.9701C25.4203 16.9274 25.4665 16.8933 25.5184 16.8702C25.5702 16.847 25.6265 16.8353 25.6833 16.836H27.0636ZM27.0636 17.6409C27.1062 17.6413 27.1483 17.6325 27.1871 17.615C27.2259 17.5976 27.2605 17.5719 27.2885 17.5398C27.3484 17.4728 27.3816 17.386 27.3816 17.2961C27.3816 17.2061 27.3484 17.1194 27.2885 17.0523C27.2605 17.0202 27.2259 16.9946 27.1871 16.9771C27.1483 16.9597 27.1062 16.9508 27.0636 16.9512H25.6842C25.6416 16.9508 25.5995 16.9597 25.5607 16.9771C25.5219 16.9946 25.4873 17.0202 25.4593 17.0523C25.3992 17.1193 25.3659 17.2061 25.3659 17.2961C25.3659 17.3861 25.3992 17.4729 25.4593 17.5398C25.4873 17.5719 25.5219 17.5976 25.5607 17.615C25.5995 17.6325 25.6416 17.6413 25.6842 17.6409H27.0636Z" fill="white"/>
</svg>
