<svg width="30" height="30" viewBox="0 0 30 30" fill="none" xmlns="http://www.w3.org/2000/svg">
<path fill-rule="evenodd" clip-rule="evenodd" d="M14.9978 0C23.2847 0 30 6.71678 30 15.0033C30 23.2832 23.2847 30 14.9978 30C6.71531 30 0 23.2832 0 15.0033C0 6.71678 6.71531 0 14.9978 0ZM16.762 23.2832C16.9174 23.0906 17.1538 22.9526 17.4296 22.9286L22.4923 22.4228L6.24909 9.10968L6.75471 14.1735C6.80505 14.7231 6.40449 15.2025 5.86386 15.2594C5.31446 15.3164 4.83511 14.9157 4.7782 14.3684L4.04275 6.92257C4.01868 6.70364 4.0734 6.49785 4.17408 6.32489V6.31832C4.18065 6.31176 4.18722 6.30519 4.18722 6.29862H4.19378C4.19378 6.29205 4.20035 6.28549 4.20035 6.27892L4.20692 6.27235C4.20692 6.27235 4.21348 6.26578 4.22005 6.25921V6.25265C4.22662 6.24608 4.22662 6.23951 4.23318 6.23294C4.23975 6.22637 4.24632 6.21981 4.24632 6.21324H4.25288C4.25945 6.20667 4.25945 6.2001 4.26601 6.19353C4.27258 6.18697 4.27915 6.1804 4.28571 6.17383V6.17383C4.29228 6.16726 4.29885 6.16726 4.29885 6.16069L4.30541 6.15413C4.31198 6.14756 4.31198 6.14756 4.31855 6.14099L4.32511 6.13442C4.32511 6.12786 4.33168 6.12786 4.33825 6.12129V6.11472C4.34481 6.11472 4.35138 6.10815 4.35795 6.10158V6.09502C4.36451 6.09502 4.37108 6.08845 4.37764 6.08188C4.38421 6.07531 4.39078 6.06874 4.39734 6.06874V6.06218C4.40391 6.06218 4.41048 6.05561 4.41704 6.04904C4.42361 6.04247 4.43018 6.0359 4.43674 6.02934C4.54837 5.94833 4.6797 5.88484 4.82416 5.84762C4.87451 5.84106 4.92485 5.82792 4.973 5.82792L12.3865 5.09232C12.9359 5.03539 13.4219 5.43604 13.4788 5.98336C13.5291 6.52631 13.1286 7.01233 12.5879 7.06926L7.50766 7.57717L23.7509 20.8903L23.2453 15.8265C23.195 15.2835 23.5889 14.7975 24.1361 14.7406C24.679 14.6902 25.1649 15.0909 25.2218 15.6316L25.9572 23.0774C26.0142 23.6269 25.6136 24.1064 25.0664 24.1633L17.62 24.8989C17.0772 24.9559 16.5913 24.5552 16.5344 24.0145C16.5125 23.7386 16.6 23.4846 16.762 23.2832Z" fill="#B2ACA6"/>
</svg>
