<svg width="30" height="30" viewBox="0 0 30 30" fill="none" xmlns="http://www.w3.org/2000/svg">
<path fill-rule="evenodd" clip-rule="evenodd" d="M15.0022 0C23.2825 0 30 6.71678 30 15.0033C30 23.2832 23.2847 30 15.0022 30C6.71531 30 0 23.2832 0 15.0033C0 6.71678 6.71531 0 15.0022 0ZM23.0527 13.7685H21.2994C21.4811 14.2611 21.573 14.7844 21.573 15.3339V21.9565C21.573 22.182 21.5358 22.4053 21.4614 22.6045H24.355C25.4407 22.6045 26.3184 21.7244 26.3184 20.6473V17.035C26.3206 15.2332 24.8563 13.7685 23.0527 13.7685ZM8.42478 15.3339C8.42478 14.7844 8.5189 14.2611 8.69838 13.7685H6.94513C5.14373 13.7685 3.67722 15.2332 3.67722 17.035V20.6451C3.67722 21.7244 4.55713 22.6024 5.6406 22.6024H8.53641C8.46199 22.4031 8.42478 22.1776 8.42478 21.9543V15.3339ZM16.9984 12.0652H13.0016C11.2002 12.0652 9.72713 13.5299 9.72713 15.3317V21.9543C9.72713 22.3156 10.0204 22.6024 10.3816 22.6024H19.6162C19.9774 22.6024 20.2707 22.3156 20.2707 21.9543V15.3339C20.2729 13.5321 18.7998 12.0652 16.9984 12.0652ZM15.0022 3.40436C12.8331 3.40436 11.0667 5.16237 11.0667 7.33197C11.0667 8.80318 11.8766 10.0883 13.0738 10.7626C13.6473 11.0801 14.3018 11.2618 15 11.2618C15.6917 11.2618 16.3461 11.0801 16.9196 10.7626C18.1169 10.0883 18.9267 8.80537 18.9267 7.33197C18.9311 5.16237 17.1669 3.40436 15.0022 3.40436ZM8.10083 7.06488C6.47891 7.06488 5.15687 8.38721 5.15687 10.0029C5.15687 11.6252 6.47891 12.9453 8.10083 12.9453C8.51233 12.9453 8.89975 12.8578 9.25434 12.7089C9.87159 12.4418 10.3772 11.9733 10.6946 11.3866C10.9135 10.975 11.0382 10.5021 11.0382 10.0029C11.036 8.38721 9.72056 7.06488 8.10083 7.06488ZM21.8992 7.06488C20.2773 7.06488 18.9618 8.38721 18.9618 10.0029C18.9618 10.5021 19.0865 10.975 19.3054 11.3866C19.6228 11.9733 20.1284 12.4396 20.7457 12.7089C21.1002 12.8578 21.4877 12.9453 21.8992 12.9453C23.5211 12.9453 24.8431 11.623 24.8431 10.0029C24.8431 8.38721 23.5211 7.06488 21.8992 7.06488Z" fill="#B2ACA6"/>
</svg>
