<svg width="30" height="30" viewBox="0 0 30 30" fill="none" xmlns="http://www.w3.org/2000/svg">
<path d="M15.0002 0C6.71675 0 0.000244141 6.71651 0.000244141 15C0.000244141 23.2835 6.71675 30 15.0002 30C23.2837 30 30.0002 23.2835 30.0002 15C30.0002 6.71651 23.2837 0 15.0002 0ZM24.0847 20.9767C23.7265 21.9874 22.3051 22.8291 21.1692 23.0738C20.3944 23.2398 19.3779 23.3709 15.9672 21.9553C11.6012 20.1466 8.79054 15.7107 8.57209 15.4223C8.36238 15.134 6.80704 13.0748 6.80704 10.9427C6.80704 8.81068 7.89054 7.77379 8.32452 7.32816C8.68277 6.96117 9.27403 6.79515 9.84199 6.79515C10.0255 6.79515 10.1915 6.80388 10.3401 6.81262C10.7769 6.8301 10.9954 6.85631 11.2837 7.5466C11.642 8.40874 12.5158 10.5408 12.6177 10.7621C12.7226 10.9806 12.8303 11.2777 12.6818 11.566C12.542 11.8631 12.4197 11.9942 12.2012 12.2476C11.9828 12.501 11.7731 12.6932 11.5546 12.9641C11.3536 13.2 11.1265 13.4534 11.3799 13.8874C11.6333 14.3155 12.5041 15.7398 13.7886 16.8816C15.4459 18.3583 16.7915 18.8301 17.2721 19.0311C17.6303 19.1796 18.0585 19.1447 18.3206 18.865C18.6527 18.5068 19.0634 17.9126 19.4799 17.3272C19.7769 16.9078 20.1527 16.8553 20.5459 17.0039C20.9478 17.1437 23.0682 18.1922 23.5051 18.4107C23.942 18.6291 24.2303 18.734 24.3352 18.9175C24.443 19.0981 24.443 19.9631 24.0847 20.9767Z" fill="#B2ACA6"/>
</svg>
