<svg width="30" height="30" viewBox="0 0 30 30" fill="none" xmlns="http://www.w3.org/2000/svg">
<path d="M14.7594 12.7226C14.2201 12.7226 13.7721 12.9757 13.4071 13.4735C13.042 13.9712 12.8637 14.6267 12.8637 15.4439C12.8637 16.1034 12.9923 16.6551 13.2536 17.0949C13.5108 17.5387 13.8509 17.7586 14.2741 17.7586C14.8963 17.7586 15.4273 17.4558 15.8753 16.8543C16.3233 16.2486 16.5473 15.56 16.5514 14.7843C16.5514 14.1579 16.3689 13.6601 16.008 13.2868C15.643 12.9051 15.2281 12.7226 14.7594 12.7226Z" fill="#B2ACA6"/>
<path d="M15 0C6.71598 0 0 6.71598 0 15C0 23.284 6.71598 30 15 30C23.284 30 30 23.284 30 15C30.0041 6.71598 23.2882 0 15 0ZM22.7364 18.3352C21.6579 19.6294 20.3761 20.2724 18.8952 20.2724C17.8872 20.2724 17.1239 19.8866 16.6054 19.1067C15.9168 19.9157 15.0913 20.3263 14.1247 20.3263C13.042 20.3263 12.117 19.87 11.3454 18.9533C10.5738 18.0407 10.1922 16.8335 10.1922 15.3443C10.1922 13.8178 10.6236 12.5691 11.4947 11.6026C12.3617 10.6361 13.4029 10.1466 14.6225 10.1466C15.3899 10.1466 16.0951 10.4121 16.7423 10.9389L16.904 10.3498H19.4345L18.7002 16.3606C18.6587 16.7713 18.6338 17.128 18.6338 17.4309C18.6338 17.8084 18.8081 17.9909 19.1565 17.9909C19.7995 17.9909 20.4217 17.5885 21.0191 16.7754C21.6164 15.9665 21.9151 14.9461 21.9151 13.7223C21.9151 11.9345 21.2638 10.4535 19.9571 9.27544C18.6546 8.09735 17.0534 7.5083 15.1576 7.5083C13.1043 7.5083 11.3661 8.22594 9.9599 9.65708C8.5495 11.0924 7.84015 12.8803 7.84015 15.0207C7.84015 16.9953 8.49972 18.7127 9.81471 20.177C11.1338 21.6455 12.9964 22.3756 15.4024 22.3756C16.9123 22.3756 18.4638 22.0354 20.0442 21.3551C20.6582 21.0938 21.3592 21.38 21.6081 21.9939C21.8487 22.5913 21.5625 23.2716 20.9693 23.5246C19.1524 24.3045 17.2981 24.6903 15.4065 24.6903C12.2705 24.6903 9.78153 23.7362 7.92727 21.8321C6.08131 19.9281 5.15625 17.6549 5.15625 15.0083C5.15625 12.2497 6.12694 9.94331 8.06831 8.08905C10.0097 6.23479 12.3617 5.30973 15.1203 5.30973C17.7461 5.30973 19.9447 6.12279 21.7118 7.75304C23.4831 9.3833 24.3626 11.3537 24.3626 13.6643C24.3543 15.4895 23.815 17.0451 22.7364 18.3352Z" fill="#B2ACA6"/>
</svg>
