<svg width="64" height="64" viewBox="0 0 64 64" fill="none" xmlns="http://www.w3.org/2000/svg">
<path fill-rule="evenodd" clip-rule="evenodd" d="M64 32C64 49.6731 49.6731 64 32 64C14.3269 64 0 49.6731 0 32C0 14.3269 14.3269 0 32 0C49.6731 0 64 14.3269 64 32ZM33.655 28.5378C33.655 27.0601 34.4477 25.7602 35.6536 24.9607C34.5715 24.448 33.3645 24.1313 32.0677 24.1313C27.6918 24.1313 24.1313 27.4261 24.1313 31.4755C24.1313 35.5249 27.6918 38.8198 32.0677 38.8198C35.9856 38.8198 39.2283 36.1725 39.869 32.7135C36.6726 33.6658 33.655 31.4287 33.655 28.5378ZM32.0002 17.8375C46.3891 17.8375 57.8772 29.951 58.3548 30.466C58.8875 31.0417 58.8875 31.912 58.3548 32.4877C57.8771 33.0027 46.3889 45.1162 32.0002 45.1162C17.6115 45.1162 6.12339 33.0027 5.64568 32.4877C5.1129 31.912 5.1129 31.0417 5.64568 30.466C6.12339 29.951 17.6113 17.8375 32.0002 17.8375ZM21.0269 31.4768C21.0269 37.3257 25.9501 42.0852 32.0002 42.0852C38.0503 42.0852 42.9736 37.3257 42.9736 31.4768C42.9736 25.628 38.0503 20.8685 32.0002 20.8685C25.9501 20.8685 21.0269 25.628 21.0269 31.4768Z" fill="#DCD6D1"/>
</svg>
