<svg width="30" height="31" viewBox="0 0 30 31" fill="none" xmlns="http://www.w3.org/2000/svg">
<path d="M14.996 11.7585C13.2388 11.7585 11.8171 13.1809 11.8171 14.9389C11.8171 16.6969 13.2388 18.1194 14.996 18.1194C16.7532 18.1194 18.1749 16.6969 18.1749 14.9389C18.1749 13.1809 16.7532 11.7585 14.996 11.7585Z" fill="#B2ACA6"/>
<path d="M15 0C6.71725 0 0 6.72041 0 15.007C0 23.2937 6.71725 30.0141 15 30.0141C23.2827 30.0141 30 23.2937 30 15.007C30 6.71641 23.2827 0 15 0ZM23.8139 19.9255C23.8139 22.2029 21.9529 24.0688 19.6725 24.0688H10.3235C8.04712 24.0688 6.18211 22.2069 6.18211 19.9255V10.0886C6.18211 7.81118 8.04313 5.94529 10.3235 5.94529H19.6725C21.9489 5.94529 23.8139 7.80718 23.8139 10.0886V19.9255Z" fill="#B2ACA6"/>
<path d="M18.6861 7.29974H11.3139C10.3115 7.29974 9.36503 7.69528 8.65018 8.41048C7.93532 9.12567 7.53995 10.0726 7.53995 11.0755V18.9346C7.53995 19.9375 7.93532 20.8844 8.65018 21.5996C9.36503 22.3148 10.3115 22.7103 11.3139 22.7103H18.6861C19.6885 22.7103 20.635 22.3148 21.3499 21.5996C22.0647 20.8844 22.4601 19.9375 22.4601 18.9346V11.0755C22.4601 10.0726 22.0647 9.12567 21.3499 8.41048C20.635 7.69528 19.6885 7.29974 18.6861 7.29974ZM15.028 19.7936C12.3483 19.7936 10.1717 17.6201 10.1717 14.9351C10.1717 12.2541 12.3443 10.0766 15.028 10.0766C17.7117 10.0766 19.8842 12.2501 19.8842 14.9351C19.8802 17.6201 17.7077 19.7936 15.028 19.7936ZM19.9601 11.1554C19.3251 11.1554 18.8099 10.64 18.8099 10.0047C18.8099 9.3694 19.3251 8.85398 19.9601 8.85398C20.5951 8.85398 21.1102 9.3694 21.1102 10.0047C21.1102 10.64 20.5951 11.1554 19.9601 11.1554Z" fill="#B2ACA6"/>
</svg>
