<svg width="30" height="30" viewBox="0 0 30 30" fill="none" xmlns="http://www.w3.org/2000/svg">
<path fill-rule="evenodd" clip-rule="evenodd" d="M15.0022 0C23.2825 0 30 6.71678 30 15.0033C30 23.2832 23.2847 30 15.0022 30C6.71531 30 0 23.2832 0 15.0033C0 6.71678 6.71531 0 15.0022 0ZM7.23406 11.9908C7.23406 13.543 7.82066 15.1653 8.30658 16.2687C8.96761 17.753 9.54764 18.7448 10.4451 20.1481C10.9572 20.9472 11.2987 21.396 11.8043 22.1317C11.9969 22.4053 12.1786 22.6483 12.3712 22.8979C12.9644 23.6642 13.8115 24.726 14.4725 25.4791C14.5907 25.6105 14.7592 25.6783 14.9343 25.698H15.0788C15.2342 25.6849 15.3852 25.6236 15.4969 25.5163C15.9456 25.1047 18.3029 22.0485 18.7341 21.4004C18.9202 21.1202 19.0887 20.8881 19.277 20.6079L21.4723 16.7788C21.5599 16.6037 21.6037 16.5117 21.6847 16.3234C22.9695 13.311 23.3679 10.6115 21.4483 7.73042C21.0061 7.06269 20.4808 6.50879 19.8636 6.00306C18.7101 5.0551 16.9196 4.29979 15.2999 4.29979C13.8903 4.29979 12.855 4.45523 11.6949 5.03539C11.2462 5.26527 10.896 5.44041 10.5107 5.73378C9.79279 6.27016 9.12082 6.90068 8.62834 7.6538C8.35911 8.05882 8.13585 8.39597 7.9301 8.87543C7.52736 9.84529 7.23406 10.8808 7.23406 11.9908ZM14.9584 7.66474C17.1713 7.66474 18.9749 9.45997 18.9749 11.6734C18.9749 13.8867 17.1735 15.682 14.9584 15.682C12.7433 15.682 10.9485 13.8867 10.9485 11.6734C10.9507 9.45997 12.7455 7.66474 14.9584 7.66474Z" fill="#B2ACA6"/>
</svg>
