<svg width="30" height="30" viewBox="0 0 30 30" fill="none" xmlns="http://www.w3.org/2000/svg">
<path fill-rule="evenodd" clip-rule="evenodd" d="M0 15C7.24234e-07 6.71573 6.71573 -7.24234e-07 15 0C23.2843 7.24234e-07 30 6.71573 30 15C30 23.2843 23.2843 30 15 30C6.71573 30 -7.24234e-07 23.2843 0 15ZM15 12.9546C17.2593 12.9546 19.0909 11.123 19.0909 8.86365C19.0909 6.60431 17.2593 4.77274 15 4.77274C12.7407 4.77274 10.9091 6.60431 10.9091 8.86365C10.9091 11.123 12.7407 12.9546 15 12.9546ZM15 25.9091C20.2718 25.9091 23.8636 22.0321 23.8636 19.7727C23.8636 17.5134 20.2718 16.3636 15 16.3636C9.72819 16.3636 6.13636 17.5134 6.13636 19.7727C6.13636 22.0321 9.72819 25.9091 15 25.9091Z" fill="#B2ACA6"/>
<path fill-rule="evenodd" clip-rule="evenodd" d="M0 15C7.24234e-07 6.71573 6.71573 -7.24234e-07 15 0C23.2843 7.24234e-07 30 6.71573 30 15C30 23.2843 23.2843 30 15 30C6.71573 30 -7.24234e-07 23.2843 0 15ZM15 12.9546C17.2593 12.9546 19.0909 11.123 19.0909 8.86365C19.0909 6.60431 17.2593 4.77274 15 4.77274C12.7407 4.77274 10.9091 6.60431 10.9091 8.86365C10.9091 11.123 12.7407 12.9546 15 12.9546ZM15 25.9091C20.2718 25.9091 23.8636 22.0321 23.8636 19.7727C23.8636 17.5134 20.2718 16.3636 15 16.3636C9.72819 16.3636 6.13636 17.5134 6.13636 19.7727C6.13636 22.0321 9.72819 25.9091 15 25.9091Z" fill="#B2ACA6"/>
<path fill-rule="evenodd" clip-rule="evenodd" d="M0 15C7.24234e-07 6.71573 6.71573 -7.24234e-07 15 0C23.2843 7.24234e-07 30 6.71573 30 15C30 23.2843 23.2843 30 15 30C6.71573 30 -7.24234e-07 23.2843 0 15ZM15 12.9546C17.2593 12.9546 19.0909 11.123 19.0909 8.86365C19.0909 6.60431 17.2593 4.77274 15 4.77274C12.7407 4.77274 10.9091 6.60431 10.9091 8.86365C10.9091 11.123 12.7407 12.9546 15 12.9546ZM15 25.9091C20.2718 25.9091 23.8636 22.0321 23.8636 19.7727C23.8636 17.5134 20.2718 16.3636 15 16.3636C9.72819 16.3636 6.13636 17.5134 6.13636 19.7727C6.13636 22.0321 9.72819 25.9091 15 25.9091Z" fill="#B2ACA6"/>
<path fill-rule="evenodd" clip-rule="evenodd" d="M0 15C7.24234e-07 6.71573 6.71573 -7.24234e-07 15 0C23.2843 7.24234e-07 30 6.71573 30 15C30 23.2843 23.2843 30 15 30C6.71573 30 -7.24234e-07 23.2843 0 15ZM15 12.9546C17.2593 12.9546 19.0909 11.123 19.0909 8.86365C19.0909 6.60431 17.2593 4.77274 15 4.77274C12.7407 4.77274 10.9091 6.60431 10.9091 8.86365C10.9091 11.123 12.7407 12.9546 15 12.9546ZM15 25.9091C20.2718 25.9091 23.8636 22.0321 23.8636 19.7727C23.8636 17.5134 20.2718 16.3636 15 16.3636C9.72819 16.3636 6.13636 17.5134 6.13636 19.7727C6.13636 22.0321 9.72819 25.9091 15 25.9091Z" fill="#B2ACA6"/>
<path fill-rule="evenodd" clip-rule="evenodd" d="M0 15C7.24234e-07 6.71573 6.71573 -7.24234e-07 15 0C23.2843 7.24234e-07 30 6.71573 30 15C30 23.2843 23.2843 30 15 30C6.71573 30 -7.24234e-07 23.2843 0 15ZM15 12.9546C17.2593 12.9546 19.0909 11.123 19.0909 8.86365C19.0909 6.60431 17.2593 4.77274 15 4.77274C12.7407 4.77274 10.9091 6.60431 10.9091 8.86365C10.9091 11.123 12.7407 12.9546 15 12.9546ZM15 25.9091C20.2718 25.9091 23.8636 22.0321 23.8636 19.7727C23.8636 17.5134 20.2718 16.3636 15 16.3636C9.72819 16.3636 6.13636 17.5134 6.13636 19.7727C6.13636 22.0321 9.72819 25.9091 15 25.9091Z" fill="#B2ACA6"/>
<path fill-rule="evenodd" clip-rule="evenodd" d="M0 15C7.24234e-07 6.71573 6.71573 -7.24234e-07 15 0C23.2843 7.24234e-07 30 6.71573 30 15C30 23.2843 23.2843 30 15 30C6.71573 30 -7.24234e-07 23.2843 0 15ZM15 12.9546C17.2593 12.9546 19.0909 11.123 19.0909 8.86365C19.0909 6.60431 17.2593 4.77274 15 4.77274C12.7407 4.77274 10.9091 6.60431 10.9091 8.86365C10.9091 11.123 12.7407 12.9546 15 12.9546ZM15 25.9091C20.2718 25.9091 23.8636 22.0321 23.8636 19.7727C23.8636 17.5134 20.2718 16.3636 15 16.3636C9.72819 16.3636 6.13636 17.5134 6.13636 19.7727C6.13636 22.0321 9.72819 25.9091 15 25.9091Z" fill="#B2ACA6"/>
<path fill-rule="evenodd" clip-rule="evenodd" d="M0 15C7.24234e-07 6.71573 6.71573 -7.24234e-07 15 0C23.2843 7.24234e-07 30 6.71573 30 15C30 23.2843 23.2843 30 15 30C6.71573 30 -7.24234e-07 23.2843 0 15ZM15 12.9546C17.2593 12.9546 19.0909 11.123 19.0909 8.86365C19.0909 6.60431 17.2593 4.77274 15 4.77274C12.7407 4.77274 10.9091 6.60431 10.9091 8.86365C10.9091 11.123 12.7407 12.9546 15 12.9546ZM15 25.9091C20.2718 25.9091 23.8636 22.0321 23.8636 19.7727C23.8636 17.5134 20.2718 16.3636 15 16.3636C9.72819 16.3636 6.13636 17.5134 6.13636 19.7727C6.13636 22.0321 9.72819 25.9091 15 25.9091Z" fill="#B2ACA6"/>
<path fill-rule="evenodd" clip-rule="evenodd" d="M0 15C7.24234e-07 6.71573 6.71573 -7.24234e-07 15 0C23.2843 7.24234e-07 30 6.71573 30 15C30 23.2843 23.2843 30 15 30C6.71573 30 -7.24234e-07 23.2843 0 15ZM15 12.9546C17.2593 12.9546 19.0909 11.123 19.0909 8.86365C19.0909 6.60431 17.2593 4.77274 15 4.77274C12.7407 4.77274 10.9091 6.60431 10.9091 8.86365C10.9091 11.123 12.7407 12.9546 15 12.9546ZM15 25.9091C20.2718 25.9091 23.8636 22.0321 23.8636 19.7727C23.8636 17.5134 20.2718 16.3636 15 16.3636C9.72819 16.3636 6.13636 17.5134 6.13636 19.7727C6.13636 22.0321 9.72819 25.9091 15 25.9091Z" fill="#B2ACA6"/>
</svg>
