<svg width="30" height="30" viewBox="0 0 30 30" fill="none" xmlns="http://www.w3.org/2000/svg">
<path fill-rule="evenodd" clip-rule="evenodd" d="M0 15C0 6.71598 6.71598 0 15 0C23.2882 0 30.0041 6.71598 30 15C30 23.284 23.284 30 15 30C6.71598 30 0 23.284 0 15ZM8.05007 16.4366C8.43911 19.8476 11.1728 22.5743 14.5838 22.9564C18.6582 23.4114 22.1769 20.5527 22.7813 16.7422C22.8785 16.1274 22.3922 15.5751 21.7705 15.5751C21.2703 15.5751 20.8361 15.9364 20.7562 16.4331C20.3255 19.1077 17.9183 21.1293 15.0874 20.9487C12.4163 20.7785 10.2384 18.611 10.0612 15.9398C9.85283 12.8345 12.2982 10.2363 15.3514 10.1877V12.185C15.3514 12.2926 15.4904 12.3552 15.5841 12.2857L19.7037 9.26026C19.7732 9.20816 19.7732 9.10743 19.7037 9.05533L15.5841 6.02989C15.4904 5.96042 15.3514 6.01947 15.3514 6.13062V8.13137C11.006 8.18 7.53946 11.9766 8.05007 16.4366Z" fill="#B2ACA6"/>
</svg>
