<svg width="62" height="62" viewBox="0 0 62 62" fill="none" xmlns="http://www.w3.org/2000/svg">
<path fill-rule="evenodd" clip-rule="evenodd" d="M4.5 31C4.5 46.1878 15.8122 57.5 31 57.5C46.1878 57.5 57.5 46.1878 57.5 31C57.5 15.8122 46.1878 4.5 31 4.5C15.8122 4.5 4.5 15.8122 4.5 31ZM31 61.5C14.1553 61.5 0.500001 47.8447 0.5 31C0.499999 14.1553 14.1553 0.500001 31 0.5C47.8447 0.499999 61.5 14.1553 61.5 31C61.5 47.8447 47.8447 61.5 31 61.5Z" fill="#DCD6D1"/>
<path fill-rule="evenodd" clip-rule="evenodd" d="M43 31C43 32.1046 43.8954 33 45 33C46.1046 33 47 32.1046 47 31C47 29.8954 46.1046 29 45 29C43.8954 29 43 29.8954 43 31ZM45 37C41.6863 37 39 34.3137 39 31C39 27.6863 41.6863 25 45 25C48.3137 25 51 27.6863 51 31C51 34.3137 48.3137 37 45 37Z" fill="#DCD6D1"/>
<path fill-rule="evenodd" clip-rule="evenodd" d="M21 19C21 20.1046 21.8954 21 23 21C24.1046 21 25 20.1046 25 19C25 17.8954 24.1046 17 23 17C21.8954 17 21 17.8954 21 19ZM23 25C19.6863 25 17 22.3137 17 19C17 15.6863 19.6863 13 23 13C26.3137 13 29 15.6863 29 19C29 22.3137 26.3137 25 23 25Z" fill="#DCD6D1"/>
<path fill-rule="evenodd" clip-rule="evenodd" d="M21 43C21 44.1046 21.8954 45 23 45C24.1046 45 25 44.1046 25 43C25 41.8954 24.1046 41 23 41C21.8954 41 21 41.8954 21 43ZM23 49C19.6863 49 17 46.3137 17 43C17 39.6863 19.6863 37 23 37C26.3137 37 29 39.6863 29 43C29 46.3137 26.3137 49 23 49Z" fill="#DCD6D1"/>
<path fill-rule="evenodd" clip-rule="evenodd" d="M44 34L27.09 42.544L25.5 40L42.41 31.4561L44 34Z" fill="#DCD6D1"/>
<path fill-rule="evenodd" clip-rule="evenodd" d="M27.09 19.5L43.5523 28.682L42.41 31.4561L25.9477 22.274L27.09 19.5Z" fill="#DCD6D1"/>
</svg>
