<svg width="30" height="31" viewBox="0 0 30 31" fill="none" xmlns="http://www.w3.org/2000/svg">
<path d="M15 30.0142C23.2863 30.0142 30 23.3004 30 15.0142C30 6.72791 23.2863 0.0141602 15 0.0141602C6.71375 0.0141602 0 6.72791 0 15.0142C0 23.3004 6.71375 30.0142 15 30.0142ZM6.86375 14.6892L21.3263 9.11291C21.9975 8.87041 22.5837 9.27666 22.3662 10.2917L22.3675 10.2904L19.905 21.8917C19.7225 22.7142 19.2337 22.9142 18.55 22.5267L14.8 19.7629L12.9912 21.5054C12.7912 21.7054 12.6225 21.8742 12.235 21.8742L12.5013 18.0579L19.4513 11.7792C19.7537 11.5129 19.3837 11.3629 18.985 11.6279L10.3963 17.0354L6.69375 15.8804C5.89 15.6254 5.8725 15.0767 6.86375 14.6892Z" fill="#4E92B1"/>
</svg>
