<svg width="30" height="30" viewBox="0 0 30 30" fill="none" xmlns="http://www.w3.org/2000/svg">
<path d="M15 0C6.72807 0 0 6.72807 0 15C0 17.8202 0.785088 20.5614 2.27193 22.9386C1.67982 25.0132 0.609649 28.943 0.600877 28.9825C0.54386 29.1842 0.605263 29.4035 0.754386 29.5482C0.907895 29.693 1.12719 29.75 1.32456 29.6842L7.26754 27.8553C9.59649 29.2588 12.2632 30 15 30C23.2719 30 30 23.2719 30 15C30 6.72807 23.2719 0 15 0ZM24.3991 21.2456C24.0175 22.3289 22.4956 23.2237 21.2851 23.4868C20.4561 23.6623 19.3728 23.8026 15.7237 22.2939C11.057 20.3596 8.05263 15.6228 7.82018 15.3114C7.59649 15.0044 5.93421 12.8026 5.93421 10.5219C5.93421 8.24123 7.0921 7.13596 7.55702 6.65789C7.9386 6.26754 8.57456 6.08772 9.17982 6.08772C9.37719 6.08772 9.55263 6.09649 9.71053 6.10526C10.1754 6.12719 10.4123 6.15351 10.7193 6.89035C11.1009 7.8114 12.0351 10.0921 12.1447 10.3246C12.2588 10.557 12.3728 10.8772 12.2105 11.1842C12.0614 11.5 11.9298 11.6447 11.6974 11.9123C11.4649 12.1842 11.2412 12.3904 11.0088 12.6798C10.7939 12.9298 10.5526 13.2018 10.8202 13.6667C11.0921 14.1228 12.0219 15.6447 13.3947 16.8684C15.1667 18.4474 16.6053 18.9518 17.1184 19.1623C17.5 19.3202 17.9561 19.2851 18.2368 18.9868C18.5921 18.6053 19.0307 17.9693 19.4781 17.3421C19.7939 16.8947 20.1974 16.8377 20.6184 16.9956C21.0482 17.1447 23.3158 18.2675 23.7807 18.4956C24.2456 18.7281 24.5526 18.8421 24.6667 19.0395C24.7851 19.2412 24.7851 20.1623 24.3991 21.2456Z" fill="#63AF6E"/>
</svg>
