<svg width="30" height="31" viewBox="0 0 30 31" fill="none" xmlns="http://www.w3.org/2000/svg">
<path d="M15 0.0141602C6.72807 0.0141602 0 6.74223 0 15.0142C0 17.8343 0.785088 20.5756 2.27193 22.9528C1.67982 25.0273 0.609649 28.9571 0.600877 28.9966C0.54386 29.1984 0.605263 29.4177 0.754386 29.5624C0.907895 29.7071 1.12719 29.7642 1.32456 29.6984L7.26754 27.8694C9.59649 29.2729 12.2632 30.0142 15 30.0142C23.2719 30.0142 30 23.2861 30 15.0142C30 6.74223 23.2719 0.0141602 15 0.0141602ZM24.3991 21.2598C24.0175 22.3431 22.4956 23.2378 21.2851 23.501C20.4561 23.6764 19.3728 23.8168 15.7237 22.308C11.057 20.3738 8.05263 15.637 7.82018 15.3256C7.59649 15.0185 5.93421 12.8168 5.93421 10.5361C5.93421 8.25539 7.0921 7.15013 7.55702 6.67205C7.9386 6.2817 8.57456 6.10188 9.17982 6.10188C9.37719 6.10188 9.55263 6.11065 9.71053 6.11942C10.1754 6.14135 10.4123 6.16767 10.7193 6.90451C11.1009 7.82556 12.0351 10.1063 12.1447 10.3387C12.2588 10.5712 12.3728 10.8914 12.2105 11.1984C12.0614 11.5142 11.9298 11.6589 11.6974 11.9264C11.4649 12.1984 11.2412 12.4045 11.0088 12.694C10.7939 12.944 10.5526 13.2159 10.8202 13.6808C11.0921 14.137 12.0219 15.6589 13.3947 16.8826C15.1667 18.4615 16.6053 18.9659 17.1184 19.1764C17.5 19.3343 17.9561 19.2992 18.2368 19.001C18.5921 18.6194 19.0307 17.9835 19.4781 17.3563C19.7939 16.9089 20.1974 16.8519 20.6184 17.0098C21.0482 17.1589 23.3158 18.2817 23.7807 18.5098C24.2456 18.7422 24.5526 18.8563 24.6667 19.0536C24.7851 19.2554 24.7851 20.1764 24.3991 21.2598Z" fill="#63AF6E"/>
</svg>
