<?xml version="1.0" standalone="no"?>
<!DOCTYPE svg PUBLIC "-//W3C//DTD SVG 1.1//EN" "http://www.w3.org/Graphics/SVG/1.1/DTD/svg11.dtd" >
<svg xmlns="http://www.w3.org/2000/svg" xmlns:xlink="http://www.w3.org/1999/xlink" version="1.1">
<metadata>
Created by FontForge 20190801 at Fri Dec  9 04:53:14 2011
 By Jimmy Wärting
Copyright 1999, 2001 Double Alex Font Studio.
</metadata>
<defs>
<font id="Plumb-Black" horiz-adv-x="556" >
  <font-face 
    font-family="Plumb"
    font-weight="900"
    font-stretch="normal"
    units-per-em="1000"
    panose-1="0 0 0 0 0 0 0 0 0 0"
    ascent="800"
    descent="-200"
    x-height="538"
    cap-height="712"
    bbox="-51 -186 1184 932"
    underline-thickness="50"
    underline-position="-125"
    stemh="146"
    stemv="164"
    unicode-range="U+0020-2265"
  />
<missing-glyph horiz-adv-x="1000" 
 />
    <glyph glyph-name=".notdef" horiz-adv-x="1000" 
 />
    <glyph glyph-name="space" unicode=" " horiz-adv-x="222" 
 />
    <glyph glyph-name="exclam" unicode="!" horiz-adv-x="366" 
d="M306 712l-44 -475h-118l-44 475h206zM298 94c0 -54 -42 -97 -95 -97c-52 0 -95 43 -95 95s43 95 95 95c51 0 95 -43 95 -93z" />
    <glyph glyph-name="quotedbl" unicode="&#x22;" horiz-adv-x="488" 
d="M431 478h-147v234h147v-234zM204 478h-147v234h147v-234z" />
    <glyph glyph-name="numbersign" unicode="#" horiz-adv-x="713" 
d="M666 410h-83l-13 -88h58v-155h-83l-27 -169h-174l27 169h-90l-27 -169h-174l27 169h-58v155h83l13 88h-58v155h83l24 153h174l-24 -153h90l24 153h174l-24 -153h58v-155zM409 412h-90l-13 -88h90z" />
    <glyph glyph-name="dollar" unicode="$" horiz-adv-x="633" 
d="M356 439l41 -6c133 -19 193 -85 193 -211c0 -56 -16 -101 -48 -139c-44 -52 -102 -71 -166 -84v-113h-126v108c-77 4 -107 10 -153 30c-35 15 -53 28 -92 64l112 112c19 -17 28 -22 46 -30c34 -15 71 -18 107 -20v132l-39 5c-126 16 -192 86 -192 203c0 59 17 108 52 147
c45 51 94 66 159 78v91h126v-89c60 -5 84 -11 122 -28c31 -14 47 -25 81 -56l-110 -110c-32 30 -70 37 -113 41v-125zM270 445v118c-41 -9 -62 -31 -62 -63c0 -29 22 -49 62 -55zM356 153c44 10 62 28 62 62c0 37 -17 54 -62 60v-122z" />
    <glyph glyph-name="percent" unicode="%" horiz-adv-x="857" 
d="M812 133c0 -84 -60 -139 -151 -139c-92 0 -151 55 -151 139v95c0 84 60 139 151 139s151 -55 151 -139v-95zM661 712l-339 -712h-126l339 712h126zM347 484c0 -84 -60 -139 -151 -139c-92 0 -151 55 -151 139v95c0 84 60 139 151 139s151 -55 151 -139v-95zM626 137
c0 -26 12 -39 35 -39s35 13 35 39v87c0 26 -12 39 -35 39s-35 -13 -35 -39v-87zM161 488c0 -26 12 -39 35 -39s35 13 35 39v87c0 26 -12 39 -35 39s-35 -13 -35 -39v-87z" />
    <glyph glyph-name="ampersand" unicode="&#x26;" horiz-adv-x="710" 
d="M710 0h-206l-45 52c-25 -19 -35 -25 -51 -34c-31 -16 -72 -24 -121 -24c-152 0 -238 77 -238 212c0 49 12 84 41 122c19 26 34 39 72 66c-50 56 -67 95 -67 150c0 106 80 174 207 174c121 0 201 -69 201 -175c0 -85 -59 -120 -120 -163l84 -97c8 11 11 15 15 26
c9 22 14 42 18 77h154c-7 -71 -13 -99 -31 -142c-13 -31 -23 -46 -52 -81zM297 479l24 17c19 14 28 27 28 43c0 25 -18 41 -46 41s-44 -15 -44 -40c0 -18 9 -32 38 -61zM360 168l-111 127c-32 -24 -42 -42 -42 -74c0 -47 35 -79 85 -79c27 0 46 7 68 26z" />
    <glyph glyph-name="quotesingle" unicode="'" horiz-adv-x="262" 
d="M205 478h-148v234h148v-234z" />
    <glyph glyph-name="parenleft" unicode="(" horiz-adv-x="358" 
d="M309 16l-110 -110l-13 13c-96 94 -114 132 -114 244v386c0 112 18 150 114 244l13 13l110 -110l-9 -9c-53 -52 -64 -76 -64 -144v-374c0 -73 17 -97 64 -144z" />
    <glyph glyph-name="parenright" unicode=")" horiz-adv-x="358" 
d="M159 806c6 -6 6 -7 13 -13c96 -93 114 -132 114 -244v-386c0 -112 -18 -151 -114 -244c-7 -6 -7 -7 -13 -13l-110 110l9 9c49 49 64 71 64 144v374c0 67 -11 92 -64 144l-9 9z" />
    <glyph glyph-name="asterisk" unicode="*" horiz-adv-x="506" 
d="M459 453l-56 -97l-99 64l5 -118h-112l5 118l-99 -64l-56 97l105 54l-105 54l56 97l99 -64l-5 118h112l-5 -118l99 64l56 -97l-105 -54z" />
    <glyph glyph-name="plus" unicode="+" 
d="M507 206h-152v-152h-154v152h-152v154h152v152h154v-152h152v-154z" />
    <glyph glyph-name="comma" unicode="," horiz-adv-x="308" 
d="M27 -114l56 292h170l-88 -292h-138z" />
    <glyph glyph-name="hyphenminus" horiz-adv-x="426" 
d="M377 218h-328v154h328v-154z" />
    <glyph glyph-name="period" unicode="." horiz-adv-x="308" 
d="M259 104c0 -60 -46 -107 -105 -107c-58 0 -105 47 -105 105s47 105 105 105c57 0 105 -47 105 -103z" />
    <glyph glyph-name="slash" unicode="/" horiz-adv-x="431" 
d="M434 786l-285 -860h-152l285 860h152z" />
    <glyph glyph-name="zero" unicode="0" 
d="M507 216c0 -131 -94 -222 -229 -222s-229 91 -229 222v280c0 131 94 222 229 222s229 -91 229 -222v-280zM213 215c0 -45 25 -73 65 -73s65 28 65 73v281c0 45 -26 74 -65 74c-40 0 -65 -29 -65 -74v-281z" />
    <glyph glyph-name="one" unicode="1" 
d="M406 0h-164v537l-152 -132v175l152 132h164v-712z" />
    <glyph glyph-name="two" unicode="2" 
d="M511 0h-458v148l258 280c27 30 36 48 36 75c0 42 -24 67 -64 67c-43 0 -64 -22 -66 -69h-164c2 44 5 62 16 88c34 81 114 129 215 129c135 0 227 -86 227 -214c0 -66 -18 -102 -88 -176l-170 -180h258v-148z" />
    <glyph glyph-name="three" unicode="3" 
d="M434 368c35 -26 47 -39 62 -67c13 -25 20 -55 20 -89c0 -132 -94 -218 -237 -218c-73 0 -137 24 -179 66c-46 46 -55 94 -58 157h164c2 -49 27 -75 73 -75c45 0 73 28 73 74c0 45 -31 77 -76 77h-23v142h23c41 0 68 26 68 68c0 39 -27 67 -65 67c-39 0 -63 -25 -65 -67
h-164c2 43 6 61 16 86c34 81 114 129 213 129c133 0 229 -89 229 -212c0 -40 -11 -74 -32 -101c-11 -14 -19 -21 -42 -37z" />
    <glyph glyph-name="four" unicode="4" 
d="M530 94h-53v-94h-156v94h-295v156l236 462h180l-236 -462h115v94h156v-94h53v-156z" />
    <glyph glyph-name="five" unicode="5" 
d="M212 454c28 19 61 28 99 28c126 0 201 -88 201 -236c0 -94 -18 -145 -66 -191c-42 -40 -98 -61 -165 -61c-68 0 -129 22 -169 62c-24 24 -41 52 -51 86c-6 22 -8 37 -11 75h164c7 -53 27 -75 67 -75c47 0 67 31 67 101s-21 101 -67 101c-35 0 -53 -14 -67 -51h-151v419
h434v-148h-285v-110z" />
    <glyph glyph-name="six" unicode="6" 
d="M282 433c12 4 21 5 36 5c111 0 194 -92 194 -216c0 -137 -95 -228 -237 -228c-141 0 -237 91 -237 226c0 20 2 41 7 62c8 35 20 63 61 148l137 282h180zM348 221c0 51 -29 83 -73 83s-73 -32 -73 -81s29 -81 73 -81c43 0 73 32 73 79z" />
    <glyph glyph-name="seven" unicode="7" 
d="M522 564l-222 -564h-180l222 564h-152v-112h-156v260h488v-148z" />
    <glyph glyph-name="eight" unicode="8" 
d="M437 366c59 -48 80 -90 80 -156c0 -131 -94 -216 -239 -216s-239 85 -239 215c0 44 11 80 34 111c12 16 21 26 46 46c-53 46 -73 85 -73 145c0 119 98 207 232 207s232 -88 232 -207c0 -60 -20 -99 -73 -145zM346 501c0 39 -30 69 -68 69s-68 -30 -68 -68s30 -68 68 -68
c37 0 68 30 68 67zM353 216c0 42 -33 76 -75 76c-41 0 -75 -34 -75 -75s34 -75 75 -75c40 0 75 34 75 74z" />
    <glyph glyph-name="nine" unicode="9" 
d="M274 279c-11 -4 -21 -5 -36 -5c-111 0 -194 92 -194 216c0 137 95 228 237 228c141 0 237 -92 237 -226c0 -21 -2 -41 -7 -62c-8 -35 -20 -63 -61 -148l-137 -282h-180zM354 487c0 51 -29 83 -73 83s-73 -32 -73 -81s29 -81 73 -81c43 0 73 32 73 79z" />
    <glyph glyph-name="colon" unicode=":" horiz-adv-x="308" 
d="M259 414c0 -60 -46 -107 -105 -107c-58 0 -105 47 -105 105s47 105 105 105c57 0 105 -47 105 -103zM259 104c0 -60 -46 -107 -105 -107c-58 0 -105 47 -105 105s47 105 105 105c57 0 105 -47 105 -103z" />
    <glyph glyph-name="semicolon" unicode=";" horiz-adv-x="308" 
d="M259 414c0 -60 -46 -107 -105 -107c-58 0 -105 47 -105 105s47 105 105 105c57 0 105 -47 105 -103zM19 -114l56 292h170l-88 -292h-138z" />
    <glyph glyph-name="less" unicode="&#x3c;" 
d="M30 218v157l494 194v-161l-320 -112l320 -110v-162z" />
    <glyph glyph-name="equal" unicode="=" 
d="M507 340h-458v154h458v-154zM507 96h-458v154h458v-154z" />
    <glyph glyph-name="greater" unicode="&#x3e;" 
d="M524 218l-494 -194v162l320 110l-320 112v161l494 -194v-157z" />
    <glyph glyph-name="question" unicode="?" horiz-adv-x="538" 
d="M60 507c2 42 5 60 16 85c33 79 110 126 208 126c132 0 224 -85 224 -207c0 -46 -15 -86 -51 -131l-69 -87c-11 -14 -18 -32 -18 -47v-9h-164v23c0 46 11 76 41 111l70 82c18 21 27 41 27 59c0 35 -24 58 -60 58c-39 0 -58 -20 -60 -63h-164zM383 94
c0 -54 -42 -97 -95 -97c-52 0 -95 43 -95 95s43 95 95 95c51 0 95 -43 95 -93z" />
    <glyph glyph-name="at" unicode="@" horiz-adv-x="784" 
d="M735 0h-151v40c-23 -21 -33 -28 -52 -36c-17 -7 -38 -10 -60 -10c-49 0 -91 15 -121 44c-21 21 -38 51 -42 78c-3 22 -6 59 -6 110v17c0 94 12 136 48 171c30 29 71 44 120 44c23 0 44 -4 62 -11s27 -13 46 -30v26c0 85 -42 127 -127 127h-120c-86 0 -127 -41 -127 -127
v-262c0 -40 7 -56 36 -86l-113 -113c-37 38 -50 56 -62 85c-12 28 -17 61 -17 104v278c0 101 18 159 64 205s105 64 208 64h142c102 0 162 -18 208 -64s64 -104 64 -205v-449zM579 227c0 66 -18 95 -60 95c-43 0 -60 -29 -60 -102c0 -62 19 -90 60 -90c42 0 60 28 60 97z
" />
    <glyph glyph-name="A" unicode="A" horiz-adv-x="653" 
d="M653 0h-183l-33 106h-219l-35 -106h-183l259 712h135zM391 252l-60 190l-64 -190h124z" />
    <glyph glyph-name="B" unicode="B" horiz-adv-x="653" 
d="M516 365c63 -40 88 -84 88 -156c0 -127 -87 -209 -222 -209h-310v712h295c139 0 227 -78 227 -200c0 -63 -23 -107 -78 -147zM247 439h109c40 0 63 22 63 58s-23 58 -63 58h-109v-116zM247 157h118c40 0 64 24 64 63s-24 62 -64 62h-118v-125z" />
    <glyph glyph-name="C" unicode="C" horiz-adv-x="547" 
d="M516 73c-36 -34 -53 -46 -84 -59c-32 -13 -70 -20 -111 -20c-81 0 -149 27 -200 80c-33 34 -57 82 -63 123c-4 31 -9 84 -9 159v25c0 139 17 200 72 257c51 53 118 80 199 80c42 0 79 -7 112 -20c31 -13 48 -25 84 -59l-116 -116c-31 31 -48 39 -80 39
c-30 0 -54 -10 -69 -30c-21 -27 -27 -69 -27 -192c0 -92 7 -135 27 -160c16 -20 39 -30 69 -30c32 0 49 8 80 39z" />
    <glyph glyph-name="D" unicode="D" horiz-adv-x="651" 
d="M72 712h264c80 0 145 -24 192 -70c54 -53 74 -113 74 -221v-65c0 -75 -2 -129 -7 -162c-5 -40 -33 -91 -67 -124c-48 -47 -112 -70 -192 -70h-264v712zM247 156h77c39 0 66 13 84 40c20 30 19 101 19 140v35c0 95 -3 122 -19 145c-18 27 -45 40 -84 40h-77v-400z" />
    <glyph glyph-name="E" unicode="E" horiz-adv-x="608" 
d="M556 0h-484v712h484v-156h-309v-119h264v-156h-264v-125h309v-156z" />
    <glyph glyph-name="F" unicode="F" horiz-adv-x="596" 
d="M556 556h-309v-125h264v-156h-264v-275h-175v712h484v-156z" />
    <glyph glyph-name="G" unicode="G" horiz-adv-x="633" 
d="M591 410v-96c0 -122 -18 -183 -70 -238c-52 -54 -119 -82 -201 -82c-80 0 -148 27 -199 80c-33 34 -57 82 -63 123c-4 31 -9 84 -9 159v25c0 139 16 199 72 257c53 55 116 80 203 80c47 0 86 -7 119 -20c34 -14 54 -28 96 -68l-119 -119c-41 41 -61 51 -99 51
c-30 0 -55 -11 -71 -31c-10 -13 -17 -32 -19 -49c-4 -30 -7 -72 -7 -126v-18c0 -92 7 -134 26 -158c16 -20 40 -30 71 -30c60 0 96 40 96 106v8h-98v146h272z" />
    <glyph glyph-name="H" unicode="H" horiz-adv-x="680" 
d="M608 0h-175v282h-186v-282h-175v712h175v-274h186v274h175v-712z" />
    <glyph glyph-name="I" unicode="I" horiz-adv-x="319" 
d="M247 0h-175v712h175v-712z" />
    <glyph glyph-name="J" unicode="J" horiz-adv-x="516" 
d="M454 712v-468c0 -149 -110 -250 -272 -250c-40 0 -76 6 -105 18c-30 13 -48 25 -85 60l115 114c28 -28 46 -36 78 -36c60 0 94 35 94 98v464h175z" />
    <glyph glyph-name="K" unicode="K" horiz-adv-x="673" 
d="M673 0h-204l-164 292l-60 -69v-223h-173v712h173v-252l206 252h214l-243 -288z" />
    <glyph glyph-name="L" unicode="L" horiz-adv-x="576" 
d="M546 0h-474v712h175v-556h299v-156z" />
    <glyph glyph-name="M" unicode="M" horiz-adv-x="808" 
d="M736 0h-175v341l-101 -176h-112l-101 176v-341h-175v712h172l160 -314l160 314h172v-712z" />
    <glyph glyph-name="N" unicode="N" horiz-adv-x="700" 
d="M628 0h-153l-228 358v-358h-175v712h153l228 -358v358h175v-712z" />
    <glyph glyph-name="O" unicode="O" horiz-adv-x="640" 
d="M591 356c0 -103 4 -202 -72 -282c-51 -54 -117 -80 -198 -80c-83 0 -148 26 -200 80c-73 76 -72 173 -72 262v45c0 139 16 199 72 257c51 54 117 80 198 80c82 0 148 -26 200 -80c50 -52 72 -116 72 -219v-63zM250 531c-19 -25 -26 -78 -26 -145v-49
c0 -91 7 -131 26 -155c16 -20 42 -32 70 -32s54 12 70 32c19 24 26 64 26 155v49c0 67 -7 120 -26 145c-16 20 -41 31 -70 31s-54 -11 -70 -31z" />
    <glyph glyph-name="P" unicode="P" horiz-adv-x="627" 
d="M72 712h282c141 0 243 -96 243 -229s-101 -229 -243 -229h-107v-254h-175v712zM247 411h99c44 0 76 31 76 72s-32 72 -76 72h-99v-144z" />
    <glyph glyph-name="Q" unicode="Q" horiz-adv-x="640" 
d="M602 61l-89 -89l-55 55c-25 -13 -35 -18 -56 -23c-25 -7 -52 -10 -81 -10c-83 0 -148 26 -200 80c-33 34 -57 82 -63 123c-4 31 -9 84 -9 159v25c0 139 16 199 72 257c51 54 117 80 198 80c82 0 148 -26 200 -80c33 -34 57 -82 63 -123c5 -34 9 -87 9 -159v-23
c0 -78 -4 -121 -15 -160c-6 -22 -11 -33 -26 -60zM412 251c2 21 2 29 3 43c1 19 1 44 1 70c0 102 -6 142 -26 167c-16 20 -41 31 -70 31s-54 -11 -70 -31c-10 -13 -17 -32 -19 -49c-3 -29 -7 -71 -7 -126v-19c0 -91 7 -131 26 -155c15 -19 42 -32 67 -32h3l14 1l-45 45
l89 89z" />
    <glyph glyph-name="R" unicode="R" horiz-adv-x="652" 
d="M635 0h-203l-126 265h-59v-265h-175v712h282c141 0 243 -96 243 -228c0 -54 -17 -100 -52 -139c-17 -19 -31 -29 -64 -48zM247 411h99c44 0 76 31 76 72s-32 72 -76 72h-99v-144z" />
    <glyph glyph-name="S" unicode="S" horiz-adv-x="593" 
d="M429 523c-19 17 -28 23 -44 29c-22 9 -47 13 -78 13c-63 0 -99 -24 -99 -65c0 -30 23 -49 63 -55l86 -12c132 -18 193 -85 193 -211c0 -142 -109 -228 -289 -228c-59 0 -115 10 -162 29c-34 14 -53 28 -94 65l112 112c20 -17 28 -22 47 -30c33 -13 69 -20 112 -20
c68 0 102 22 102 65c0 36 -19 54 -61 60l-86 12c-128 18 -192 86 -192 203c0 141 102 228 269 228c51 0 102 -9 143 -26c33 -14 50 -25 88 -59z" />
    <glyph glyph-name="T" unicode="T" horiz-adv-x="585" 
d="M555 556h-175v-556h-175v556h-175v156h525v-156z" />
    <glyph glyph-name="U" unicode="U" horiz-adv-x="660" 
d="M600 712v-462c0 -148 -114 -256 -271 -256c-156 0 -269 107 -269 256v462h175v-458c0 -65 35 -104 94 -104s96 40 96 104v458h175z" />
    <glyph glyph-name="V" unicode="V" horiz-adv-x="601" 
d="M601 712l-236 -712h-130l-235 712h181l120 -398l118 398h182z" />
    <glyph glyph-name="W" unicode="W" horiz-adv-x="906" 
d="M906 712l-195 -712h-143l-115 351l-115 -351h-142l-196 712h183l93 -376l115 376h124l115 -376l93 376h183z" />
    <glyph glyph-name="X" unicode="X" horiz-adv-x="634" 
d="M634 0h-200l-117 219l-117 -219h-200l222 365l-208 347h199l104 -201l104 201h199l-208 -347z" />
    <glyph glyph-name="Y" unicode="Y" horiz-adv-x="605" 
d="M605 712l-215 -422v-290h-175v290l-215 422h191l112 -256l111 256h191z" />
    <glyph glyph-name="Z" unicode="Z" horiz-adv-x="543" 
d="M513 0h-483v136l273 420h-261v156h471v-136l-274 -420h274v-156z" />
    <glyph glyph-name="bracketleft" unicode="[" horiz-adv-x="416" 
d="M376 -74h-304v860h304v-148h-140v-564h140v-148z" />
    <glyph glyph-name="backslash" unicode="\" horiz-adv-x="431" 
d="M431 -74h-152l-279 842h152z" />
    <glyph glyph-name="bracketright" unicode="]" horiz-adv-x="416" 
d="M344 -74h-304v148h140v564h-140v148h304v-860z" />
    <glyph glyph-name="asciicircum" unicode="^" 
d="M542 373h-173l-90 165l-90 -165h-173l187 345h152z" />
    <glyph glyph-name="underscore" unicode="_" horiz-adv-x="600" 
d="M600 -186h-600v108h600v-108z" />
    <glyph glyph-name="grave" unicode="`" horiz-adv-x="500" 
d="M308 610h-99l-118 180h168z" />
    <glyph glyph-name="a" unicode="a" horiz-adv-x="536" 
d="M483 0h-160v44c-23 -22 -34 -30 -53 -38c-18 -7 -40 -11 -65 -11c-108 0 -178 68 -178 172c0 98 70 158 183 158h109v14c0 48 -23 67 -81 67c-39 0 -56 -7 -86 -36l-102 102c33 31 49 42 76 53c31 13 68 19 117 19c160 0 240 -65 240 -195v-349zM319 216h-83
c-31 0 -52 -17 -52 -43c0 -29 22 -45 61 -45c51 0 74 22 74 74v14z" />
    <glyph glyph-name="b" unicode="b" horiz-adv-x="569" 
d="M226 499c20 18 29 24 48 32c20 8 44 13 70 13c53 0 101 -18 132 -49c34 -35 50 -89 50 -177v-49c0 -58 -3 -104 -8 -138c-5 -32 -21 -67 -42 -88c-30 -31 -79 -49 -132 -49c-26 0 -49 4 -69 12s-31 16 -54 38v-44h-159v712h164v-213zM362 272c0 94 -17 124 -69 124
c-28 0 -47 -11 -56 -35c-8 -19 -11 -48 -11 -101c0 -88 18 -118 69 -118s67 31 67 130z" />
    <glyph glyph-name="c" unicode="c" horiz-adv-x="475" 
d="M457 63c-31 -28 -45 -38 -74 -50c-31 -13 -65 -19 -103 -19c-156 0 -242 99 -242 280c0 171 89 270 242 270c38 0 72 -6 103 -19c29 -12 43 -22 74 -50l-111 -111c-26 24 -41 32 -66 32c-53 0 -78 -41 -78 -127s25 -127 78 -127c25 0 40 7 66 32z" />
    <glyph glyph-name="d" unicode="d" horiz-adv-x="569" 
d="M507 0h-159v44c-23 -22 -34 -30 -54 -38s-43 -12 -69 -12c-53 0 -102 18 -132 49c-21 21 -38 58 -42 88c-4 25 -8 71 -8 138v24c0 111 13 164 50 202c30 31 78 49 131 49c27 0 51 -5 71 -13c19 -8 28 -14 48 -32v213h164v-712zM343 272c0 94 -17 124 -69 124
c-28 0 -47 -11 -56 -35c-8 -19 -11 -48 -11 -101c0 -88 18 -118 69 -118s67 31 67 130z" />
    <glyph glyph-name="e" unicode="e" horiz-adv-x="559" 
d="M521 216h-322c3 -54 38 -84 100 -84c21 0 42 4 58 10c17 7 27 14 48 35l98 -98c-39 -37 -58 -51 -91 -64c-33 -14 -71 -21 -118 -21c-171 0 -256 91 -256 275c0 169 93 275 242 275c144 0 241 -102 241 -255v-73zM359 325c-1 53 -31 84 -80 84s-80 -32 -80 -84h160z" />
    <glyph glyph-name="f" unicode="f" horiz-adv-x="358" 
d="M333 391h-90v-391h-164v391h-49v126h49v47c0 95 68 159 167 159h87v-138h-57c-22 0 -33 -11 -33 -33v-35h90v-126z" />
    <glyph glyph-name="g" unicode="g" horiz-adv-x="561" 
d="M499 538v-499c0 -133 -99 -219 -252 -219c-46 0 -86 7 -121 21c-26 10 -41 21 -72 49l102 102c27 -25 52 -34 90 -34c56 0 89 30 89 82v39c-21 -19 -30 -25 -49 -33s-41 -12 -66 -12c-52 0 -95 16 -127 48c-22 22 -39 55 -43 83c-3 23 -7 64 -7 124v20
c0 105 12 149 50 187c32 32 76 48 128 48c25 0 46 -4 65 -12s30 -16 54 -38v44h159zM335 290c0 78 -17 106 -64 106c-28 0 -46 -11 -55 -34c-7 -16 -9 -38 -9 -79c0 -73 18 -101 64 -101c48 0 64 28 64 108z" />
    <glyph glyph-name="h" unicode="h" horiz-adv-x="573" 
d="M516 0h-164v326c0 42 -25 70 -63 70s-63 -28 -63 -70v-326h-164v712h164v-218c24 22 35 29 56 38c21 8 41 12 64 12c104 0 170 -76 170 -195v-349z" />
    <glyph glyph-name="i" unicode="i" horiz-adv-x="288" 
d="M244 664c0 -57 -44 -102 -100 -102c-55 0 -100 45 -100 100s45 100 100 100c54 0 100 -45 100 -98zM226 0h-164v517h164v-517z" />
    <glyph glyph-name="j" unicode="j" horiz-adv-x="288" 
d="M244 664c0 -57 -44 -102 -100 -102c-55 0 -100 45 -100 100s45 100 100 100c54 0 100 -45 100 -98zM226 517v-538c0 -95 -68 -159 -167 -159h-87v138h57c21 0 33 12 33 33v526h164z" />
    <glyph glyph-name="k" unicode="k" horiz-adv-x="573" 
d="M573 0h-203l-112 197l-32 -35v-162h-164v712h164v-362l145 188h197l-198 -223z" />
    <glyph glyph-name="l" unicode="l" horiz-adv-x="288" 
d="M226 0h-164v712h164v-712z" />
    <glyph glyph-name="m" unicode="m" horiz-adv-x="875" 
d="M818 0h-164v322c0 45 -26 74 -66 74s-66 -29 -66 -74v-322h-164v322c0 45 -26 74 -66 74s-66 -29 -66 -74v-322h-164v538h160v-44c23 20 33 27 55 36c23 9 47 14 72 14c26 0 51 -5 73 -15c22 -9 33 -18 56 -42c31 26 45 35 70 44c24 9 50 13 79 13
c119 0 191 -76 191 -200v-344z" />
    <glyph glyph-name="n" unicode="n" horiz-adv-x="579" 
d="M522 0h-164v322c0 45 -26 74 -66 74s-66 -29 -66 -74v-322h-164v538h160v-44c23 20 33 27 55 36c23 9 47 14 72 14c108 0 173 -75 173 -200v-344z" />
    <glyph glyph-name="o" unicode="o" horiz-adv-x="550" 
d="M507 270c0 -108 -15 -160 -59 -207c-43 -45 -102 -69 -173 -69s-131 24 -173 69c-45 48 -59 99 -59 212c0 100 16 154 59 200c42 45 102 69 173 69s131 -24 173 -69c44 -47 59 -100 59 -205zM343 272c0 94 -17 124 -68 124s-68 -30 -68 -124c0 -100 16 -130 68 -130
s68 30 68 130z" />
    <glyph glyph-name="p" unicode="p" horiz-adv-x="569" 
d="M221 494c23 22 34 29 54 38c20 8 43 12 69 12c53 0 102 -18 132 -49c34 -35 50 -89 50 -177v-49c0 -58 -3 -104 -8 -138c-5 -32 -21 -67 -42 -88c-30 -31 -78 -49 -131 -49c-27 0 -51 4 -71 13c-18 7 -28 13 -48 32v-213h-164v712h159v-44zM362 272c0 94 -17 124 -69 124
c-28 0 -47 -11 -56 -35c-8 -19 -11 -48 -11 -101c0 -88 18 -118 69 -118s67 31 67 130z" />
    <glyph glyph-name="q" unicode="q" horiz-adv-x="569" 
d="M507 -174h-164v213c-20 -19 -30 -25 -48 -32c-20 -9 -44 -13 -71 -13c-53 0 -100 18 -131 49c-21 21 -38 58 -42 88c-4 25 -8 71 -8 138v24c0 111 13 164 50 202c30 31 79 49 132 49c26 0 49 -4 69 -12c20 -9 31 -16 54 -38v44h159v-712zM343 272c0 94 -17 124 -69 124
c-28 0 -47 -11 -56 -35c-8 -19 -11 -48 -11 -101c0 -88 18 -118 69 -118s67 31 67 130z" />
    <glyph glyph-name="r" unicode="r" horiz-adv-x="475" 
d="M475 494l-124 -126c-22 21 -36 28 -58 28c-41 0 -67 -29 -67 -74v-322h-164v538h160v-44c38 34 79 50 130 50c25 0 49 -4 69 -12c19 -8 30 -16 54 -38z" />
    <glyph glyph-name="s" unicode="s" horiz-adv-x="504" 
d="M364 377c-13 11 -19 15 -30 19c-21 9 -48 13 -75 13c-41 0 -62 -11 -62 -33c0 -16 12 -26 35 -28l83 -8c103 -10 162 -69 162 -164c0 -118 -89 -182 -251 -182c-54 0 -96 7 -134 22c-29 12 -46 24 -82 56l106 106c20 -18 30 -24 47 -31c22 -10 48 -14 77 -14
c49 0 77 13 77 36c0 19 -14 31 -39 33l-83 8c-104 10 -156 61 -156 153c0 112 87 181 229 181c48 0 94 -8 131 -22c24 -10 38 -19 66 -44z" />
    <glyph glyph-name="t" unicode="t" horiz-adv-x="363" 
d="M323 0h-82c-100 0 -167 64 -167 159v232h-49v126h49v154h164v-154h85v-126h-85v-220c0 -22 11 -33 33 -33h52v-138z" />
    <glyph glyph-name="u" unicode="u" horiz-adv-x="579" 
d="M517 0h-160v44c-23 -20 -33 -27 -55 -36c-23 -9 -47 -14 -72 -14c-108 0 -173 75 -173 200v344h164v-322c0 -45 26 -74 66 -74s66 29 66 74v322h164v-538z" />
    <glyph glyph-name="v" unicode="v" horiz-adv-x="521" 
d="M521 538l-198 -538h-125l-198 538h172l89 -279l88 279h172z" />
    <glyph glyph-name="w" unicode="w" horiz-adv-x="780" 
d="M780 538l-162 -538h-131l-97 295l-97 -295h-131l-162 538h173l67 -279l93 279h114l93 -279l67 279h173z" />
    <glyph glyph-name="x" unicode="x" 
d="M556 0h-197l-82 136l-80 -136h-197l187 275l-180 263h197l73 -130l75 130h197l-180 -263z" />
    <glyph glyph-name="y" unicode="y" horiz-adv-x="514" 
d="M518 538l-223 -602c-30 -81 -80 -116 -163 -116h-62v148h35c32 0 45 10 55 40l15 45l-179 485h172l91 -279l87 279h172z" />
    <glyph glyph-name="z" unicode="z" horiz-adv-x="489" 
d="M449 0h-419v121l205 269h-193v148h407v-121l-209 -269h209v-148z" />
    <glyph glyph-name="braceleft" unicode="{" horiz-adv-x="518" 
d="M478 -74h-140c-100 0 -167 64 -167 159v119c0 56 -21 78 -73 78h-58v148h58c52 0 73 22 73 78v119c0 95 67 159 167 159h140v-148h-70c-59 0 -73 -15 -73 -78v-104c0 -56 -22 -86 -73 -100c51 -14 73 -44 73 -100v-104c0 -63 14 -78 73 -78h70v-148z" />
    <glyph glyph-name="bar" unicode="|" horiz-adv-x="364" 
d="M264 -74h-164v860h164v-860z" />
    <glyph glyph-name="braceright" unicode="}" horiz-adv-x="518" 
d="M478 282h-58c-52 0 -73 -22 -73 -78v-119c0 -95 -67 -159 -167 -159h-140v148h70c59 0 73 15 73 78v104c0 56 22 86 73 100c-51 14 -73 44 -73 100v104c0 63 -14 78 -73 78h-70v148h140c100 0 167 -64 167 -159v-119c0 -56 21 -78 73 -78h58v-148z" />
    <glyph glyph-name="asciitilde" unicode="~" 
d="M570 283c-37 -36 -54 -50 -78 -65c-35 -22 -69 -31 -113 -31c-21 0 -41 2 -59 7c-19 5 -31 11 -60 27c-33 19 -55 25 -84 25c-35 0 -54 -9 -88 -41l-104 104c38 37 55 52 80 67c34 21 67 29 109 29c21 0 41 -2 59 -7c19 -5 33 -12 60 -27c34 -19 54 -25 84 -25
c35 0 54 9 88 41z" />
    <glyph glyph-name="afii10051" unicode="&#x402;" horiz-adv-x="750" 
d="M697 64c0 -149 -66 -247 -252 -247c-50 0 -99 9 -141 37l103 127c12 -6 25 -8 41 -8c40 0 74 32 74 95v146c0 39 -24 63 -64 63h-108v-277h-175v556h-145v156h525v-156h-205v-125h149c116 0 198 -80 198 -189v-178z" />
    <glyph glyph-name="afii10052" unicode="&#x403;" 
d="M531 556h-284v-556h-175v712h459v-156zM435 927l-118 -180h-99l49 180h168z" />
    <glyph glyph-name="quotesinglbase" unicode="&#x201a;" horiz-adv-x="278" 
d="M245 170l-81 -257h-130l49 257h162z" />
    <glyph glyph-name="afii10100" unicode="&#x453;" horiz-adv-x="444" 
d="M430 392h-204v-392h-164v538h368v-146zM379 790l-118 -180h-99l49 180h168z" />
    <glyph glyph-name="quotedblbase" unicode="&#x201e;" horiz-adv-x="511" 
d="M477 170l-81 -257h-130l49 257h162zM245 170l-81 -257h-130l49 257h162z" />
    <glyph glyph-name="ellipsis" unicode="&#x2026;" horiz-adv-x="899" 
d="M850 104c0 -60 -46 -107 -105 -107c-58 0 -105 47 -105 105s47 105 105 105c57 0 105 -47 105 -103zM554 103c0 -60 -45 -106 -104 -106c-58 0 -106 47 -106 105s47 105 105 105c57 0 105 -47 105 -104zM259 104c0 -60 -46 -107 -105 -107c-58 0 -105 47 -105 105
s47 105 105 105c57 0 105 -47 105 -103z" />
    <glyph glyph-name="dagger" unicode="&#x2020;" horiz-adv-x="564" 
d="M517 390h-153v-390h-164v390h-153v148h153v174h164v-174h153v-148z" />
    <glyph glyph-name="daggerdbl" unicode="&#x2021;" horiz-adv-x="564" 
d="M517 0h-153v-174h-164v174h-153v148h153v242h-153v148h153v174h164v-174h153v-148h-153v-242h153v-148z" />
    <glyph glyph-name="perthousand" unicode="&#x2030;" horiz-adv-x="1229" 
d="M1184 133c0 -84 -60 -139 -151 -139c-92 0 -151 55 -151 139v95c0 84 60 139 151 139s151 -55 151 -139v-95zM812 133c0 -84 -60 -139 -151 -139c-92 0 -151 55 -151 139v95c0 84 60 139 151 139s151 -55 151 -139v-95zM661 712l-339 -712h-126l339 712h126zM347 484
c0 -84 -60 -139 -151 -139c-92 0 -151 55 -151 139v95c0 84 60 139 151 139s151 -55 151 -139v-95zM998 137c0 -26 12 -39 35 -39s35 13 35 39v87c0 26 -12 39 -35 39s-35 -13 -35 -39v-87zM626 137c0 -26 12 -39 35 -39s35 13 35 39v87c0 26 -12 39 -35 39s-35 -13 -35 -39
v-87zM161 488c0 -26 12 -39 35 -39s35 13 35 39v87c0 26 -12 39 -35 39s-35 -13 -35 -39v-87z" />
    <glyph glyph-name="afii10058" unicode="&#x409;" horiz-adv-x="988" 
d="M958 229c0 -133 -97 -229 -238 -229h-287v556h-120l-7 -286c-4 -178 -85 -270 -225 -270h-71v156h21c51 0 97 33 99 110l11 446h467v-254h112c142 0 238 -96 238 -229zM783 229c0 41 -32 72 -76 72h-99v-145h99c44 0 76 32 76 73z" />
    <glyph glyph-name="guilsinglleft" unicode="&#x2039;" horiz-adv-x="363" 
d="M303 9l-273 271l273 270v-193l-79 -77l79 -78v-193z" />
    <glyph glyph-name="afii10059" unicode="&#x40a;" horiz-adv-x="988" 
d="M433 302h-186v-302h-175v712h175v-254h186v254h175v-254h112c142 0 238 -96 238 -229s-97 -229 -238 -229h-287v302zM783 229c0 41 -32 72 -76 72h-99v-145h99c44 0 76 32 76 73z" />
    <glyph glyph-name="afii10061" unicode="&#x40c;" horiz-adv-x="673" 
d="M673 0h-204l-164 292l-60 -69v-223h-173v712h173v-252l206 252h214l-243 -288zM455 927l-118 -180h-99l49 180h168z" />
    <glyph glyph-name="afii10060" unicode="&#x40b;" horiz-adv-x="750" 
d="M697 0h-175v224c0 39 -24 63 -64 63c-39 0 -84 -4 -108 -9v-278h-175v556h-145v156h525v-156h-205v-124c28 5 112 12 159 12c98 0 188 -80 188 -189v-255z" />
    <glyph glyph-name="afii10145" unicode="&#x40f;" horiz-adv-x="680" 
d="M424 0v-144h-168v144h-184v712h175v-556h186v556h175v-712h-184z" />
    <glyph glyph-name="afii10099" unicode="&#x452;" horiz-adv-x="573" 
d="M516 -1c0 -95 -38 -179 -187 -179h-67v138h37c40 0 53 32 53 53v165c0 42 -25 70 -63 70s-63 -28 -63 -70v-176h-164v431h-42v126h42v155h164v-155h217v-126h-217v-87c37 33 69 50 120 50c104 0 170 -76 170 -195v-200z" />
    <glyph glyph-name="quoteleft" unicode="&#x2018;" horiz-adv-x="278" 
d="M245 799l-49 -257h-162l81 257h130z" />
    <glyph glyph-name="quoteright" unicode="&#x2019;" horiz-adv-x="278" 
d="M245 799l-81 -257h-130l49 257h162z" />
    <glyph glyph-name="quotedblleft" unicode="&#x201c;" horiz-adv-x="511" 
d="M477 799l-49 -257h-162l81 257h130zM245 799l-49 -257h-162l81 257h130z" />
    <glyph glyph-name="quotedblright" unicode="&#x201d;" horiz-adv-x="511" 
d="M477 799l-81 -257h-130l49 257h162zM245 799l-81 -257h-130l49 257h162z" />
    <glyph glyph-name="bullet" unicode="&#x2022;" horiz-adv-x="470" 
d="M398 337c0 -93 -72 -166 -163 -166c-90 0 -163 73 -163 163s73 163 163 163c88 0 163 -73 163 -160z" />
    <glyph glyph-name="endash" unicode="&#x2013;" horiz-adv-x="500" 
d="M500 218h-500v154h500v-154z" />
    <glyph glyph-name="emdash" unicode="&#x2014;" horiz-adv-x="1000" 
d="M1000 218h-1000v154h1000v-154z" />
    <glyph glyph-name="trademark" unicode="&#x2122;" horiz-adv-x="973" 
d="M906 285h-117v219l-67 -131h-100l-67 131v-219h-117v427h117l117 -210l117 210h117v-427zM377 608h-105v-323h-116v323h-105v104h326v-104z" />
    <glyph glyph-name="afii10106" unicode="&#x459;" horiz-adv-x="838" 
d="M810 177c0 -103 -76 -177 -184 -177h-268v392h-91l-5 -188c-4 -134 -65 -204 -170 -204h-84v146h16c38 0 73 25 75 83l8 309h415v-184h104c109 0 184 -74 184 -177zM648 177c0 29 -22 50 -53 50h-78v-100h78c31 0 53 21 53 50z" />
    <glyph glyph-name="guilsinglright" unicode="&#x203a;" horiz-adv-x="363" 
d="M333 280l-273 -271v193l80 78l-80 77v193z" />
    <glyph glyph-name="afii10107" unicode="&#x45a;" horiz-adv-x="833" 
d="M805 177c0 -103 -76 -177 -184 -177h-268v208h-127v-208h-164v538h164v-184h127v184h164v-184h104c109 0 184 -74 184 -177zM643 177c0 29 -22 50 -53 50h-78v-100h78c31 0 53 21 53 50z" />
    <glyph glyph-name="afii10109" unicode="&#x45c;" horiz-adv-x="573" 
d="M573 0h-203l-112 197l-32 -38v-159h-164v538h164v-193l145 193h197l-198 -223zM439 790l-118 -180h-99l49 180h168z" />
    <glyph glyph-name="afii10108" unicode="&#x45b;" horiz-adv-x="573" 
d="M516 0h-164v176c0 42 -25 70 -63 70s-63 -28 -63 -70v-176h-164v431h-42v126h42v155h164v-155h217v-126h-217v-87c37 33 69 50 120 50c104 0 170 -76 170 -195v-199z" />
    <glyph glyph-name="afii10193" unicode="&#x45f;" horiz-adv-x="579" 
d="M365 -114h-154v114h-149v538h164v-392h127v392h164v-538h-152v-114z" />
    <glyph glyph-name="nbspace" unicode="&#xa0;" horiz-adv-x="222" 
 />
    <glyph glyph-name="afii10062" unicode="&#x40e;" horiz-adv-x="601" 
d="M601 712l-250 -587c-27 -63 -79 -125 -170 -125h-97v156h62c54 0 72 41 79 69l-225 487h182l125 -298l113 298h181zM471 903c-6 -98 -60 -157 -164 -157c-105 0 -158 59 -164 157h106c4 -32 23 -47 58 -47s54 15 58 47h106z" />
    <glyph glyph-name="afii10110" unicode="&#x45e;" horiz-adv-x="514" 
d="M522 538l-223 -602c-30 -81 -80 -116 -163 -116h-62v148h35c32 0 45 10 55 40l15 45l-179 485h172l91 -279l87 279h172zM421 737c-6 -98 -60 -157 -164 -157c-105 0 -158 59 -164 157h106c4 -32 23 -47 58 -47s54 15 58 47h106z" />
    <glyph glyph-name="afii10057" unicode="&#x408;" horiz-adv-x="516" 
d="M454 712v-468c0 -149 -110 -250 -272 -250c-40 0 -76 6 -105 18c-30 13 -48 25 -85 60l115 114c28 -28 46 -36 78 -36c60 0 94 35 94 98v464h175z" />
    <glyph glyph-name="currency" unicode="&#xa4;" 
d="M554 72c-60 -57 -105 -78 -189 -78c-163 0 -273 100 -273 250v22h-59v76h59v34h-59v76h59v16c0 150 110 250 273 250c84 0 134 -27 181 -70l-107 -122c-29 28 -46 36 -79 36c-59 0 -93 -35 -93 -98v-12h160l-20 -76h-140v-34h129l-20 -76h-109v-18c0 -63 34 -98 93 -98
c33 0 50 8 79 36z" />
    <glyph glyph-name="afii10050" unicode="&#x490;" 
d="M531 556h-284v-556h-175v712h291v144h168v-300z" />
    <glyph glyph-name="brokenbar" unicode="&#xa6;" horiz-adv-x="364" 
d="M264 436h-164v350h164v-350zM264 -74h-164v350h164v-350z" />
    <glyph glyph-name="section" unicode="&#xa7;" horiz-adv-x="516" 
d="M308 537c-2 29 -16 42 -48 42c-27 0 -46 -14 -46 -35c0 -19 17 -34 56 -48l54 -20c50 -18 82 -36 104 -57c31 -30 47 -74 47 -127c0 -59 -25 -105 -81 -147c22 -14 30 -22 40 -34c21 -26 31 -59 31 -100c0 -115 -83 -191 -208 -191c-63 0 -120 21 -156 57
c-14 14 -26 32 -34 51c-9 23 -12 39 -14 79h156c1 -27 21 -44 50 -44c30 0 50 17 50 41c0 25 -19 43 -59 58l-54 20c-50 19 -81 35 -104 57c-30 28 -47 73 -47 125c0 63 25 108 83 149c-20 13 -27 19 -37 31c-19 24 -29 55 -29 93c0 112 77 181 203 181
c62 0 114 -18 147 -52c14 -14 25 -31 33 -50c10 -23 13 -39 15 -79h-152zM319 278c0 42 -21 67 -59 67c-37 0 -59 -24 -59 -66s22 -66 59 -66s59 24 59 65z" />
    <glyph glyph-name="afii10023" unicode="&#x401;" horiz-adv-x="608" 
d="M556 0h-484v712h484v-156h-309v-119h264v-156h-264v-125h309v-156zM505 827c0 -45 -35 -81 -80 -81c-44 0 -80 36 -80 80s36 80 80 80c43 0 80 -36 80 -79zM271 827c0 -45 -35 -81 -80 -81c-44 0 -80 36 -80 80s36 80 80 80c43 0 80 -36 80 -79z" />
    <glyph glyph-name="copyright" unicode="&#xa9;" horiz-adv-x="822" 
d="M773 363c0 -207 -159 -369 -362 -369c-200 0 -362 162 -362 362s162 362 362 362c196 0 362 -163 362 -355zM670 351c0 159 -107 270 -259 270c-150 0 -259 -111 -259 -265s109 -265 259 -265c148 0 259 112 259 260zM552 216c-29 -24 -42 -32 -67 -41
c-21 -7 -42 -11 -65 -11c-109 0 -181 76 -181 192s72 192 181 192c23 0 44 -4 65 -11c24 -9 38 -17 67 -41l-67 -67c-26 21 -41 27 -64 27c-51 0 -79 -37 -79 -103c0 -61 29 -97 79 -97c23 0 38 6 64 27z" />
    <glyph glyph-name="afii10053" unicode="&#x404;" horiz-adv-x="547" 
d="M516 73c-60 -57 -111 -79 -195 -79c-81 0 -149 27 -200 80c-75 78 -72 196 -72 242v65c0 139 17 200 72 257c51 53 118 80 199 80s134 -21 193 -76l-109 -117c-31 31 -52 37 -84 37c-30 0 -54 -10 -69 -30c-14 -19 -22 -44 -25 -99h172v-152h-173c3 -53 11 -82 26 -101
c16 -20 39 -30 69 -30c32 0 53 7 84 38z" />
    <glyph glyph-name="guillemotleft" unicode="&#xab;" horiz-adv-x="672" 
d="M612 9l-273 271l273 270v-193l-81 -77l81 -78v-193zM303 9l-273 271l273 270v-193l-79 -77l79 -78v-193z" />
    <glyph glyph-name="logicalnot" unicode="&#xac;" 
d="M513 88h-154v150h-316v154h470v-304z" />
    <glyph glyph-name="hyphen" unicode="-" horiz-adv-x="426" 
d="M377 218h-328v154h328v-154z" />
    <glyph glyph-name="registered" unicode="&#xae;" horiz-adv-x="416" 
d="M396 533c0 -107 -82 -191 -188 -191c-104 0 -188 84 -188 188s84 188 188 188c102 0 188 -85 188 -185zM343 527c0 83 -56 141 -135 141c-78 0 -134 -58 -134 -138s56 -138 134 -138c77 0 135 58 135 135zM296 431h-61l-29 74h-16v-74h-54v197h88c39 0 67 -26 67 -63
c0 -23 -10 -39 -32 -51zM190 545h27c12 0 20 8 20 20c0 11 -8 19 -20 19h-27v-39z" />
    <glyph glyph-name="afii10056" unicode="&#x407;" horiz-adv-x="319" 
d="M247 0h-175v712h175v-712zM356 853c0 -45 -35 -81 -80 -81c-44 0 -80 36 -80 80s36 80 80 80c43 0 80 -36 80 -79zM122 853c0 -45 -35 -81 -80 -81c-44 0 -80 36 -80 80s36 80 80 80c43 0 80 -36 80 -79z" />
    <glyph glyph-name="degree" unicode="&#xb0;" horiz-adv-x="486" 
d="M439 537c0 -111 -86 -199 -196 -199c-108 0 -196 88 -196 196s88 196 196 196c106 0 196 -88 196 -193zM308 533c0 37 -29 66 -65 66s-65 -29 -65 -65s29 -65 65 -65c35 0 65 29 65 64z" />
    <glyph glyph-name="plusminus" unicode="&#xb1;" 
d="M507 371h-152v-152h-154v152h-152v154h152v152h154v-152h152v-154zM507 0h-458v154h458v-154z" />
    <glyph glyph-name="afii10055" unicode="&#x406;" horiz-adv-x="319" 
d="M247 0h-175v712h175v-712z" />
    <glyph glyph-name="afii10103" unicode="&#x456;" horiz-adv-x="288" 
d="M244 664c0 -57 -44 -102 -100 -102c-55 0 -100 45 -100 100s45 100 100 100c54 0 100 -45 100 -98zM226 0h-164v517h164v-517z" />
    <glyph glyph-name="afii10098" unicode="&#x491;" horiz-adv-x="444" 
d="M430 392h-201v-392h-164v538h211v114h154v-260z" />
    <glyph glyph-name="mu" unicode="&#x3bc;" horiz-adv-x="584" 
d="M522 0h-160v44c-23 -20 -33 -27 -55 -36c-23 -9 -47 -14 -70 -14h-11v-168h-164v712h164v-322c0 -45 26 -74 66 -74s66 29 66 74v322h164v-538z" />
    <glyph glyph-name="paragraph" unicode="&#xb6;" horiz-adv-x="707" 
d="M635 -174h-164v730h-90v-730h-164v472c-109 7 -187 95 -187 209c0 128 90 205 241 205h364v-886z" />
    <glyph glyph-name="periodcentered" horiz-adv-x="308" 
d="M259 297c0 -60 -46 -107 -105 -107c-58 0 -105 47 -105 105s47 105 105 105c57 0 105 -47 105 -103z" />
    <glyph glyph-name="afii10071" unicode="&#x451;" horiz-adv-x="559" 
d="M521 216h-322c3 -54 38 -84 100 -84c21 0 42 4 58 10c17 7 27 14 48 35l98 -98c-39 -37 -58 -51 -91 -64c-33 -14 -71 -21 -118 -21c-171 0 -256 91 -256 275c0 169 93 275 242 275c144 0 241 -102 241 -255v-73zM480 667c0 -45 -35 -81 -80 -81c-44 0 -80 36 -80 80
s36 80 80 80c43 0 80 -36 80 -79zM246 667c0 -45 -35 -81 -80 -81c-44 0 -80 36 -80 80s36 80 80 80c43 0 80 -36 80 -79zM359 325c-1 53 -31 84 -80 84s-80 -32 -80 -84h160z" />
    <glyph glyph-name="afii61352" unicode="&#x2116;" horiz-adv-x="975" 
d="M576 0h-142l-208 388v-388h-164v712h142l208 -388v388h164v-712zM925 295c0 -84 -60 -139 -151 -139c-92 0 -151 55 -151 139v95c0 84 60 139 151 139s151 -55 151 -139v-95zM739 299c0 -26 12 -39 35 -39s35 13 35 39v87c0 26 -12 39 -35 39s-35 -13 -35 -39v-87zM925 0
h-302v124h302v-124z" />
    <glyph glyph-name="afii10101" unicode="&#x454;" horiz-adv-x="475" 
d="M457 63c-54 -49 -103 -69 -177 -69c-156 0 -242 99 -242 280c0 171 89 270 242 270c74 0 123 -20 177 -69l-108 -108c-27 24 -43 33 -69 33c-43 0 -68 -26 -78 -77h124v-109h-124c10 -50 35 -76 78 -76c26 0 42 8 69 33z" />
    <glyph glyph-name="guillemotright" unicode="&#xbb;" horiz-adv-x="672" 
d="M642 280l-273 -271v193l79 78l-79 77v193zM333 280l-273 -271v193l80 78l-80 77v193z" />
    <glyph glyph-name="afii10105" unicode="&#x458;" horiz-adv-x="288" 
d="M244 664c0 -57 -44 -102 -100 -102c-55 0 -100 45 -100 100s45 100 100 100c54 0 100 -45 100 -98zM226 517v-538c0 -95 -68 -159 -167 -159h-87v138h57c21 0 33 12 33 33v526h164z" />
    <glyph glyph-name="afii10054" unicode="&#x405;" horiz-adv-x="593" 
d="M429 523c-19 17 -28 23 -44 29c-22 9 -47 13 -78 13c-63 0 -99 -24 -99 -65c0 -30 23 -49 63 -55l86 -12c132 -18 193 -85 193 -211c0 -142 -109 -228 -289 -228c-59 0 -115 10 -162 29c-34 14 -53 28 -94 65l112 112c20 -17 28 -22 47 -30c33 -13 69 -20 112 -20
c68 0 102 22 102 65c0 36 -19 54 -61 60l-86 12c-128 18 -192 86 -192 203c0 141 102 228 269 228c51 0 102 -9 143 -26c33 -14 50 -25 88 -59z" />
    <glyph glyph-name="afii10102" unicode="&#x455;" horiz-adv-x="504" 
d="M364 377c-13 11 -19 15 -30 19c-21 9 -48 13 -75 13c-41 0 -62 -11 -62 -33c0 -16 12 -26 35 -28l83 -8c103 -10 162 -69 162 -164c0 -118 -89 -182 -251 -182c-54 0 -96 7 -134 22c-29 12 -46 24 -82 56l106 106c20 -18 30 -24 47 -31c22 -10 48 -14 77 -14
c49 0 77 13 77 36c0 19 -14 31 -39 33l-83 8c-104 10 -156 61 -156 153c0 112 87 181 229 181c48 0 94 -8 131 -22c24 -10 38 -19 66 -44z" />
    <glyph glyph-name="afii10104" unicode="&#x457;" horiz-adv-x="288" 
d="M226 0h-164v538h164v-538zM343 681c0 -45 -35 -81 -80 -81c-44 0 -80 36 -80 80s36 80 80 80c43 0 80 -36 80 -79zM109 681c0 -45 -35 -81 -80 -81c-44 0 -80 36 -80 80s36 80 80 80c43 0 80 -36 80 -79z" />
    <glyph glyph-name="afii10017" unicode="&#x410;" horiz-adv-x="653" 
d="M653 0h-183l-33 106h-219l-35 -106h-183l259 712h135zM391 252l-60 190l-64 -190h124z" />
    <glyph glyph-name="afii10018" unicode="&#x411;" horiz-adv-x="653" 
d="M604 229c0 -133 -88 -229 -238 -229h-294v712h486v-156h-311v-98h119c149 0 238 -96 238 -229zM429 229c0 41 -27 72 -71 72h-111v-144h111c44 0 71 31 71 72z" />
    <glyph glyph-name="afii10019" unicode="&#x412;" horiz-adv-x="653" 
d="M604 209c0 -127 -87 -209 -222 -209h-310v712h295c139 0 227 -78 227 -200c0 -63 -23 -107 -78 -147c63 -40 88 -84 88 -156zM419 497c0 36 -23 58 -63 58h-109v-116h109c40 0 63 22 63 58zM429 220c0 39 -24 62 -64 62h-118v-125h118c40 0 64 24 64 63z" />
    <glyph glyph-name="afii10020" unicode="&#x413;" 
d="M531 556h-284v-556h-175v712h459v-156z" />
    <glyph glyph-name="afii10021" unicode="&#x414;" horiz-adv-x="714" 
d="M695 -144h-168v144h-349v-144h-168v300h70c50 133 72 274 72 526v30h462v-556h81v-300zM439 156v400h-115v-20c0 -169 -27 -276 -64 -380h179z" />
    <glyph glyph-name="afii10022" unicode="&#x415;" horiz-adv-x="608" 
d="M556 0h-484v712h484v-156h-309v-119h264v-156h-264v-125h309v-156z" />
    <glyph glyph-name="afii10024" unicode="&#x416;" horiz-adv-x="949" 
d="M949 0h-204l-136 283l-48 -60v-223h-173v223l-48 60l-136 -283h-204l224 419l-211 293h209l166 -262v262h173v-262l166 262h209l-211 -293z" />
    <glyph glyph-name="afii10025" unicode="&#x417;" horiz-adv-x="590" 
d="M541 212c0 -132 -111 -218 -254 -218c-108 0 -200 19 -282 94l112 112c41 -35 107 -50 161 -50c45 0 87 25 87 66c0 45 -37 77 -86 77h-94v142h94c48 0 78 26 78 68c0 39 -41 62 -79 62c-50 0 -101 -9 -138 -42l-110 110c70 63 162 85 257 85c133 0 244 -79 244 -202
c0 -64 -37 -118 -86 -148c56 -28 96 -84 96 -156z" />
    <glyph glyph-name="afii10026" unicode="&#x418;" horiz-adv-x="700" 
d="M628 0h-175v388l-228 -388h-153v712h175v-388l228 388h153v-712z" />
    <glyph glyph-name="afii10027" unicode="&#x419;" horiz-adv-x="700" 
d="M516 903c-6 -98 -60 -157 -164 -157c-105 0 -158 59 -164 157h106c4 -32 23 -47 58 -47s54 15 58 47h106zM628 0h-175v388l-228 -388h-153v712h175v-388l228 388h153v-712z" />
    <glyph glyph-name="afii10028" unicode="&#x41a;" horiz-adv-x="673" 
d="M673 0h-204l-164 292l-60 -69v-223h-173v712h173v-252l206 252h214l-243 -288z" />
    <glyph glyph-name="afii10029" unicode="&#x41b;" horiz-adv-x="680" 
d="M608 0h-175v556h-120l-7 -286c-4 -178 -85 -270 -225 -270h-71v156h21c51 0 97 33 99 110l11 446h467v-712z" />
    <glyph glyph-name="afii10030" unicode="&#x41c;" horiz-adv-x="808" 
d="M736 0h-175v341l-101 -176h-112l-101 176v-341h-175v712h172l160 -314l160 314h172v-712z" />
    <glyph glyph-name="afii10031" unicode="&#x41d;" horiz-adv-x="680" 
d="M608 0h-175v282h-186v-282h-175v712h175v-274h186v274h175v-712z" />
    <glyph glyph-name="afii10032" unicode="&#x41e;" horiz-adv-x="640" 
d="M591 356c0 -103 4 -202 -72 -282c-51 -54 -117 -80 -198 -80c-83 0 -148 26 -200 80c-73 76 -72 173 -72 262v45c0 139 16 199 72 257c51 54 117 80 198 80c82 0 148 -26 200 -80c50 -52 72 -116 72 -219v-63zM416 337v49c0 67 -7 120 -26 145c-16 20 -41 31 -70 31
s-54 -11 -70 -31c-19 -25 -26 -78 -26 -145v-49c0 -91 7 -131 26 -155c16 -20 42 -32 70 -32s54 12 70 32c19 24 26 64 26 155z" />
    <glyph glyph-name="afii10033" unicode="&#x41f;" horiz-adv-x="680" 
d="M608 0h-175v556h-186v-556h-175v712h536v-712z" />
    <glyph glyph-name="afii10034" unicode="&#x420;" horiz-adv-x="627" 
d="M597 483c0 -133 -101 -229 -243 -229h-107v-254h-175v712h282c141 0 243 -96 243 -229zM422 483c0 41 -32 72 -76 72h-99v-144h99c44 0 76 31 76 72z" />
    <glyph glyph-name="afii10035" unicode="&#x421;" horiz-adv-x="547" 
d="M516 73c-36 -34 -53 -46 -84 -59c-32 -13 -70 -20 -111 -20c-81 0 -149 27 -200 80c-33 34 -57 82 -63 123c-4 31 -9 84 -9 159v25c0 139 17 200 72 257c51 53 118 80 199 80c42 0 79 -7 112 -20c31 -13 48 -25 84 -59l-116 -116c-31 31 -48 39 -80 39
c-30 0 -54 -10 -69 -30c-21 -27 -27 -69 -27 -192c0 -92 7 -135 27 -160c16 -20 39 -30 69 -30c32 0 49 8 80 39z" />
    <glyph glyph-name="afii10036" unicode="&#x422;" horiz-adv-x="585" 
d="M555 556h-175v-556h-175v556h-175v156h525v-156z" />
    <glyph glyph-name="afii10037" unicode="&#x423;" horiz-adv-x="601" 
d="M601 712l-250 -587c-27 -63 -79 -125 -170 -125h-97v156h62c54 0 72 41 79 69l-225 487h182l125 -298l113 298h181z" />
    <glyph glyph-name="afii10038" unicode="&#x424;" horiz-adv-x="829" 
d="M502 509v-296c76 9 112 60 112 150c0 96 -36 139 -112 146zM327 509c-76 -7 -112 -50 -112 -146c0 -90 36 -141 112 -150v296zM327 59c-188 9 -287 133 -287 312c0 177 115 283 287 292v55h175v-55c172 -9 287 -115 287 -292c0 -179 -99 -303 -287 -312v-65h-175v65z" />
    <glyph glyph-name="afii10039" unicode="&#x425;" horiz-adv-x="634" 
d="M634 0h-200l-117 219l-117 -219h-200l222 365l-208 347h199l104 -201l104 201h199l-208 -347z" />
    <glyph glyph-name="afii10040" unicode="&#x426;" horiz-adv-x="708" 
d="M689 -144h-168v144h-449v712h175v-556h186v556h175v-556h81v-300z" />
    <glyph glyph-name="afii10041" unicode="&#x427;" horiz-adv-x="651" 
d="M579 0h-175v262c-24 -7 -87 -24 -159 -24c-98 0 -188 80 -188 189v285h175v-254c0 -39 34 -63 74 -63c39 0 80 9 98 16v301h175v-712z" />
    <glyph glyph-name="afii10042" unicode="&#x428;" horiz-adv-x="983" 
d="M911 0h-839v712h175v-556h157v556h175v-556h157v556h175v-712z" />
    <glyph glyph-name="afii10043" unicode="&#x429;" horiz-adv-x="1011" 
d="M992 -144h-168v144h-752v712h175v-556h157v556h175v-556h157v556h175v-556h81v-300z" />
    <glyph glyph-name="afii10044" unicode="&#x42a;" horiz-adv-x="756" 
d="M726 229c0 -133 -97 -229 -238 -229h-287v556h-171v156h346v-254h112c142 0 238 -96 238 -229zM551 229c0 41 -32 72 -76 72h-99v-145h99c44 0 76 32 76 73z" />
    <glyph glyph-name="afii10045" unicode="&#x42b;" horiz-adv-x="910" 
d="M838 0h-175v712h175v-712zM597 229c0 -133 -97 -229 -238 -229h-287v712h175v-254h112c142 0 238 -96 238 -229zM422 229c0 41 -32 72 -76 72h-99v-145h99c44 0 76 32 76 73z" />
    <glyph glyph-name="afii10046" unicode="&#x42c;" horiz-adv-x="627" 
d="M597 229c0 -133 -97 -229 -238 -229h-287v712h175v-254h112c142 0 238 -96 238 -229zM422 229c0 41 -32 72 -76 72h-99v-145h99c44 0 76 32 76 73z" />
    <glyph glyph-name="afii10047" unicode="&#x42d;" horiz-adv-x="547" 
d="M498 316c0 -46 3 -164 -72 -242c-51 -53 -119 -80 -200 -80c-84 0 -135 22 -195 79l112 115c31 -31 52 -38 84 -38c30 0 53 10 69 30c15 19 23 48 26 101h-173v152h172c-3 55 -11 80 -25 99c-15 20 -39 30 -69 30c-32 0 -53 -6 -84 -37l-109 117c59 55 112 76 193 76
s148 -27 199 -80c55 -57 72 -118 72 -257v-65z" />
    <glyph glyph-name="afii10048" unicode="&#x42e;" horiz-adv-x="920" 
d="M871 356c0 -103 4 -202 -72 -282c-51 -54 -117 -80 -198 -80c-83 0 -148 26 -200 80c-59 61 -70 135 -72 208h-82v-282h-175v712h175v-274h83c5 100 24 150 71 200c51 54 117 80 198 80c82 0 148 -26 200 -80c50 -52 72 -116 72 -219v-63zM696 337v49
c0 67 -7 120 -26 145c-16 20 -41 31 -70 31s-54 -11 -70 -31c-19 -25 -26 -78 -26 -145v-49c0 -91 7 -131 26 -155c16 -20 42 -32 70 -32s54 12 70 32c19 24 26 64 26 155z" />
    <glyph glyph-name="afii10049" unicode="&#x42f;" horiz-adv-x="649" 
d="M331 254l-103 -254h-208l137 291c-65 40 -105 109 -105 192c0 133 102 229 243 229h282v-712h-175v254h-71zM402 411v145h-101c-44 0 -76 -32 -76 -73s32 -72 76 -72h101z" />
    <glyph glyph-name="afii10065" unicode="&#x430;" horiz-adv-x="536" 
d="M483 0h-160v44c-23 -22 -34 -30 -53 -38c-18 -7 -40 -11 -65 -11c-108 0 -178 68 -178 172c0 98 70 158 183 158h109v14c0 48 -23 67 -81 67c-39 0 -56 -7 -86 -36l-102 102c33 31 49 42 76 53c31 13 68 19 117 19c160 0 240 -65 240 -195v-349zM319 216h-83
c-31 0 -52 -17 -52 -43c0 -29 22 -45 61 -45c51 0 74 22 74 74v14z" />
    <glyph glyph-name="afii10066" unicode="&#x431;" horiz-adv-x="549" 
d="M506 255c0 -107 -15 -154 -55 -197c-39 -42 -97 -64 -164 -64c-68 0 -128 23 -167 64c-41 44 -58 112 -58 224c0 199 -8 333 102 404c74 48 228 46 289 49v-144c-51 -3 -157 0 -224 -39c-43 -25 -47 -76 -48 -95h3c16 30 61 58 129 58c145 0 193 -112 193 -260zM342 258
c0 95 -22 109 -58 109s-58 -14 -58 -109c0 -101 21 -116 58 -116s58 15 58 116z" />
    <glyph glyph-name="afii10067" unicode="&#x432;" 
d="M446 276c48 -30 67 -64 67 -118c0 -96 -66 -158 -168 -158h-283v538h272c105 0 171 -59 171 -151c0 -48 -17 -81 -59 -111zM223 332h72c31 0 48 16 48 44c0 27 -17 43 -48 43h-72v-87zM223 119h79c30 0 49 18 49 47c0 30 -19 47 -49 47h-79v-94z" />
    <glyph glyph-name="afii10068" unicode="&#x433;" horiz-adv-x="444" 
d="M430 392h-201v-392h-164v538h365v-146z" />
    <glyph glyph-name="afii10069" unicode="&#x434;" horiz-adv-x="604" 
d="M586 -114h-154v114h-265v-114h-154v260h53c32 99 46 179 46 369v23h411v-392h63v-260zM360 146v246h-87c0 -115 -19 -179 -40 -246h127z" />
    <glyph glyph-name="afii10070" unicode="&#x435;" horiz-adv-x="559" 
d="M521 216h-322c3 -54 38 -84 100 -84c21 0 42 4 58 10c17 7 27 14 48 35l98 -98c-39 -37 -58 -51 -91 -64c-33 -14 -71 -21 -118 -21c-171 0 -256 91 -256 275c0 169 93 275 242 275c144 0 241 -102 241 -255v-73zM359 325c-1 53 -31 84 -80 84s-80 -32 -80 -84h160z" />
    <glyph glyph-name="afii10072" unicode="&#x436;" horiz-adv-x="792" 
d="M792 0h-188l-93 183l-33 -45v-138h-164v138l-33 45l-93 -183h-188l173 311l-163 227h187l117 -196v196h164v-196l117 196h187l-163 -227z" />
    <glyph glyph-name="afii10073" unicode="&#x437;" horiz-adv-x="504" 
d="M461 163c0 -102 -96 -169 -207 -169c-84 0 -182 18 -246 76l93 101c32 -27 82 -40 124 -40c39 0 73 13 73 45c0 29 -22 40 -60 40h-83v114h79c37 0 58 18 58 44c0 28 -30 39 -76 39c-33 0 -71 -12 -101 -34l-90 99c61 51 145 66 228 66c103 0 200 -50 200 -146
c0 -49 -29 -91 -67 -114c44 -22 75 -65 75 -121z" />
    <glyph glyph-name="afii10074" unicode="&#x438;" horiz-adv-x="596" 
d="M226 0h-164v538h164v-271l144 271h164v-538h-164v281z" />
    <glyph glyph-name="afii10075" unicode="&#x439;" horiz-adv-x="596" 
d="M462 737c-6 -98 -60 -157 -164 -157c-105 0 -158 59 -164 157h106c4 -32 23 -47 58 -47s54 15 58 47h106zM534 0h-164v281l-144 -281h-164v538h164v-271l144 271h164v-538z" />
    <glyph glyph-name="afii10076" unicode="&#x43a;" horiz-adv-x="573" 
d="M573 0h-203l-112 197l-32 -38v-159h-164v538h164v-193l145 193h197l-198 -223z" />
    <glyph glyph-name="afii10077" unicode="&#x43b;" horiz-adv-x="584" 
d="M522 0h-164v392h-91l-5 -188c-4 -134 -65 -204 -170 -204h-84v146h16c38 0 73 25 75 83l8 309h415v-538z" />
    <glyph glyph-name="afii10078" unicode="&#x43c;" horiz-adv-x="689" 
d="M627 0h-164v268l-76 -143h-85l-76 143v-268h-164v538h162l121 -237l121 237h161v-538z" />
    <glyph glyph-name="afii10079" unicode="&#x43d;" horiz-adv-x="579" 
d="M226 0h-164v538h164v-191h127v191h164v-538h-164v201h-127v-201z" />
    <glyph glyph-name="afii10080" unicode="&#x43e;" horiz-adv-x="550" 
d="M507 270c0 -108 -15 -160 -59 -207c-43 -45 -102 -69 -173 -69s-131 24 -173 69c-45 48 -59 99 -59 212c0 100 16 154 59 200c42 45 102 69 173 69s131 -24 173 -69c44 -47 59 -100 59 -205zM343 272c0 94 -17 124 -68 124s-68 -30 -68 -124c0 -100 16 -130 68 -130
s68 30 68 130z" />
    <glyph glyph-name="afii10081" unicode="&#x43f;" horiz-adv-x="579" 
d="M226 0h-164v538h455v-538h-164v392h-127v-392z" />
    <glyph glyph-name="afii10082" unicode="&#x440;" horiz-adv-x="569" 
d="M221 494c23 22 34 29 54 38c20 8 43 12 69 12c53 0 102 -18 132 -49c34 -35 50 -89 50 -177v-49c0 -58 -3 -104 -8 -138c-5 -32 -21 -67 -42 -88c-30 -31 -78 -49 -131 -49c-27 0 -51 4 -71 13c-18 7 -28 13 -48 32v-213h-164v712h159v-44zM362 272c0 94 -17 124 -69 124
c-28 0 -47 -11 -56 -35c-8 -19 -11 -48 -11 -101c0 -88 18 -118 69 -118s67 31 67 130z" />
    <glyph glyph-name="afii10083" unicode="&#x441;" horiz-adv-x="475" 
d="M457 63c-31 -28 -45 -38 -74 -50c-31 -13 -65 -19 -103 -19c-156 0 -242 99 -242 280c0 171 89 270 242 270c38 0 72 -6 103 -19c29 -12 43 -22 74 -50l-111 -111c-26 24 -41 32 -66 32c-53 0 -78 -41 -78 -127s25 -127 78 -127c25 0 40 7 66 32z" />
    <glyph glyph-name="afii10084" unicode="&#x442;" horiz-adv-x="462" 
d="M452 392h-139v-392h-164v392h-139v146h442v-146z" />
    <glyph glyph-name="afii10085" unicode="&#x443;" horiz-adv-x="514" 
d="M518 538l-223 -602c-30 -81 -80 -116 -163 -116h-62v148h35c32 0 45 10 55 40l15 45l-179 485h172l91 -279l87 279h172z" />
    <glyph glyph-name="afii10086" unicode="&#x444;" horiz-adv-x="746" 
d="M710 274c0 -184 -96 -278 -255 -280v-168h-164v168c-159 2 -255 96 -255 280c0 183 96 268 255 270v168h164v-168c159 -2 255 -87 255 -270zM546 269c0 95 -38 125 -93 127v-254c57 2 93 33 93 127zM293 142v254c-55 -2 -93 -32 -93 -127c0 -94 36 -125 93 -127z" />
    <glyph glyph-name="afii10087" unicode="&#x445;" 
d="M556 0h-197l-82 136l-80 -136h-197l187 275l-180 263h197l73 -130l75 130h197l-180 -263z" />
    <glyph glyph-name="afii10088" unicode="&#x446;" horiz-adv-x="603" 
d="M585 -114h-154v114h-369v538h164v-392h127v392h164v-392h68v-260z" />
    <glyph glyph-name="afii10089" unicode="&#x447;" 
d="M494 0h-164v184c-16 -4 -62 -17 -123 -17c-91 0 -158 67 -158 153v218h164v-176c0 -30 18 -48 49 -48c29 0 57 7 68 11v213h164v-538z" />
    <glyph glyph-name="afii10090" unicode="&#x448;" horiz-adv-x="834" 
d="M62 0v538h164v-392h109v392h164v-392h109v392h164v-538h-710z" />
    <glyph glyph-name="afii10091" unicode="&#x449;" horiz-adv-x="858" 
d="M840 -114h-154v114h-624v538h164v-392h109v392h164v-392h109v392h164v-392h68v-260z" />
    <glyph glyph-name="afii10092" unicode="&#x44a;" horiz-adv-x="637" 
d="M609 177c0 -103 -76 -177 -184 -177h-268v392h-144v146h308v-184h104c109 0 184 -74 184 -177zM447 177c0 29 -22 50 -53 50h-78v-100h78c31 0 53 21 53 50z" />
    <glyph glyph-name="afii10093" unicode="&#x44b;" horiz-adv-x="789" 
d="M514 177c0 -103 -76 -177 -184 -177h-268v538h164v-184h104c109 0 184 -74 184 -177zM352 177c0 29 -22 50 -53 50h-78v-100h78c31 0 53 21 53 50zM563 538h164v-538h-164v538z" />
    <glyph glyph-name="afii10094" unicode="&#x44c;" horiz-adv-x="542" 
d="M514 177c0 -103 -76 -177 -184 -177h-268v538h164v-184h104c109 0 184 -74 184 -177zM352 177c0 29 -22 50 -53 50h-78v-100h78c31 0 53 21 53 50z" />
    <glyph glyph-name="afii10095" unicode="&#x44d;" horiz-adv-x="475" 
d="M437 274c0 -181 -86 -280 -242 -280c-74 0 -123 20 -177 69l108 108c27 -25 43 -33 69 -33c43 0 68 26 78 76h-124v109h124c-10 51 -35 77 -78 77c-26 0 -42 -9 -69 -33l-108 108c54 49 103 69 177 69c153 0 242 -99 242 -270z" />
    <glyph glyph-name="afii10096" unicode="&#x44e;" horiz-adv-x="800" 
d="M757 270c0 -108 -15 -160 -59 -207c-43 -45 -102 -69 -173 -69c-134 0 -218 80 -229 210h-70v-204h-164v538h164v-194h70c15 125 101 200 229 200c71 0 131 -24 173 -69c44 -47 59 -100 59 -205zM593 272c0 94 -17 124 -68 124s-68 -30 -68 -124c0 -100 16 -130 68 -130
s68 30 68 130z" />
    <glyph glyph-name="afii10097" unicode="&#x44f;" 
d="M334 309v99h-80c-31 0 -52 -22 -52 -50s21 -49 52 -49h80zM215 0h-191l106 219c-52 27 -88 78 -88 146c0 100 77 173 184 173h269v-538h-164v180h-42z" />
    <glyph glyph-name="sterling" unicode="&#xa3;" 
d="M536 0h-462v278h-60v126h60v64c0 150 110 250 273 250c39 0 74 -6 104 -18c30 -13 48 -25 85 -60l-115 -114c-29 28 -46 36 -79 36c-59 0 -93 -35 -93 -98v-60h93v-126h-93v-122h287v-156z" />
    <glyph glyph-name="notequal" unicode="&#x2260;" 
d="M507 96h-269l-71 -126l-107 61l36 65h-47v154h133l51 90h-184v154h270l72 128l107 -61l-38 -67h47v-154h-133l-50 -90h183v-154z" />
    <glyph glyph-name="infinity" unicode="&#x221e;" horiz-adv-x="876" 
d="M438 413c54 54 107 88 186 88c124 0 205 -81 205 -206s-81 -206 -205 -206c-79 0 -132 34 -186 88c-54 -54 -107 -88 -186 -88c-125 0 -205 81 -205 206s81 206 205 206c79 0 132 -34 186 -88zM552 290c32 -38 47 -49 70 -49c27 0 47 20 47 49c0 28 -20 49 -47 49
c-23 0 -38 -11 -70 -49zM324 290c-32 38 -47 49 -70 49c-27 0 -47 -20 -47 -49s20 -49 47 -49c23 0 38 11 70 49z" />
    <glyph glyph-name="lessequal" unicode="&#x2264;" 
d="M30 315v150l495 140v-155l-284 -60l284 -69v-156zM30 126h495v-152h-495v152z" />
    <glyph glyph-name="greaterequal" unicode="&#x2265;" 
d="M525 315l-495 -150v156l284 69l-284 60v155l495 -140v-150zM525 -26h-495v152h495v-152z" />
    <glyph glyph-name="radical" unicode="&#x221a;" horiz-adv-x="616" 
d="M586 556h-94l-184 -556h-130l-178 538h177l67 -224l118 398h224v-156z" />
    <glyph glyph-name="florin" unicode="&#x192;" horiz-adv-x="441" 
d="M411 585h-80c-21 0 -35 -12 -39 -33l-26 -148h90v-126h-112l-80 -452h-164l80 452h-49v126h71l28 160c17 95 95 159 195 159h86v-138z" />
    <glyph glyph-name="approxequal" unicode="&#x2248;" 
d="M570 408c-37 -36 -54 -50 -78 -65c-35 -22 -69 -31 -113 -31c-21 0 -41 2 -59 7c-19 5 -31 11 -60 27c-33 19 -55 25 -84 25c-35 0 -54 -9 -88 -41l-104 104c38 37 55 52 80 67c34 21 67 29 109 29c21 0 41 -2 59 -7c19 -5 33 -12 60 -27c34 -19 54 -25 84 -25
c35 0 54 9 88 41zM570 154c-38 -37 -55 -52 -80 -67c-34 -21 -67 -29 -109 -29c-21 0 -41 2 -59 7c-19 5 -31 11 -60 27c-33 19 -55 25 -84 25c-35 0 -54 -9 -88 -41l-106 104c37 36 54 50 78 65c35 22 69 31 113 31c21 0 41 -2 59 -7c19 -5 33 -12 60 -27
c34 -19 54 -25 84 -25c35 0 54 9 88 41z" />
    <glyph glyph-name="Delta" unicode="&#x394;" horiz-adv-x="653" 
d="M653 0h-653l259 712h135zM424 146l-93 296l-99 -296h192z" />
    <glyph glyph-name="divide" unicode="&#xf7;" 
d="M383 520c0 -60 -46 -107 -105 -107c-58 0 -105 47 -105 105s47 105 105 105c57 0 105 -47 105 -103zM513 218h-470v154h470v-154zM383 74c0 -60 -46 -107 -105 -107c-58 0 -105 47 -105 105s47 105 105 105c57 0 105 -47 105 -103z" />
    </font>
</defs>
</svg>
