<?xml version="1.0" standalone="no"?>
<!DOCTYPE svg PUBLIC "-//W3C//DTD SVG 20010904//EN"
 "http://www.w3.org/TR/2001/REC-SVG-20010904/DTD/svg10.dtd">
<svg version="1.0" xmlns="http://www.w3.org/2000/svg"
 width="80.000000pt" height="80.000000pt" viewBox="0 0 80.000000 80.000000"
 preserveAspectRatio="xMidYMid meet">
<metadata>
Created by potrace 1.11, written by Peter Selinger 2001-2013
</metadata>
<g transform="translate(0.000000,80.000000) scale(0.100000,-0.100000)"
fill="#000000" stroke="none">
<path d="M204 781 c-43 -26 -77 -73 -121 -167 -41 -90 -52 -180 -28 -248 23
-65 34 -62 18 5 -16 69 -12 136 11 190 27 63 127 175 180 201 29 13 43 24 33
26 -26 5 -93 -35 -133 -80 -35 -41 -36 -41 -17 -8 12 19 40 50 63 68 46 35 43
43 -6 13z"/>
<path d="M84 737 c-72 -56 -79 -71 -81 -176 -2 -93 5 -117 14 -44 10 84 66
213 101 232 9 5 15 12 12 15 -3 2 -24 -9 -46 -27z"/>
<path d="M350 763 c-42 -16 -75 -52 -109 -122 -21 -42 -48 -93 -59 -114 -61
-114 -22 -262 102 -380 70 -67 111 -85 209 -92 129 -8 184 20 238 124 34 66
36 128 7 193 -48 104 -170 192 -263 190 -38 0 -125 -34 -125 -48 0 -3 5 -2 12
2 7 5 8 3 4 -5 -5 -7 -15 -10 -23 -7 -8 3 -11 2 -8 -3 3 -5 1 -12 -5 -16 -15
-10 -40 -74 -40 -104 0 -14 9 -44 19 -66 51 -112 166 -165 254 -118 18 9 36
17 42 18 14 0 35 46 35 78 0 33 -24 94 -48 121 -24 26 -103 76 -121 76 -9 0 0
-10 19 -21 82 -49 131 -119 129 -186 0 -28 -2 -33 -8 -19 -7 19 -8 19 -13 -2
-6 -20 -62 -62 -83 -62 -5 0 8 11 30 23 22 12 41 30 43 39 6 31 -65 162 -100
184 -38 24 -93 40 -83 24 3 -5 -2 -10 -14 -10 -24 0 -61 -45 -61 -75 0 -31 24
-85 52 -115 28 -31 79 -38 99 -13 13 15 12 15 -8 5 -31 -17 -39 -15 -69 16
-55 57 -63 116 -19 152 14 12 21 11 50 -5 35 -18 79 -90 68 -108 -3 -6 -1 -7
5 -3 13 8 6 53 -14 83 -17 26 -18 33 -4 33 12 0 40 -53 46 -87 3 -14 -3 -45
-12 -69 -12 -32 -23 -44 -43 -49 -61 -13 -109 17 -146 89 -29 58 -30 74 -11
121 32 75 129 96 224 49 89 -44 142 -128 144 -228 2 -125 -165 -218 -293 -163
-44 19 -131 97 -158 141 -31 50 -64 164 -57 200 10 52 62 149 97 183 37 34
140 74 201 76 24 1 34 5 27 12 -17 17 -121 10 -171 -13 -27 -11 -48 -17 -48
-12 0 14 60 60 87 66 18 5 21 9 11 15 -15 10 -17 10 -38 2z m215 -242 c49 -26
81 -53 125 -110 31 -40 35 -51 37 -115 l2 -71 -9 68 c-7 57 -15 77 -48 121
-55 72 -127 118 -189 119 -27 0 -61 -2 -78 -6 l-30 -6 30 14 c40 18 111 12
160 -14z m-99 -76 c10 -8 15 -14 9 -14 -5 0 -19 6 -29 14 -11 8 -15 15 -10 15
6 0 19 -7 30 -15z m99 -184 c-3 -10 -14 -21 -24 -24 -17 -4 -18 -2 -3 35 12
31 17 36 24 23 5 -8 7 -24 3 -34z m136 -83 c-41 -64 -103 -119 -118 -105 -3 4
5 11 19 16 27 10 84 71 100 107 6 13 13 22 16 20 2 -3 -5 -20 -17 -38z"/>
<path d="M163 622 c-60 -88 -79 -171 -59 -256 13 -54 44 -121 52 -113 3 3 -3
20 -13 39 -13 24 -18 55 -18 118 0 79 3 91 42 173 23 48 39 87 35 87 -4 0 -21
-22 -39 -48z"/>
<path d="M451 659 c-120 -23 -199 -102 -236 -237 -4 -12 3 -55 16 -97 18 -61
31 -84 72 -126 84 -87 175 -111 258 -69 45 24 99 76 99 97 0 8 -11 1 -26 -17
-58 -68 -175 -95 -239 -55 -94 59 -148 145 -149 240 0 46 5 69 23 98 26 43 92
91 153 113 49 17 171 20 211 5 15 -6 27 -8 27 -6 0 11 -58 28 -120 35 l-65 7
55 2 c41 2 50 5 35 11 -25 11 -57 10 -114 -1z m19 -19 c0 -5 -10 -10 -22 -9
-22 0 -22 1 -3 9 11 5 21 9 23 9 1 1 2 -3 2 -9z m-53 -16 c-3 -3 -12 -4 -19
-1 -8 3 -5 6 6 6 11 1 17 -2 13 -5z m-52 -16 c-11 -6 -27 -16 -35 -22 -9 -6
-5 -1 8 12 13 12 28 22 35 22 7 0 3 -6 -8 -12z"/>
<path d="M490 589 c102 -18 210 -85 248 -154 6 -11 12 -14 12 -7 0 14 -29 63
-45 74 -6 5 -6 8 2 8 19 0 63 -83 69 -131 3 -24 6 -55 8 -69 2 -14 0 -47 -4
-73 -5 -35 -4 -45 4 -37 15 15 14 184 -2 237 -15 51 -51 89 -123 127 -46 25
-67 30 -139 32 -82 3 -83 3 -30 -7z"/>
<path d="M410 378 c0 -13 7 -32 15 -42 25 -33 16 -43 -10 -13 -14 15 -25 38
-25 50 0 17 -2 19 -9 8 -12 -19 5 -63 34 -91 57 -54 91 34 35 90 -26 26 -40
25 -40 -2z m51 -35 c6 -16 5 -30 -2 -41 -8 -13 -10 -14 -6 -1 3 8 -1 26 -9 40
-7 13 -13 28 -14 32 0 16 21 -5 31 -30z"/>
<path d="M406 29 c2 -3 24 -12 48 -19 38 -10 51 -10 83 3 l38 15 -35 6 c-42 7
-140 4 -134 -5z"/>
</g>
</svg>
