<?xml version="1.0" standalone="no"?>
<!DOCTYPE svg PUBLIC "-//W3C//DTD SVG 1.1//EN" "http://www.w3.org/Graphics/SVG/1.1/DTD/svg11.dtd" >
<svg xmlns="http://www.w3.org/2000/svg" xmlns:xlink="http://www.w3.org/1999/xlink" version="1.1">
<metadata>
Created by FontForge 20190801 at Fri Dec  9 04:53:17 2011
 By Jimmy Wärting
Copyright 1999, 2001 Double Alex Font Studio.
</metadata>
<defs>
<font id="Plumb-Light" horiz-adv-x="514" >
  <font-face 
    font-family="Plumb"
    font-weight="300"
    font-stretch="normal"
    units-per-em="1000"
    panose-1="0 0 0 0 0 0 0 0 0 0"
    ascent="800"
    descent="-200"
    x-height="482"
    cap-height="712"
    bbox="-18 -236 1099 927"
    underline-thickness="50"
    underline-position="-125"
    stemh="43"
    stemv="51"
    unicode-range="U+0020-2265"
  />
<missing-glyph horiz-adv-x="1000" 
 />
    <glyph glyph-name=".notdef" horiz-adv-x="1000" 
 />
    <glyph glyph-name="space" unicode=" " horiz-adv-x="255" 
 />
    <glyph glyph-name="exclam" unicode="!" horiz-adv-x="304" 
d="M195 712l-6 -520h-44l-6 520h56zM207 38c0 -23 -18 -41 -40 -41s-40 18 -40 40s18 40 40 40s40 -18 40 -39z" />
    <glyph glyph-name="quotedbl" unicode="&#x22;" horiz-adv-x="408" 
d="M313 556h-63v156h63v-156zM158 556h-63v156h63v-156z" />
    <glyph glyph-name="numbersign" unicode="#" horiz-adv-x="639" 
d="M588 437h-100l-25 -153h96v-44h-103l-38 -240h-51l39 240h-176l-37 -240h-51l38 240h-96v44h103l25 153h-99v45h105l36 230h52l-37 -230h175l36 230h50l-36 -230h94v-45zM437 437h-175l-25 -153h175z" />
    <glyph glyph-name="dollar" unicode="$" horiz-adv-x="587" 
d="M528 190c0 -50 -17 -94 -48 -127c-17 -18 -38 -33 -62 -44c-31 -15 -54 -19 -108 -24v-109h-45v108c-58 4 -82 10 -117 25c-36 16 -55 29 -97 69l38 38c38 -36 55 -49 85 -63c28 -12 46 -16 91 -20v295l-16 2c-102 13 -183 73 -183 183c0 52 17 97 48 130
c42 44 92 58 151 64v89h45v-89c46 -4 65 -8 94 -20c32 -13 49 -24 88 -56l-35 -35c-32 27 -46 37 -72 48c-22 9 -38 13 -75 17v-290l29 -5c67 -12 98 -23 127 -47c40 -33 62 -82 62 -139zM265 388v283c-35 -4 -50 -8 -70 -18c-50 -24 -76 -69 -76 -128
c0 -78 46 -122 146 -137zM474 190c0 42 -13 76 -39 99c-24 22 -50 31 -107 38c-8 1 -10 2 -18 3v-287c48 5 93 13 129 51c23 25 35 57 35 96z" />
    <glyph glyph-name="percent" unicode="%" horiz-adv-x="828" 
d="M759 127c0 -79 -54 -134 -131 -134c-78 0 -132 55 -132 134v107c0 79 54 134 132 134c77 0 131 -55 131 -134v-107zM603 712l-332 -712h-45l332 712h45zM332 478c0 -78 -54 -133 -131 -133c-78 0 -132 55 -132 133v107c0 79 54 134 132 134c77 0 131 -55 131 -134v-107z
M715 129v103c0 65 -30 98 -88 98c-57 0 -87 -34 -87 -98v-103c0 -65 30 -98 88 -98c57 0 87 33 87 98zM288 480v103c0 65 -30 98 -88 98c-57 0 -87 -34 -87 -98v-103c0 -64 30 -97 88 -97c57 0 87 33 87 97z" />
    <glyph glyph-name="ampersand" unicode="&#x26;" horiz-adv-x="746" 
d="M662 0h-69l-69 84c-27 -25 -39 -34 -62 -48c-48 -28 -101 -42 -157 -42c-131 0 -221 82 -221 203c0 45 14 87 39 119c29 36 49 52 124 102c-31 37 -41 50 -55 75c-16 27 -24 56 -24 84c0 79 64 141 145 141s145 -63 145 -142c0 -51 -24 -88 -82 -129
c-17 -12 -36 -24 -53 -36l204 -247c18 28 24 41 30 63c9 29 11 53 12 114h53c-1 -52 -3 -75 -10 -106c-11 -47 -24 -71 -52 -111zM405 576c0 53 -40 94 -92 94s-91 -39 -91 -92c0 -19 5 -37 15 -55c12 -21 22 -35 55 -76l41 28c53 36 72 63 72 101zM494 121l-216 261
c-61 -41 -75 -52 -101 -80c-25 -27 -39 -64 -39 -104c0 -93 68 -156 169 -156c30 0 59 5 86 15c35 13 56 27 101 64z" />
    <glyph glyph-name="quotesingle" unicode="'" horiz-adv-x="253" 
d="M158 556h-63v156h63v-156z" />
    <glyph glyph-name="parenleft" unicode="(" horiz-adv-x="284" 
d="M217 -59l-35 -35c-30 30 -40 40 -50 54c-25 34 -35 67 -35 119v554c0 40 5 66 19 93c17 33 40 54 66 80l35 -35c-20 -20 -42 -40 -54 -65c-10 -21 -15 -48 -15 -79v-542c0 -32 5 -59 15 -79c12 -25 34 -45 54 -65z" />
    <glyph glyph-name="parenright" unicode=")" horiz-adv-x="284" 
d="M187 79c0 -43 -5 -65 -19 -93c-16 -32 -41 -55 -66 -80l-37 37c20 20 42 39 54 65c9 20 14 45 14 77v542c0 32 -5 58 -14 77c-12 26 -34 45 -54 65l37 37c31 -31 40 -41 50 -54c26 -35 35 -66 35 -119v-554z" />
    <glyph glyph-name="asterisk" unicode="*" horiz-adv-x="467" 
d="M395 476l-22 -38l-120 73l3 -141h-45l3 141l-120 -73l-22 38l123 68l-123 68l22 38l120 -73l-3 141h45l-3 -141l120 73l22 -38l-123 -68z" />
    <glyph glyph-name="plus" unicode="+" 
d="M461 240h-180v-181h-47v181h-181v47h181v180h47v-180h180v-47z" />
    <glyph glyph-name="comma" unicode="," horiz-adv-x="258" 
d="M175 89l-80 -203h-49l55 203h74z" />
    <glyph glyph-name="hyphenminus" horiz-adv-x="426" 
d="M344 240h-262v47h262v-47z" />
    <glyph glyph-name="period" unicode="." horiz-adv-x="258" 
d="M175 44c0 -26 -21 -47 -46 -47s-46 21 -46 46s21 46 46 46s46 -21 46 -45z" />
    <glyph glyph-name="slash" unicode="/" horiz-adv-x="338" 
d="M338 786l-285 -860h-53l285 860h53z" />
    <glyph glyph-name="zero" unicode="0" 
d="M444 184c0 -111 -77 -190 -187 -190s-187 79 -187 190v344c0 111 77 190 187 190c109 0 187 -79 187 -190v-344zM393 189v334c0 91 -53 150 -136 150s-136 -59 -136 -150v-334c0 -91 53 -150 136 -150s136 59 136 150z" />
    <glyph glyph-name="one" unicode="1" 
d="M313 0h-51v654l-129 -114v61l129 111h51v-712z" />
    <glyph glyph-name="two" unicode="2" 
d="M449 0h-377v45l286 375c28 37 40 70 40 111c0 87 -53 142 -137 142c-41 0 -76 -13 -100 -37c-10 -10 -19 -23 -25 -38c-8 -19 -11 -33 -12 -67h-51c2 40 5 56 15 80c29 68 91 107 173 107c114 0 188 -74 188 -188c0 -52 -14 -90 -49 -136l-267 -349h316v-45z" />
    <glyph glyph-name="three" unicode="3" 
d="M447 192c0 -122 -79 -199 -204 -199c-79 0 -147 28 -182 101c-11 23 -15 39 -19 79h51c3 -30 7 -42 15 -59c24 -48 73 -76 136 -76c92 0 152 61 152 156c0 97 -53 148 -155 148h-12v45h12c91 0 141 49 141 141c0 90 -54 146 -139 146c-81 0 -127 -43 -141 -130h-51
c5 38 9 54 21 76c32 63 94 99 172 99c113 0 189 -76 189 -190c0 -52 -15 -93 -45 -124c-15 -15 -26 -23 -56 -37c33 -13 46 -20 63 -36c35 -32 52 -80 52 -140z" />
    <glyph glyph-name="four" unicode="4" 
d="M471 117h-95v-117h-51v117h-282v45l262 550h54l-262 -550h228v226h51v-226h95v-45z" />
    <glyph glyph-name="five" unicode="5" 
d="M451 229c0 -94 -15 -145 -55 -185c-34 -34 -80 -51 -138 -51c-111 0 -172 54 -184 164h51c5 -30 9 -43 17 -59c22 -40 60 -60 114 -60c42 0 77 13 101 36c31 31 43 74 43 158c0 133 -41 191 -135 191c-65 0 -108 -25 -127 -75h-45v364h342v-45h-297v-252
c20 21 29 28 49 36c25 11 53 17 85 17c122 0 179 -76 179 -239z" />
    <glyph glyph-name="six" unicode="6" 
d="M448 201c0 -124 -76 -207 -189 -207c-114 0 -188 79 -188 199c0 49 12 93 40 150l183 369h51l-164 -329c28 12 51 17 82 17c111 0 185 -80 185 -199zM397 194c0 98 -54 161 -138 161s-137 -62 -137 -158s54 -158 137 -158c82 0 138 63 138 155z" />
    <glyph glyph-name="seven" unicode="7" 
d="M459 667l-252 -667h-52l252 667h-270v-112h-51v157h373v-45z" />
    <glyph glyph-name="eight" unicode="8" 
d="M460 192c0 -113 -87 -198 -203 -198s-203 85 -203 198c0 49 16 91 47 127c18 20 31 31 66 51c-30 18 -42 27 -56 43c-29 33 -42 72 -42 118c0 108 79 187 188 187s188 -79 188 -187c0 -46 -14 -85 -42 -118c-14 -16 -25 -25 -55 -43c35 -21 48 -31 65 -51
c31 -35 47 -78 47 -127zM394 529c0 86 -56 144 -137 144c-80 0 -137 -58 -137 -141s56 -141 137 -141c79 0 137 58 137 138zM409 189c0 90 -65 157 -152 157c-86 0 -152 -67 -152 -154s66 -153 152 -153c85 0 152 67 152 150z" />
    <glyph glyph-name="nine" unicode="9" 
d="M443 518c0 -47 -12 -93 -40 -149l-183 -369h-51l164 329c-28 -12 -52 -17 -83 -17c-111 0 -184 79 -184 199c0 124 76 207 189 207s188 -79 188 -200zM392 512c0 99 -53 161 -138 161c-83 0 -137 -62 -137 -157c0 -96 54 -159 137 -159s138 62 138 155z" />
    <glyph glyph-name="colon" unicode=":" horiz-adv-x="258" 
d="M175 404c0 -26 -21 -47 -46 -47s-46 21 -46 46s21 46 46 46s46 -21 46 -45zM175 44c0 -26 -21 -47 -46 -47s-46 21 -46 46s21 46 46 46s46 -21 46 -45z" />
    <glyph glyph-name="semicolon" unicode=";" horiz-adv-x="258" 
d="M175 404c0 -26 -21 -47 -46 -47s-46 21 -46 46s21 46 46 46s46 -21 46 -45zM175 89l-80 -203h-49l55 203h74z" />
    <glyph glyph-name="less" unicode="&#x3c;" 
d="M473 65l-432 173v54l432 174v-54l-370 -147l370 -146v-54z" />
    <glyph glyph-name="equal" unicode="=" 
d="M461 316h-408v47h408v-47zM461 163h-408v47h408v-47z" />
    <glyph glyph-name="greater" unicode="&#x3e;" 
d="M473 238l-432 -173v54l370 146l-370 147v54l432 -174v-54z" />
    <glyph glyph-name="question" unicode="?" horiz-adv-x="488" 
d="M438 543c0 -41 -12 -72 -44 -120l-85 -125c-11 -16 -18 -40 -18 -60v-47h-51v45c0 36 7 57 29 90l84 124c26 38 34 61 34 92c0 75 -55 131 -129 131s-123 -50 -127 -131h-51c6 108 76 176 179 176c101 0 179 -76 179 -175zM305 38c0 -23 -18 -41 -40 -41s-40 18 -40 40
s18 40 40 40s40 -18 40 -39z" />
    <glyph glyph-name="at" unicode="@" horiz-adv-x="697" 
d="M620 0h-51v59c-22 -28 -33 -37 -55 -48c-23 -12 -51 -18 -82 -18c-60 0 -109 23 -141 65c-31 41 -43 92 -43 183c0 89 12 143 39 181c31 43 82 67 143 67c30 0 57 -6 80 -17c23 -12 35 -22 59 -51v89c0 104 -55 161 -155 161h-132c-49 0 -84 -13 -113 -42
c-31 -31 -41 -60 -41 -119v-353c0 -69 11 -91 62 -129l-35 -35c-35 26 -48 38 -61 62c-12 22 -17 53 -17 102v350c0 125 77 205 196 205h150c119 0 197 -81 197 -205v-507zM569 240c0 143 -40 204 -135 204s-135 -60 -135 -203s40 -203 135 -203c94 0 135 61 135 202z" />
    <glyph glyph-name="A" unicode="A" horiz-adv-x="600" 
d="M586 0h-58l-62 173h-332l-62 -173h-58l262 712h48zM449 221l-149 419l-149 -419h298z" />
    <glyph glyph-name="B" unicode="B" horiz-adv-x="671" 
d="M589 192c0 -120 -78 -192 -209 -192h-270v712h262c123 0 206 -74 206 -184c0 -52 -19 -96 -54 -129c-16 -14 -27 -21 -57 -33c35 -14 48 -22 66 -38c37 -34 56 -80 56 -136zM524 526c0 87 -59 138 -158 138h-202v-276h202c100 0 158 51 158 138zM535 194
c0 89 -62 146 -161 146h-210v-292h210c99 0 161 56 161 146z" />
    <glyph glyph-name="C" unicode="C" horiz-adv-x="596" 
d="M527 83c-62 -56 -113 -89 -199 -89c-69 0 -132 27 -180 73c-61 58 -66 127 -66 289c0 142 -4 219 66 289c47 47 111 73 179 73c84 0 141 -35 200 -89l-36 -36c-50 48 -92 77 -163 77c-83 0 -169 -56 -183 -143c-5 -29 -9 -54 -9 -171v-30c0 -138 11 -185 55 -229
c36 -36 83 -55 137 -55c71 0 113 29 163 77z" />
    <glyph glyph-name="D" unicode="D" horiz-adv-x="678" 
d="M596 371c0 -97 4 -231 -69 -306c-41 -42 -104 -65 -178 -65h-239v712h239c73 0 136 -23 178 -65c72 -72 69 -182 69 -276zM542 314v52c0 62 -3 111 -8 147s-23 72 -45 96c-35 36 -86 55 -153 55h-172v-616h172c66 0 119 19 153 55c36 39 53 105 53 211z" />
    <glyph glyph-name="E" unicode="E" horiz-adv-x="598" 
d="M542 0h-432v712h432v-48h-378v-281h322v-48h-322v-287h378v-48z" />
    <glyph glyph-name="F" unicode="F" horiz-adv-x="576" 
d="M542 664h-378v-293h322v-48h-322v-323h-54v712h432v-48z" />
    <glyph glyph-name="G" unicode="G" horiz-adv-x="648" 
d="M571 248c0 -77 -17 -128 -58 -172c-49 -53 -115 -82 -187 -82c-67 0 -131 26 -178 73c-30 30 -53 72 -57 106c-3 24 -9 85 -9 183v37c0 148 13 199 66 252c48 48 111 73 180 73c36 0 69 -6 99 -19c38 -16 61 -32 111 -80l-36 -36c-34 33 -49 46 -69 58
c-31 20 -65 29 -104 29c-54 0 -102 -19 -138 -55c-24 -24 -42 -58 -46 -88c-4 -29 -9 -86 -9 -171v-30c0 -138 11 -185 55 -229c35 -36 83 -55 134 -55c59 0 113 25 149 69c30 37 43 79 43 141v64h-191v48h245v-116z" />
    <glyph glyph-name="H" unicode="H" horiz-adv-x="699" 
d="M589 0h-54v335h-371v-335h-54v712h54v-329h371v329h54v-712z" />
    <glyph glyph-name="I" unicode="I" horiz-adv-x="274" 
d="M164 0h-54v712h54v-712z" />
    <glyph glyph-name="J" unicode="J" horiz-adv-x="498" 
d="M398 210c0 -131 -84 -216 -213 -216c-32 0 -62 6 -89 17c-25 10 -38 19 -66 44l37 37c38 -38 68 -50 118 -50c102 0 159 64 159 179v491h54v-502z" />
    <glyph glyph-name="K" unicode="K" horiz-adv-x="645" 
d="M627 0h-64l-229 399l-170 -206v-193h-54v712h54v-445l361 445h65l-220 -272z" />
    <glyph glyph-name="L" unicode="L" horiz-adv-x="572" 
d="M542 0h-432v712h54v-664h378v-48z" />
    <glyph glyph-name="M" unicode="M" horiz-adv-x="818" 
d="M708 0h-54v587l-216 -487h-54l-220 487v-587h-54v712h54l248 -549l242 549h54v-712z" />
    <glyph glyph-name="N" unicode="N" horiz-adv-x="739" 
d="M629 0h-54l-411 619v-619h-54v712h54l411 -617v617h54v-712z" />
    <glyph glyph-name="O" unicode="O" horiz-adv-x="652" 
d="M570 356c0 -172 -7 -230 -66 -289c-47 -47 -111 -73 -178 -73s-131 26 -178 73c-62 62 -66 131 -66 289c0 131 -5 218 66 289c47 47 111 73 178 73s131 -26 178 -73c74 -74 66 -180 66 -289zM516 346v27c0 152 -10 197 -55 242c-35 35 -84 55 -135 55
c-52 0 -100 -20 -135 -55c-50 -50 -55 -114 -55 -259v-31c0 -136 11 -184 55 -228c35 -35 83 -55 135 -55s100 20 135 55c56 56 55 133 55 249z" />
    <glyph glyph-name="P" unicode="P" horiz-adv-x="631" 
d="M586 507c0 -124 -85 -205 -215 -205h-207v-302h-54v712h261c130 0 215 -81 215 -205zM532 507c0 100 -61 157 -167 157h-201v-314h201c106 0 167 57 167 157z" />
    <glyph glyph-name="Q" unicode="Q" horiz-adv-x="651" 
d="M603 0l-36 -36l-84 84c-31 -22 -44 -30 -71 -39c-28 -10 -57 -15 -86 -15c-67 0 -131 26 -178 73c-30 30 -53 72 -57 106c-3 24 -6 85 -9 183c0 12 -1 25 -1 37c0 148 14 199 67 252c47 47 111 73 178 73s131 -26 178 -73c30 -30 52 -72 57 -106c3 -26 6 -87 9 -183
c0 -12 1 -24 1 -36c0 -94 -6 -143 -20 -181c-7 -20 -13 -31 -32 -55zM516 356c2 170 -9 213 -55 259c-35 35 -84 55 -135 55c-52 0 -100 -20 -135 -55c-24 -24 -42 -58 -46 -88c-4 -28 -9 -86 -9 -171v-31c0 -136 11 -184 55 -228c36 -36 83 -55 135 -55c22 0 43 4 65 11
c21 7 32 13 56 31l-100 100l36 36l99 -99c11 18 15 26 20 42c8 30 12 70 13 123z" />
    <glyph glyph-name="R" unicode="R" horiz-adv-x="657" 
d="M593 0h-63l-170 328h-196v-328h-54v712h271c124 0 204 -75 204 -191c0 -51 -15 -95 -43 -128c-33 -39 -72 -53 -121 -64zM531 520c0 91 -58 144 -157 144h-210v-288h210c99 0 157 53 157 144z" />
    <glyph glyph-name="S" unicode="S" horiz-adv-x="587" 
d="M528 190c0 -122 -93 -196 -248 -196c-46 0 -91 8 -128 23c-37 16 -58 30 -101 71l38 38c41 -39 60 -53 93 -66c30 -12 63 -18 104 -18c119 0 188 54 188 148c0 42 -13 76 -39 99c-23 21 -45 29 -103 38l-83 13c-120 19 -183 82 -183 183c0 121 85 195 226 195
c37 0 74 -5 105 -17c33 -12 53 -25 95 -60l-35 -35c-35 30 -51 40 -79 51c-26 10 -58 15 -91 15c-105 0 -168 -55 -168 -147c0 -41 13 -73 37 -93c27 -22 65 -38 106 -44l77 -12c66 -10 97 -22 127 -47c41 -34 62 -82 62 -139z" />
    <glyph glyph-name="T" unicode="T" horiz-adv-x="539" 
d="M509 664h-213v-664h-54v664h-212v48h479v-48z" />
    <glyph glyph-name="U" unicode="U" horiz-adv-x="688" 
d="M588 231c0 -139 -101 -237 -244 -237s-244 98 -244 237v481h54v-474c0 -118 76 -196 190 -196s190 78 190 196v474h54v-481z" />
    <glyph glyph-name="V" unicode="V" horiz-adv-x="534" 
d="M524 712l-234 -712h-46l-234 712h57l200 -617l200 617h57z" />
    <glyph glyph-name="W" unicode="W" horiz-adv-x="842" 
d="M822 712l-178 -712h-55l-168 620l-168 -620h-55l-178 712h57l150 -619l166 619h56l166 -619l150 619h57z" />
    <glyph glyph-name="X" unicode="X" horiz-adv-x="532" 
d="M514 0h-63l-186 317l-186 -317h-61l218 365l-204 347h63l170 -299l171 299h62l-204 -347z" />
    <glyph glyph-name="Y" unicode="Y" horiz-adv-x="494" 
d="M484 712l-210 -417v-295h-54v295l-210 417h58l181 -360l177 360h58z" />
    <glyph glyph-name="Z" unicode="Z" horiz-adv-x="559" 
d="M496 0h-433v57l375 607h-360v48h418v-48l-378 -616h378v-48z" />
    <glyph glyph-name="bracketleft" unicode="[" horiz-adv-x="290" 
d="M245 -74h-148v860h148v-45h-97v-770h97v-45z" />
    <glyph glyph-name="backslash" unicode="\" horiz-adv-x="338" 
d="M338 -74h-53l-285 860h53z" />
    <glyph glyph-name="bracketright" unicode="]" horiz-adv-x="290" 
d="M193 -74h-148v42h100v776h-100v42h148v-860z" />
    <glyph glyph-name="asciicircum" unicode="^" 
d="M438 422h-51l-130 242l-130 -242h-51l158 296h46z" />
    <glyph glyph-name="underscore" unicode="_" horiz-adv-x="600" 
d="M600 -160h-600v38h600v-38z" />
    <glyph glyph-name="grave" unicode="`" horiz-adv-x="500" 
d="M297 590h-58l-106 147h67z" />
    <glyph glyph-name="a" unicode="a" horiz-adv-x="524" 
d="M431 0h-51v48c-25 -23 -37 -32 -57 -40c-24 -10 -52 -14 -92 -14c-116 0 -175 47 -175 139c0 86 63 138 168 138h156v54c0 82 -43 118 -140 118c-33 0 -60 -5 -82 -16c-18 -10 -28 -19 -47 -45l-37 32c24 30 37 41 60 53c28 14 62 21 108 21c125 0 189 -53 189 -158v-330
zM380 168v62h-150c-82 0 -123 -32 -123 -97c0 -66 40 -94 131 -94c101 0 142 38 142 129z" />
    <glyph glyph-name="b" unicode="b" horiz-adv-x="540" 
d="M471 240c0 -164 -61 -246 -183 -246c-32 0 -58 5 -82 17c-21 10 -34 22 -58 51v-62h-51v712h51v-292c24 29 36 40 58 51c23 11 50 17 81 17c124 0 184 -81 184 -248zM420 240c0 141 -41 203 -136 203c-94 0 -136 -62 -136 -202s41 -202 136 -202c94 0 136 62 136 201z
" />
    <glyph glyph-name="c" unicode="c" horiz-adv-x="493" 
d="M440 68c-48 -51 -84 -74 -156 -74c-134 0 -215 93 -215 247s81 247 215 247c72 0 107 -23 156 -74l-35 -32c-36 39 -67 61 -122 61c-56 0 -101 -22 -130 -64c-24 -34 -33 -73 -33 -139c0 -64 9 -104 33 -137c30 -43 73 -64 129 -64s86 21 123 61z" />
    <glyph glyph-name="d" unicode="d" horiz-adv-x="540" 
d="M443 0h-51v62c-24 -29 -37 -40 -58 -51c-23 -11 -50 -17 -82 -17c-123 0 -183 81 -183 247c0 165 60 247 183 247c32 0 58 -5 82 -17c21 -11 34 -22 58 -51v292h51v-712zM392 240c0 141 -41 203 -136 203c-94 0 -136 -62 -136 -202s41 -202 136 -202c94 0 136 62 136 201
z" />
    <glyph glyph-name="e" unicode="e" horiz-adv-x="523" 
d="M455 230h-335c2 -52 5 -74 17 -102c24 -59 72 -88 141 -88c26 0 48 4 68 12c22 9 35 19 64 46l38 -30c-35 -34 -52 -46 -81 -58c-26 -11 -56 -16 -91 -16c-136 0 -207 85 -207 250c0 152 73 244 193 244s193 -89 193 -235v-23zM404 271c-2 38 -3 50 -9 69
c-19 65 -69 103 -133 103c-56 0 -103 -31 -125 -81c-11 -25 -15 -46 -17 -91h284z" />
    <glyph glyph-name="f" unicode="f" horiz-adv-x="304" 
d="M272 444h-109v-444h-51v444h-66v38h66v104c0 78 44 126 116 126h44v-45h-35c-49 0 -74 -27 -74 -80v-105h109v-38z" />
    <glyph glyph-name="g" unicode="g" horiz-adv-x="540" 
d="M443 -27c0 -128 -77 -209 -201 -209c-28 0 -55 4 -76 12c-26 10 -43 21 -79 52l34 34c30 -27 43 -35 63 -43c17 -7 37 -10 60 -10c94 0 148 61 148 167v86c-24 -29 -37 -40 -58 -51c-23 -11 -50 -17 -82 -17c-123 0 -183 81 -183 247c0 165 60 247 183 247
c32 0 58 -5 82 -17c21 -11 34 -22 58 -51v62h51v-509zM392 240c0 141 -41 203 -136 203c-94 0 -136 -62 -136 -202s41 -202 136 -202c94 0 136 62 136 201z" />
    <glyph glyph-name="h" unicode="h" horiz-adv-x="559" 
d="M468 0h-51v299c0 93 -47 144 -133 144s-136 -53 -136 -144v-299h-51v712h51v-287c25 26 37 35 60 46c25 12 52 17 83 17c109 0 177 -69 177 -180v-308z" />
    <glyph glyph-name="i" unicode="i" horiz-adv-x="245" 
d="M160 682c0 -22 -17 -39 -37 -39c-21 0 -38 17 -38 37c0 21 17 38 37 38s38 -17 38 -36zM148 0h-51v482h51v-482z" />
    <glyph glyph-name="j" unicode="j" horiz-adv-x="245" 
d="M160 682c0 -22 -17 -39 -37 -39c-21 0 -38 17 -38 37c0 21 17 38 37 38s38 -17 38 -36zM148 -105c0 -79 -42 -125 -116 -125h-44v45h35c53 0 74 23 74 81v586h51v-587z" />
    <glyph glyph-name="k" unicode="k" horiz-adv-x="527" 
d="M487 0h-63l-166 265l-110 -127v-138h-51v712h51v-502l239 272h65l-159 -180z" />
    <glyph glyph-name="l" unicode="l" horiz-adv-x="245" 
d="M148 0h-51v712h51v-712z" />
    <glyph glyph-name="m" unicode="m" horiz-adv-x="878" 
d="M788 0h-51v299c0 93 -47 144 -132 144c-84 0 -137 -52 -137 -135v-308h-51v299c0 93 -47 144 -133 144s-136 -53 -136 -144v-299h-51v482h51v-57c25 26 36 35 61 46s52 17 82 17c48 0 90 -14 120 -42c14 -13 21 -22 35 -46c18 26 27 36 43 48c34 27 74 40 121 40
c109 0 178 -69 178 -180v-308z" />
    <glyph glyph-name="n" unicode="n" horiz-adv-x="559" 
d="M468 0h-51v299c0 93 -47 144 -133 144s-136 -53 -136 -144v-299h-51v482h51v-57c25 26 37 35 60 46c25 12 52 17 83 17c109 0 177 -69 177 -180v-308z" />
    <glyph glyph-name="o" unicode="o" horiz-adv-x="526" 
d="M457 244c0 -96 -18 -154 -60 -197c-34 -34 -81 -53 -134 -53s-100 19 -134 53c-42 42 -60 101 -60 194s18 152 60 194c34 34 81 53 134 53c124 0 194 -88 194 -244zM406 239c0 87 -11 130 -43 163c-25 26 -62 41 -100 41s-75 -15 -100 -41c-31 -32 -43 -76 -43 -161
s11 -128 43 -161c25 -26 62 -41 100 -41s75 15 100 41c31 32 43 76 43 159z" />
    <glyph glyph-name="p" unicode="p" horiz-adv-x="540" 
d="M471 240c0 -164 -61 -246 -183 -246c-73 0 -105 22 -140 68v-292h-51v712h51v-62c38 48 69 68 139 68c124 0 184 -81 184 -248zM420 240c0 141 -41 203 -136 203c-94 0 -136 -62 -136 -202s41 -202 136 -202c94 0 136 62 136 201z" />
    <glyph glyph-name="q" unicode="q" horiz-adv-x="540" 
d="M443 -230h-51v292c-24 -29 -37 -40 -58 -51c-23 -11 -50 -17 -82 -17c-123 0 -183 81 -183 247c0 165 60 247 183 247c32 0 58 -5 82 -17c21 -11 34 -22 58 -51v62h51v-712zM392 240c0 141 -41 203 -136 203c-94 0 -136 -62 -136 -202s41 -202 136 -202
c94 0 136 62 136 201z" />
    <glyph glyph-name="r" unicode="r" horiz-adv-x="409" 
d="M405 442l-37 -37c-31 29 -51 38 -88 38c-79 0 -132 -59 -132 -146v-297h-51v482h51v-64c12 17 18 24 30 33c30 24 69 37 113 37c23 0 45 -4 64 -12c18 -7 28 -14 50 -34z" />
    <glyph glyph-name="s" unicode="s" horiz-adv-x="494" 
d="M438 139c0 -91 -74 -145 -199 -145c-41 0 -80 7 -114 20c-29 12 -43 21 -75 49l35 35c25 -23 36 -31 59 -41c29 -12 60 -18 101 -18c93 0 143 34 143 98c0 50 -30 76 -92 81l-80 7c-96 8 -145 50 -145 125c0 84 67 138 173 138c35 0 70 -6 101 -16c26 -9 39 -15 68 -35
l-34 -34c-25 17 -36 22 -57 29c-25 8 -50 12 -78 12c-79 0 -123 -34 -123 -94c0 -49 30 -74 98 -80l78 -7c98 -9 141 -47 141 -124z" />
    <glyph glyph-name="t" unicode="t" horiz-adv-x="325" 
d="M269 0h-44c-72 0 -116 48 -116 126v318h-66v38h66v154h51v-154h109v-38h-109v-319c0 -53 25 -80 74 -80h35v-45z" />
    <glyph glyph-name="u" unicode="u" horiz-adv-x="559" 
d="M462 0h-51v57c-25 -26 -37 -35 -61 -46c-24 -12 -51 -17 -82 -17c-109 0 -177 69 -177 180v308h51v-299c0 -93 47 -144 133 -144s136 53 136 144v299h51v-482z" />
    <glyph glyph-name="v" unicode="v" horiz-adv-x="430" 
d="M416 482l-176 -482h-50l-176 482h56l145 -422l145 422h56z" />
    <glyph glyph-name="w" unicode="w" horiz-adv-x="712" 
d="M698 482l-154 -482h-52l-136 402l-136 -402h-52l-154 482h56l123 -422l138 422h50l138 -422l123 422h56z" />
    <glyph glyph-name="x" unicode="x" horiz-adv-x="460" 
d="M420 0h-62l-127 203l-129 -203h-62l163 246l-156 236h62l122 -194l120 194h62l-156 -236z" />
    <glyph glyph-name="y" unicode="y" horiz-adv-x="430" 
d="M416 482l-224 -613c-11 -30 -19 -43 -33 -56c-22 -20 -53 -31 -91 -31h-24v45h19c50 0 69 14 88 66l39 107l-176 482h56l145 -422l145 422h56z" />
    <glyph glyph-name="z" unicode="z" horiz-adv-x="452" 
d="M398 0h-344v48l290 389h-274v45h328v-48l-291 -389h291v-45z" />
    <glyph glyph-name="braceleft" unicode="{" horiz-adv-x="316" 
d="M266 -74h-14c-50 0 -77 7 -97 27c-20 19 -26 43 -26 95v207c0 49 -23 79 -61 79h-18v44h18c38 0 61 30 61 79v207c0 52 6 76 26 95c20 20 47 27 97 27h14v-45h-13c-63 0 -73 -11 -73 -78v-207c0 -51 -15 -75 -61 -100c46 -25 61 -49 61 -100v-207c0 -67 10 -78 73 -78h13
v-45z" />
    <glyph glyph-name="bar" unicode="|" horiz-adv-x="317" 
d="M184 -74h-51v860h51v-860z" />
    <glyph glyph-name="braceright" unicode="}" horiz-adv-x="316" 
d="M266 334h-18c-38 0 -61 -30 -61 -79v-207c0 -94 -28 -122 -123 -122h-14v45h13c63 0 73 11 73 78v207c0 51 15 75 61 100c-46 25 -61 49 -61 100v207c0 67 -10 78 -73 78h-13v45h14c95 0 123 -28 123 -122v-207c0 -49 23 -79 61 -79h18v-44z" />
    <glyph glyph-name="asciitilde" unicode="~" 
d="M461 277c-36 -35 -49 -45 -70 -54c-11 -5 -27 -8 -43 -8c-26 0 -45 2 -92 25c-30 15 -57 29 -91 29c-29 0 -43 -8 -81 -45l-31 31c36 35 49 45 70 54c11 5 27 8 43 8c27 0 82 -22 110 -33c37 -15 52 -21 73 -21c29 0 43 8 81 45z" />
    <glyph glyph-name="afii10051" unicode="&#x402;" horiz-adv-x="743" 
d="M646 -9c0 -131 -84 -216 -213 -216c-32 0 -62 6 -89 17c-25 10 -38 19 -66 44l37 37c38 -38 68 -50 118 -50c102 0 159 64 159 179v227c0 112 -80 138 -138 138h-193v-367h-54v664h-182v48h479v-48h-243v-249h193c101 0 192 -50 192 -179v-245z" />
    <glyph glyph-name="afii10052" unicode="&#x403;" horiz-adv-x="564" 
d="M443 927l-106 -147h-58l97 147h67zM540 664h-368v-664h-54v712h422v-48z" />
    <glyph glyph-name="quotesinglbase" unicode="&#x201a;" horiz-adv-x="260" 
d="M181 76l-54 -173h-49l37 173h66z" />
    <glyph glyph-name="afii10100" unicode="&#x453;" horiz-adv-x="411" 
d="M337 737l-106 -147h-58l97 147h67zM401 439h-249v-439h-51v482h300v-43z" />
    <glyph glyph-name="quotedblbase" unicode="&#x201e;" horiz-adv-x="416" 
d="M337 76l-54 -173h-49l37 173h66zM181 76l-54 -173h-49l37 173h66z" />
    <glyph glyph-name="ellipsis" unicode="&#x2026;" horiz-adv-x="724" 
d="M638 44c0 -26 -21 -47 -46 -47s-46 21 -46 46s21 46 46 46s46 -21 46 -45zM408 44c0 -26 -21 -47 -46 -47s-46 21 -46 46s21 46 46 46s46 -21 46 -45zM178 44c0 -26 -21 -47 -46 -47s-46 21 -46 46s21 46 46 46s46 -21 46 -45z" />
    <glyph glyph-name="dagger" unicode="&#x2020;" horiz-adv-x="614" 
d="M534 457h-203v-457h-51v457h-200v45h200v210h51v-210h203v-45z" />
    <glyph glyph-name="daggerdbl" unicode="&#x2021;" horiz-adv-x="614" 
d="M534 -20h-203v-210h-51v210h-200v45h200v432h-200v45h200v210h51v-210h203v-45h-203v-432h203v-45z" />
    <glyph glyph-name="perthousand" unicode="&#x2030;" horiz-adv-x="1168" 
d="M1099 127c0 -79 -54 -134 -131 -134c-78 0 -132 55 -132 134v107c0 79 54 134 132 134c77 0 131 -55 131 -134v-107zM759 127c0 -79 -54 -134 -131 -134c-78 0 -132 55 -132 134v107c0 79 54 134 132 134c77 0 131 -55 131 -134v-107zM603 712l-332 -712h-45l332 712h45z
M332 478c0 -78 -54 -133 -131 -133c-78 0 -132 55 -132 133v107c0 79 54 134 132 134c77 0 131 -55 131 -134v-107zM1055 128v104c0 65 -30 98 -87 98c-58 0 -88 -33 -88 -98v-103c0 -66 29 -98 89 -98c57 0 86 33 86 97zM715 129v103c0 65 -30 98 -88 98
c-57 0 -87 -34 -87 -98v-103c0 -65 30 -98 88 -98c57 0 87 33 87 98zM288 480v103c0 65 -30 98 -88 98c-57 0 -87 -34 -87 -98v-103c0 -64 30 -97 88 -97c57 0 87 33 87 97z" />
    <glyph glyph-name="afii10058" unicode="&#x409;" horiz-adv-x="1056" 
d="M1013 205c0 -124 -85 -205 -215 -205h-263v664h-277l-11 -327c-8 -251 -70 -337 -202 -337h-39v48h28c95 0 151 45 160 317l11 347h384v-302h209c130 0 215 -81 215 -205zM959 205c0 100 -61 157 -167 157h-203v-314h203c106 0 167 57 167 157z" />
    <glyph glyph-name="guilsinglleft" unicode="&#x2039;" horiz-adv-x="320" 
d="M238 69l-196 196l196 196v-66l-130 -130l130 -130v-66z" />
    <glyph glyph-name="afii10059" unicode="&#x40a;" horiz-adv-x="1056" 
d="M1013 205c0 -124 -85 -205 -215 -205h-263v362h-371v-362h-54v712h54v-302h371v302h54v-302h209c130 0 215 -81 215 -205zM959 205c0 100 -61 157 -167 157h-203v-314h203c106 0 167 57 167 157z" />
    <glyph glyph-name="afii10061" unicode="&#x40c;" horiz-adv-x="645" 
d="M443 927l-106 -147h-58l97 147h67zM627 0h-64l-229 399l-170 -206v-193h-54v712h54v-445l361 445h65l-220 -272z" />
    <glyph glyph-name="afii10060" unicode="&#x40b;" horiz-adv-x="743" 
d="M646 0h-54v244c0 112 -80 138 -138 138c-50 0 -154 -18 -193 -27v-355h-54v664h-182v48h479v-48h-243v-261c32 7 118 27 193 27c101 0 192 -50 192 -179v-251z" />
    <glyph glyph-name="afii10145" unicode="&#x40f;" horiz-adv-x="699" 
d="M589 0h-212v-190h-54v190h-213v712h54v-664h371v664h54v-712z" />
    <glyph glyph-name="afii10099" unicode="&#x452;" horiz-adv-x="559" 
d="M468 -85c0 -79 -44 -145 -136 -145h-44v45h35c59 0 94 43 94 101v263c0 93 -42 144 -128 144s-141 -53 -141 -144v-179h-51v444h-61v38h61v230h51v-230h254v-38h-254v-139c42 44 86 63 148 63c109 0 172 -69 172 -180v-273z" />
    <glyph glyph-name="quoteleft" unicode="&#x2018;" horiz-adv-x="260" 
d="M181 762l-37 -173h-66l54 173h49z" />
    <glyph glyph-name="quoteright" unicode="&#x2019;" horiz-adv-x="260" 
d="M181 762l-54 -173h-49l37 173h66z" />
    <glyph glyph-name="quotedblleft" unicode="&#x201c;" horiz-adv-x="416" 
d="M337 762l-37 -173h-66l54 173h49zM181 762l-37 -173h-66l54 173h49z" />
    <glyph glyph-name="quotedblright" unicode="&#x201d;" horiz-adv-x="416" 
d="M337 762l-54 -173h-49l37 173h66zM181 762l-54 -173h-49l37 173h66z" />
    <glyph glyph-name="bullet" unicode="&#x2022;" horiz-adv-x="546" 
d="M436 337c0 -93 -72 -166 -163 -166c-90 0 -163 73 -163 163s73 163 163 163c88 0 163 -73 163 -160z" />
    <glyph glyph-name="endash" unicode="&#x2013;" horiz-adv-x="500" 
d="M500 240h-500v47h500v-47z" />
    <glyph glyph-name="emdash" unicode="&#x2014;" horiz-adv-x="1000" 
d="M1000 240h-1000v47h1000v-47z" />
    <glyph glyph-name="trademark" unicode="&#x2122;" horiz-adv-x="809" 
d="M753 285h-44v328l-110 -218h-46l-110 218v-328h-44v427h44l133 -270l133 270h44v-427zM320 671h-122v-386h-44v386h-122v41h288v-41z" />
    <glyph glyph-name="afii10106" unicode="&#x459;" horiz-adv-x="812" 
d="M772 142c0 -86 -59 -142 -149 -142h-212v439h-195l-7 -237c-4 -150 -67 -202 -151 -202h-32v43h25c44 0 104 17 108 178l7 261h296v-198h161c90 0 149 -56 149 -142zM721 142c0 63 -37 99 -106 99h-153v-198h153c69 0 106 35 106 99z" />
    <glyph glyph-name="guilsinglright" unicode="&#x203a;" horiz-adv-x="320" 
d="M278 265l-196 -196v66l130 130l-130 130v66z" />
    <glyph glyph-name="afii10107" unicode="&#x45a;" horiz-adv-x="812" 
d="M772 142c0 -86 -59 -142 -149 -142h-212v241h-263v-241h-51v482h51v-198h263v198h51v-198h161c90 0 149 -56 149 -142zM721 142c0 63 -37 99 -106 99h-153v-198h153c69 0 106 35 106 99z" />
    <glyph glyph-name="afii10109" unicode="&#x45c;" horiz-adv-x="524" 
d="M357 737l-106 -147h-58l97 147h67zM492 0h-64l-172 248l-106 -120v-128h-51v482h51v-282l249 282h65l-174 -196z" />
    <glyph glyph-name="afii10108" unicode="&#x45b;" horiz-adv-x="559" 
d="M468 0h-51v179c0 93 -47 144 -133 144s-136 -53 -136 -144v-179h-51v444h-61v38h61v230h51v-230h254v-38h-254v-139c42 44 81 63 143 63c109 0 177 -69 177 -180v-188z" />
    <glyph glyph-name="afii10193" unicode="&#x45f;" horiz-adv-x="559" 
d="M462 0h-157v-160h-51v160h-157v482h51v-439h263v439h51v-482z" />
    <glyph glyph-name="nbspace" unicode="&#xa0;" horiz-adv-x="255" 
 />
    <glyph glyph-name="afii10062" unicode="&#x40e;" horiz-adv-x="534" 
d="M426 885c-19 -84 -72 -125 -159 -125s-140 41 -159 125h47c12 -45 44 -80 113 -80s99 35 111 80h47zM522 712l-259 -604c-28 -66 -67 -108 -134 -108h-54v48h42c53 0 78 24 101 80l31 74l-237 510h58l207 -449l187 449h58z" />
    <glyph glyph-name="afii10110" unicode="&#x45e;" horiz-adv-x="430" 
d="M374 702c-19 -84 -72 -125 -159 -125s-140 41 -159 125h47c12 -45 44 -80 113 -80s99 35 111 80h47zM416 482l-224 -613c-11 -30 -19 -43 -33 -56c-22 -20 -53 -31 -91 -31h-24v45h19c50 0 69 14 88 66l39 107l-176 482h56l145 -422l145 422h56z" />
    <glyph glyph-name="afii10057" unicode="&#x408;" horiz-adv-x="498" 
d="M398 210c0 -131 -84 -216 -213 -216c-32 0 -62 6 -89 17c-25 10 -38 19 -66 44l37 37c38 -38 68 -50 118 -50c102 0 159 64 159 179v491h54v-502z" />
    <glyph glyph-name="currency" unicode="&#xa4;" 
d="M465 54c-39 -38 -92 -61 -155 -61c-129 0 -213 85 -213 216v85h-63v38h63v62h-63v38h63v70c0 131 84 216 213 216c63 0 113 -23 147 -54l-29 -44c-39 38 -68 50 -119 50c-101 0 -158 -64 -158 -179v-59h200l-10 -38h-190v-62h170l-10 -38h-160v-74
c0 -115 57 -179 158 -179c51 0 80 12 119 50z" />
    <glyph glyph-name="afii10050" unicode="&#x490;" horiz-adv-x="564" 
d="M540 664h-368v-664h-54v712h368v190h54v-238z" />
    <glyph glyph-name="brokenbar" unicode="&#xa6;" horiz-adv-x="328" 
d="M184 436h-51v350h51v-350zM184 -74h-51v350h51v-350z" />
    <glyph glyph-name="section" unicode="&#xa7;" horiz-adv-x="566" 
d="M469 247c0 -49 -17 -92 -49 -127c-17 -18 -29 -26 -61 -43c29 -12 40 -18 56 -33c31 -29 47 -68 47 -113c0 -98 -75 -167 -180 -167c-54 0 -102 17 -134 48c-14 13 -25 28 -33 45c-9 18 -12 31 -16 62h54c10 -73 51 -107 129 -107s126 44 126 116c0 55 -35 99 -94 115
l-83 23c-82 23 -134 93 -134 180c0 50 17 93 49 128c17 18 29 26 61 43c-33 16 -46 25 -61 40c-26 26 -38 59 -38 100c0 95 71 161 176 161c52 0 99 -17 131 -48c13 -12 24 -27 32 -44s11 -30 14 -59h-53c-10 74 -46 104 -126 104c-76 0 -121 -41 -121 -111
c0 -57 30 -92 91 -109l83 -23c82 -23 134 -93 134 -181zM415 247c0 86 -52 142 -132 142c-79 0 -132 -56 -132 -139c0 -88 52 -145 132 -145c79 0 132 57 132 142z" />
    <glyph glyph-name="afii10023" unicode="&#x401;" horiz-adv-x="598" 
d="M455 829c0 -22 -17 -39 -37 -39c-21 0 -38 17 -38 37c0 21 17 38 37 38s38 -17 38 -36zM248 829c0 -22 -17 -39 -37 -39c-21 0 -38 17 -38 37c0 21 17 38 37 38s38 -17 38 -36zM542 0h-432v712h432v-48h-378v-281h322v-48h-322v-287h378v-48z" />
    <glyph glyph-name="copyright" unicode="&#xa9;" horiz-adv-x="894" 
d="M809 363c0 -207 -159 -369 -362 -369c-200 0 -362 162 -362 362s162 362 362 362c196 0 362 -163 362 -355zM761 350c0 179 -140 324 -314 324c-171 0 -314 -145 -314 -318s143 -318 314 -318c168 0 314 145 314 312zM582 202c-28 -24 -41 -33 -63 -41
c-20 -8 -42 -11 -67 -11c-111 0 -178 78 -178 206s68 207 178 207c24 0 46 -4 64 -10c22 -8 36 -17 66 -43l-30 -30c-39 33 -60 42 -100 42c-89 0 -133 -57 -133 -171c0 -104 47 -160 134 -160c40 0 61 9 99 41z" />
    <glyph glyph-name="afii10053" unicode="&#x404;" horiz-adv-x="596" 
d="M528 83c-62 -56 -113 -89 -199 -89c-69 0 -132 27 -180 73c-61 58 -66 127 -66 289c0 142 -4 219 66 289c47 47 111 73 179 73c84 0 141 -35 200 -89l-36 -36c-50 48 -92 77 -163 77c-83 0 -169 -56 -183 -143c-4 -27 -8 -50 -9 -144h295v-48h-295c0 -79 -6 -177 55 -238
c36 -36 83 -55 137 -55c71 0 113 29 163 77z" />
    <glyph glyph-name="guillemotleft" unicode="&#xab;" horiz-adv-x="527" 
d="M445 69l-196 196l196 196v-66l-130 -130l130 -130v-66zM238 69l-196 196l196 196v-66l-130 -130l130 -130v-66z" />
    <glyph glyph-name="logicalnot" unicode="&#xac;" 
d="M461 107h-47v133h-361v47h408v-180z" />
    <glyph glyph-name="hyphen" unicode="-" horiz-adv-x="426" 
d="M344 240h-262v47h262v-47z" />
    <glyph glyph-name="registered" unicode="&#xae;" horiz-adv-x="438" 
d="M407 534c0 -107 -82 -191 -188 -191c-104 0 -188 84 -188 188s84 188 188 188c102 0 188 -85 188 -185zM383 528c0 93 -73 169 -164 169c-89 0 -164 -76 -164 -166c0 -91 75 -166 164 -166c88 0 164 75 164 163zM296 427h-27l-51 87h-35v-87h-23v208h67
c35 0 64 -27 64 -62c0 -29 -21 -49 -47 -57zM268 574c0 23 -19 40 -44 40h-41v-80h41c25 0 44 17 44 40z" />
    <glyph glyph-name="afii10056" unicode="&#x407;" horiz-adv-x="274" 
d="M279 829c0 -22 -17 -39 -37 -39c-21 0 -38 17 -38 37c0 21 17 38 37 38s38 -17 38 -36zM72 829c0 -22 -17 -39 -37 -39c-21 0 -38 17 -38 37c0 21 17 38 37 38s38 -17 38 -36zM164 0h-54v712h54v-712z" />
    <glyph glyph-name="degree" unicode="&#xb0;" horiz-adv-x="458" 
d="M386 565c0 -90 -69 -160 -157 -160c-87 0 -157 70 -157 157s70 157 157 157c85 0 157 -70 157 -154zM341 560c0 67 -48 117 -113 117c-64 0 -111 -49 -111 -115s48 -115 112 -115c63 0 112 49 112 113z" />
    <glyph glyph-name="plusminus" unicode="&#xb1;" 
d="M461 270h-180v-182h-47v182h-181v47h181v181h47v-181h180v-47zM461 0h-408v47h408v-47z" />
    <glyph glyph-name="afii10055" unicode="&#x406;" horiz-adv-x="274" 
d="M164 0h-54v712h54v-712z" />
    <glyph glyph-name="afii10103" unicode="&#x456;" horiz-adv-x="245" 
d="M160 682c0 -22 -17 -39 -37 -39c-21 0 -38 17 -38 37c0 21 17 38 37 38s38 -17 38 -36zM148 0h-51v482h51v-482z" />
    <glyph glyph-name="afii10098" unicode="&#x491;" horiz-adv-x="411" 
d="M401 439h-249v-439h-51v482h249v160h51v-203z" />
    <glyph glyph-name="mu" unicode="&#x3bc;" horiz-adv-x="556" 
d="M459 0h-51v57c-25 -26 -37 -35 -61 -46c-24 -12 -51 -17 -82 -17c-27 0 -54 5 -77 14c-19 7 -28 13 -49 31v-269h-51v712h51v-299c0 -93 47 -144 133 -144s136 53 136 144v299h51v-482z" />
    <glyph glyph-name="paragraph" unicode="&#xb6;" horiz-adv-x="579" 
d="M469 -230h-51v894h-123v-894h-51v562c-41 2 -58 5 -82 15c-72 30 -117 98 -117 175c0 111 88 190 211 190h213v-942z" />
    <glyph glyph-name="periodcentered" horiz-adv-x="264" 
d="M178 261c0 -26 -21 -47 -46 -47s-46 21 -46 46s21 46 46 46s46 -21 46 -45z" />
    <glyph glyph-name="afii10071" unicode="&#x451;" horiz-adv-x="523" 
d="M405 639c0 -22 -17 -39 -37 -39c-21 0 -38 17 -38 37c0 21 17 38 37 38s38 -17 38 -36zM198 639c0 -22 -17 -39 -37 -39c-21 0 -38 17 -38 37c0 21 17 38 37 38s38 -17 38 -36zM455 230h-335c2 -52 5 -74 17 -102c24 -59 72 -88 141 -88c26 0 48 4 68 12
c22 9 35 19 64 46l38 -30c-35 -34 -52 -46 -81 -58c-26 -11 -56 -16 -91 -16c-136 0 -207 85 -207 250c0 152 73 244 193 244s193 -89 193 -235v-23zM404 271c-2 38 -3 50 -9 69c-19 65 -69 103 -133 103c-56 0 -103 -31 -125 -81c-11 -25 -15 -46 -17 -91h284z" />
    <glyph glyph-name="afii61352" unicode="&#x2116;" horiz-adv-x="954" 
d="M880 246c0 -79 -54 -134 -131 -134c-78 0 -132 55 -132 134v107c0 79 54 134 132 134c77 0 131 -55 131 -134v-107zM886 0h-262v43h262v-43zM548 0h-51l-361 616v-616h-51v712h51l361 -614v614h51v-712zM832 248v103c0 63 -29 94 -84 94c-54 0 -83 -32 -83 -94v-103
c0 -63 29 -94 84 -94c54 0 83 31 83 94z" />
    <glyph glyph-name="afii10101" unicode="&#x454;" horiz-adv-x="493" 
d="M440 68c-48 -51 -84 -74 -156 -74c-134 0 -215 93 -215 247s81 247 215 247c72 0 107 -23 156 -74l-35 -32c-36 39 -67 61 -122 61c-106 0 -157 -75 -162 -172h228v-41h-229c0 -103 45 -191 162 -191c56 0 86 21 123 61z" />
    <glyph glyph-name="guillemotright" unicode="&#xbb;" horiz-adv-x="527" 
d="M485 265l-196 -196v66l130 130l-130 130v66zM278 265l-196 -196v66l130 130l-130 130v66z" />
    <glyph glyph-name="afii10105" unicode="&#x458;" horiz-adv-x="245" 
d="M160 682c0 -22 -17 -39 -37 -39c-21 0 -38 17 -38 37c0 21 17 38 37 38s38 -17 38 -36zM148 -105c0 -79 -42 -125 -116 -125h-44v45h35c53 0 74 23 74 81v586h51v-587z" />
    <glyph glyph-name="afii10054" unicode="&#x405;" horiz-adv-x="587" 
d="M528 190c0 -122 -93 -196 -248 -196c-46 0 -91 8 -128 23c-37 16 -58 30 -101 71l38 38c41 -39 60 -53 93 -66c30 -12 63 -18 104 -18c119 0 188 54 188 148c0 42 -13 76 -39 99c-23 21 -45 29 -103 38l-83 13c-120 19 -183 82 -183 183c0 121 85 195 226 195
c37 0 74 -5 105 -17c33 -12 53 -25 95 -60l-35 -35c-35 30 -51 40 -79 51c-26 10 -58 15 -91 15c-105 0 -168 -55 -168 -147c0 -41 13 -73 37 -93c27 -22 65 -38 106 -44l77 -12c66 -10 97 -22 127 -47c41 -34 62 -82 62 -139z" />
    <glyph glyph-name="afii10102" unicode="&#x455;" horiz-adv-x="494" 
d="M438 139c0 -91 -74 -145 -199 -145c-41 0 -80 7 -114 20c-29 12 -43 21 -75 49l35 35c25 -23 36 -31 59 -41c29 -12 60 -18 101 -18c93 0 143 34 143 98c0 50 -30 76 -92 81l-80 7c-96 8 -145 50 -145 125c0 84 67 138 173 138c35 0 70 -6 101 -16c26 -9 39 -15 68 -35
l-34 -34c-25 17 -36 22 -57 29c-25 8 -50 12 -78 12c-79 0 -123 -34 -123 -94c0 -49 30 -74 98 -80l78 -7c98 -9 141 -47 141 -124z" />
    <glyph glyph-name="afii10104" unicode="&#x457;" horiz-adv-x="245" 
d="M264 639c0 -22 -17 -39 -37 -39c-21 0 -38 17 -38 37c0 21 17 38 37 38s38 -17 38 -36zM57 639c0 -22 -17 -39 -37 -39c-21 0 -38 17 -38 37c0 21 17 38 37 38s38 -17 38 -36zM148 0h-51v482h51v-482z" />
    <glyph glyph-name="afii10017" unicode="&#x410;" horiz-adv-x="600" 
d="M586 0h-58l-62 173h-332l-62 -173h-58l262 712h48zM449 221l-149 419l-149 -419h298z" />
    <glyph glyph-name="afii10018" unicode="&#x411;" horiz-adv-x="657" 
d="M588 205c0 -124 -85 -205 -215 -205h-263v712h434v-48h-380v-254h209c130 0 215 -81 215 -205zM534 205c0 100 -61 157 -167 157h-203v-314h203c106 0 167 57 167 157z" />
    <glyph glyph-name="afii10019" unicode="&#x412;" horiz-adv-x="671" 
d="M589 192c0 -120 -78 -192 -209 -192h-270v712h262c123 0 206 -74 206 -184c0 -52 -19 -96 -54 -129c-16 -14 -27 -21 -57 -33c35 -14 48 -22 66 -38c37 -34 56 -80 56 -136zM524 526c0 87 -59 138 -158 138h-202v-276h202c100 0 158 51 158 138zM535 194
c0 89 -62 146 -161 146h-210v-292h210c99 0 161 56 161 146z" />
    <glyph glyph-name="afii10020" unicode="&#x413;" horiz-adv-x="564" 
d="M540 664h-368v-664h-54v712h422v-48z" />
    <glyph glyph-name="afii10021" unicode="&#x414;" horiz-adv-x="699" 
d="M653 -190h-54v190h-511v-190h-54v238h70c70 162 91 276 91 574v90h373v-664h85v-238zM514 48v616h-265v-100c0 -289 -24 -359 -86 -516h351z" />
    <glyph glyph-name="afii10022" unicode="&#x415;" horiz-adv-x="598" 
d="M542 0h-432v712h432v-48h-378v-281h322v-48h-322v-287h378v-48z" />
    <glyph glyph-name="afii10024" unicode="&#x416;" horiz-adv-x="922" 
d="M910 0h-64l-222 383l-136 -180v-203h-54v203l-136 180l-222 -383h-64l252 428l-216 284h65l321 -435v435h54v-435l321 435h65l-216 -284z" />
    <glyph glyph-name="afii10025" unicode="&#x417;" horiz-adv-x="587" 
d="M505 192c0 -122 -101 -198 -232 -198c-99 0 -156 23 -226 94l38 38c63 -60 105 -84 194 -84c97 0 172 57 172 152c0 99 -58 146 -158 146h-79v48h82c91 0 143 51 143 143c0 90 -63 139 -159 139c-71 0 -123 -20 -176 -66l-32 35c65 54 122 79 208 79
c123 0 213 -72 213 -186c0 -80 -34 -134 -107 -165c79 -27 119 -84 119 -175z" />
    <glyph glyph-name="afii10026" unicode="&#x418;" horiz-adv-x="720" 
d="M610 0h-54v619l-392 -619h-54v712h54v-617l392 617h54v-712z" />
    <glyph glyph-name="afii10027" unicode="&#x419;" horiz-adv-x="720" 
d="M519 885c-19 -84 -72 -125 -159 -125s-140 41 -159 125h47c12 -45 44 -80 113 -80s99 35 111 80h47zM610 0h-54v619l-392 -619h-54v712h54v-617l392 617h54v-712z" />
    <glyph glyph-name="afii10028" unicode="&#x41a;" horiz-adv-x="645" 
d="M627 0h-64l-229 399l-170 -206v-193h-54v712h54v-445l361 445h65l-220 -272z" />
    <glyph glyph-name="afii10029" unicode="&#x41b;" horiz-adv-x="699" 
d="M589 0h-54v664h-277l-11 -327c-8 -251 -70 -337 -202 -337h-39v48h28c95 0 151 45 160 317l11 347h384v-712z" />
    <glyph glyph-name="afii10030" unicode="&#x41c;" horiz-adv-x="818" 
d="M708 0h-54v587l-216 -487h-54l-220 487v-587h-54v712h54l248 -549l242 549h54v-712z" />
    <glyph glyph-name="afii10031" unicode="&#x41d;" horiz-adv-x="699" 
d="M589 0h-54v335h-371v-335h-54v712h54v-329h371v329h54v-712z" />
    <glyph glyph-name="afii10032" unicode="&#x41e;" horiz-adv-x="652" 
d="M570 356c0 -172 -7 -230 -66 -289c-47 -47 -111 -73 -178 -73s-131 26 -178 73c-62 62 -66 131 -66 289c0 131 -5 218 66 289c47 47 111 73 178 73s131 -26 178 -73c74 -74 66 -180 66 -289zM516 346v27c0 152 -10 197 -55 242c-35 35 -84 55 -135 55
c-52 0 -100 -20 -135 -55c-50 -50 -55 -114 -55 -259v-31c0 -136 11 -184 55 -228c35 -35 83 -55 135 -55s100 20 135 55c56 56 55 133 55 249z" />
    <glyph glyph-name="afii10033" unicode="&#x41f;" horiz-adv-x="699" 
d="M589 0h-54v664h-371v-664h-54v712h479v-712z" />
    <glyph glyph-name="afii10034" unicode="&#x420;" horiz-adv-x="631" 
d="M586 507c0 -124 -85 -205 -215 -205h-207v-302h-54v712h261c130 0 215 -81 215 -205zM532 507c0 100 -61 157 -167 157h-201v-314h201c106 0 167 57 167 157z" />
    <glyph glyph-name="afii10035" unicode="&#x421;" horiz-adv-x="596" 
d="M527 83c-62 -56 -113 -89 -199 -89c-69 0 -132 27 -180 73c-61 58 -66 127 -66 289c0 142 -4 219 66 289c47 47 111 73 179 73c84 0 141 -35 200 -89l-36 -36c-50 48 -92 77 -163 77c-83 0 -169 -56 -183 -143c-5 -29 -9 -54 -9 -171v-30c0 -138 11 -185 55 -229
c36 -36 83 -55 137 -55c71 0 113 29 163 77z" />
    <glyph glyph-name="afii10036" unicode="&#x422;" horiz-adv-x="539" 
d="M509 664h-213v-664h-54v664h-212v48h479v-48z" />
    <glyph glyph-name="afii10037" unicode="&#x423;" horiz-adv-x="534" 
d="M522 712l-259 -604c-28 -66 -67 -108 -134 -108h-54v48h42c53 0 77 24 101 80l31 74l-237 510h58l207 -449l187 449h58z" />
    <glyph glyph-name="afii10038" unicode="&#x424;" horiz-adv-x="722" 
d="M664 371c0 -176 -105 -283 -276 -283v-91h-54v91c-171 0 -276 107 -276 283c0 177 107 283 276 283v61h54v-61c169 0 276 -106 276 -283zM610 370c0 136 -71 236 -222 236v-470c145 0 222 96 222 234zM334 136v470c-151 0 -222 -100 -222 -236c0 -138 77 -234 222 -234z
" />
    <glyph glyph-name="afii10039" unicode="&#x425;" horiz-adv-x="532" 
d="M514 0h-63l-186 317l-186 -317h-61l218 365l-204 347h63l170 -299l171 299h62l-204 -347z" />
    <glyph glyph-name="afii10040" unicode="&#x426;" horiz-adv-x="720" 
d="M674 -190h-54v190h-510v712h54v-664h371v664h54v-664h85v-238z" />
    <glyph glyph-name="afii10041" unicode="&#x427;" horiz-adv-x="644" 
d="M534 0h-54v337c-27 -34 -106 -73 -176 -73c-143 0 -224 78 -224 217v231h54v-224c0 -118 56 -176 170 -176c85 0 149 38 176 106v294h54v-712z" />
    <glyph glyph-name="afii10042" unicode="&#x428;" horiz-adv-x="1000" 
d="M890 0h-780v712h54v-664h309v664h54v-664h309v664h54v-712z" />
    <glyph glyph-name="afii10043" unicode="&#x429;" horiz-adv-x="1021" 
d="M975 -190h-54v190h-811v712h54v-664h309v664h54v-664h309v664h54v-664h85v-238z" />
    <glyph glyph-name="afii10044" unicode="&#x42a;" horiz-adv-x="758" 
d="M715 205c0 -124 -85 -205 -215 -205h-263v664h-207v48h261v-302h209c130 0 215 -81 215 -205zM661 205c0 100 -61 157 -167 157h-203v-314h203c106 0 167 57 167 157z" />
    <glyph glyph-name="afii10045" unicode="&#x42b;" horiz-adv-x="854" 
d="M744 0h-54v712h54v-712zM588 205c0 -124 -85 -205 -215 -205h-263v712h54v-302h209c130 0 215 -81 215 -205zM534 205c0 100 -61 157 -167 157h-203v-314h203c106 0 167 57 167 157z" />
    <glyph glyph-name="afii10046" unicode="&#x42c;" horiz-adv-x="631" 
d="M588 205c0 -124 -85 -205 -215 -205h-263v712h54v-302h209c130 0 215 -81 215 -205zM534 205c0 100 -61 157 -167 157h-203v-314h203c106 0 167 57 167 157z" />
    <glyph glyph-name="afii10047" unicode="&#x42d;" horiz-adv-x="596" 
d="M513 356c0 -162 -5 -231 -66 -289c-48 -46 -111 -73 -180 -73c-86 0 -137 33 -199 89l36 36c50 -48 92 -77 163 -77c54 0 101 19 137 55c61 61 55 159 55 238h-295v48h295c-1 94 -5 117 -9 144c-14 87 -100 143 -183 143c-71 0 -113 -29 -163 -77l-36 36
c59 54 116 89 200 89c68 0 132 -26 179 -73c70 -70 66 -147 66 -289z" />
    <glyph glyph-name="afii10048" unicode="&#x42e;" horiz-adv-x="900" 
d="M818 356c0 -172 -7 -230 -66 -289c-47 -47 -111 -73 -178 -73s-131 26 -178 73c-59 59 -66 125 -66 268h-166v-335h-54v712h54v-329h166c0 116 0 196 66 262c47 47 111 73 178 73s131 -26 178 -73c74 -74 66 -180 66 -289zM764 346v27c0 152 -10 197 -55 242
c-35 35 -84 55 -135 55c-52 0 -100 -20 -135 -55c-50 -50 -55 -114 -55 -259v-31c0 -136 11 -184 55 -228c35 -35 83 -55 135 -55s100 20 135 55c56 56 55 133 55 249z" />
    <glyph glyph-name="afii10049" unicode="&#x42f;" horiz-adv-x="657" 
d="M547 0h-54v302h-200l-166 -302h-63l170 307c-100 19 -163 94 -163 200c0 124 85 205 215 205h261v-712zM493 350v314h-201c-106 0 -167 -57 -167 -157s61 -157 167 -157h201z" />
    <glyph glyph-name="afii10065" unicode="&#x430;" horiz-adv-x="524" 
d="M431 0h-51v48c-25 -23 -37 -32 -57 -40c-24 -10 -52 -14 -92 -14c-116 0 -175 47 -175 139c0 86 63 138 168 138h156v54c0 82 -43 118 -140 118c-33 0 -60 -5 -82 -16c-18 -10 -28 -19 -47 -45l-37 32c24 30 37 41 60 53c28 14 62 21 108 21c125 0 189 -53 189 -158v-330
zM380 168v62h-150c-82 0 -123 -32 -123 -97c0 -66 40 -94 131 -94c101 0 142 38 142 129z" />
    <glyph glyph-name="afii10066" unicode="&#x431;" horiz-adv-x="526" 
d="M457 241c0 -96 -17 -153 -59 -195c-32 -33 -80 -52 -132 -52c-96 0 -161 57 -181 148c-13 57 -10 153 -10 215c0 137 6 226 66 287c75 75 202 63 281 73v-49c-65 -9 -191 0 -247 -56c-59 -59 -54 -168 -57 -212h3c26 52 96 82 148 82c122 0 188 -86 188 -241zM406 236
c0 87 -10 129 -42 161c-24 25 -61 40 -98 40s-73 -15 -98 -40c-30 -31 -42 -74 -42 -159s11 -127 42 -159c25 -25 61 -40 98 -40s74 15 98 40c31 31 42 74 42 157z" />
    <glyph glyph-name="afii10067" unicode="&#x432;" horiz-adv-x="535" 
d="M463 131c0 -81 -53 -131 -142 -131h-224v482h219c83 0 139 -49 139 -124c0 -54 -31 -92 -82 -108c53 -17 90 -58 90 -119zM404 355c0 54 -36 84 -99 84h-157v-168h157c64 0 99 31 99 84zM412 135c0 56 -38 93 -102 93h-162v-185h162c64 0 102 36 102 92z" />
    <glyph glyph-name="afii10068" unicode="&#x433;" horiz-adv-x="411" 
d="M401 439h-249v-439h-51v482h300v-43z" />
    <glyph glyph-name="afii10069" unicode="&#x434;" horiz-adv-x="559" 
d="M523 -160h-51v160h-393v-160h-51v203h64c38 78 69 152 69 329v110h287v-439h75v-203zM397 43v396h-185v-100c0 -142 -25 -219 -60 -296h245z" />
    <glyph glyph-name="afii10070" unicode="&#x435;" horiz-adv-x="523" 
d="M455 230h-335c2 -52 5 -74 17 -102c24 -59 72 -88 141 -88c26 0 48 4 68 12c22 9 35 19 64 46l38 -30c-35 -34 -52 -46 -81 -58c-26 -11 -56 -16 -91 -16c-136 0 -207 85 -207 250c0 152 73 244 193 244s193 -89 193 -235v-23zM404 271c-2 38 -3 50 -9 69
c-19 65 -69 103 -133 103c-56 0 -103 -31 -125 -81c-11 -25 -15 -46 -17 -91h284z" />
    <glyph glyph-name="afii10072" unicode="&#x436;" horiz-adv-x="713" 
d="M689 0h-64l-150 244l-93 -116v-128h-51v128l-93 116l-150 -244h-64l181 284l-158 198h65l219 -282v282h51v-282l219 282h65l-158 -198z" />
    <glyph glyph-name="afii10073" unicode="&#x437;" horiz-adv-x="477" 
d="M405 133c0 -86 -85 -138 -182 -138c-77 0 -129 17 -186 69l35 35c46 -45 83 -59 148 -59c64 0 136 35 136 94c0 61 -46 92 -111 92h-69v43h71c58 0 100 31 100 88c0 55 -47 87 -119 87c-52 0 -97 -14 -139 -43l-30 36c53 37 105 51 169 51c96 0 169 -47 169 -130
c0 -50 -28 -93 -81 -109c54 -15 89 -59 89 -116z" />
    <glyph glyph-name="afii10074" unicode="&#x438;" horiz-adv-x="573" 
d="M476 0h-51v404l-277 -404h-51v482h51v-404l277 404h51v-482z" />
    <glyph glyph-name="afii10075" unicode="&#x439;" horiz-adv-x="573" 
d="M445 702c-19 -84 -72 -125 -159 -125s-140 41 -159 125h47c12 -45 44 -80 113 -80s99 35 111 80h47zM476 0h-51v404l-277 -404h-51v482h51v-404l277 404h51v-482z" />
    <glyph glyph-name="afii10076" unicode="&#x43a;" horiz-adv-x="524" 
d="M492 0h-64l-172 248l-106 -120v-128h-51v482h51v-282l249 282h65l-174 -196z" />
    <glyph glyph-name="afii10077" unicode="&#x43b;" horiz-adv-x="559" 
d="M462 0h-51v439h-195l-7 -237c-4 -150 -67 -202 -151 -202h-32v43h25c44 0 104 17 108 178l7 261h296v-482z" />
    <glyph glyph-name="afii10078" unicode="&#x43c;" horiz-adv-x="648" 
d="M551 0h-51v378l-151 -310h-48l-153 310v-378h-51v482h51l178 -363l174 363h51v-482z" />
    <glyph glyph-name="afii10079" unicode="&#x43d;" horiz-adv-x="559" 
d="M462 0h-51v228h-263v-228h-51v482h51v-211h263v211h51v-482z" />
    <glyph glyph-name="afii10080" unicode="&#x43e;" horiz-adv-x="526" 
d="M457 244c0 -96 -18 -154 -60 -197c-34 -34 -81 -53 -134 -53s-100 19 -134 53c-42 42 -60 101 -60 194s18 152 60 194c34 34 81 53 134 53c124 0 194 -88 194 -244zM406 239c0 87 -11 130 -43 163c-25 26 -62 41 -100 41s-75 -15 -100 -41c-31 -32 -43 -76 -43 -161
s11 -128 43 -161c25 -26 62 -41 100 -41s75 15 100 41c31 32 43 76 43 159z" />
    <glyph glyph-name="afii10081" unicode="&#x43f;" horiz-adv-x="559" 
d="M462 0h-51v439h-263v-439h-51v482h365v-482z" />
    <glyph glyph-name="afii10082" unicode="&#x440;" horiz-adv-x="540" 
d="M471 240c0 -164 -61 -246 -183 -246c-73 0 -105 22 -140 68v-292h-51v712h51v-62c38 48 69 68 139 68c124 0 184 -81 184 -248zM420 240c0 141 -41 203 -136 203c-94 0 -136 -62 -136 -202s41 -202 136 -202c94 0 136 62 136 201z" />
    <glyph glyph-name="afii10083" unicode="&#x441;" horiz-adv-x="493" 
d="M440 68c-48 -51 -84 -74 -156 -74c-134 0 -215 93 -215 247s81 247 215 247c72 0 107 -23 156 -74l-35 -32c-36 39 -67 61 -122 61c-56 0 -101 -22 -130 -64c-24 -34 -33 -73 -33 -139c0 -64 9 -104 33 -137c30 -43 73 -64 129 -64s86 21 123 61z" />
    <glyph glyph-name="afii10084" unicode="&#x442;" horiz-adv-x="409" 
d="M399 439h-164v-439h-51v439h-174v43h389v-43z" />
    <glyph glyph-name="afii10085" unicode="&#x443;" horiz-adv-x="430" 
d="M416 482l-224 -613c-11 -30 -19 -43 -33 -56c-22 -20 -53 -31 -91 -31h-24v45h19c50 0 69 14 88 66l39 107l-176 482h56l145 -422l145 422h56z" />
    <glyph glyph-name="afii10086" unicode="&#x444;" horiz-adv-x="667" 
d="M607 241c0 -157 -96 -247 -248 -247v-224h-51v224c-152 0 -248 90 -248 247c0 156 91 247 248 247v224h51v-224c157 0 248 -91 248 -247zM556 240c0 110 -49 203 -197 203v-404c135 0 197 84 197 201zM308 39v404c-148 0 -197 -93 -197 -203c0 -117 62 -201 197 -201z
" />
    <glyph glyph-name="afii10087" unicode="&#x445;" horiz-adv-x="460" 
d="M420 0h-62l-127 203l-129 -203h-62l163 246l-156 236h62l122 -194l120 194h62l-156 -236z" />
    <glyph glyph-name="afii10088" unicode="&#x446;" horiz-adv-x="573" 
d="M537 -160h-51v160h-389v482h51v-439h263v439h51v-439h75v-203z" />
    <glyph glyph-name="afii10089" unicode="&#x447;" horiz-adv-x="530" 
d="M433 0h-51v224c-38 -38 -78 -56 -135 -56c-103 0 -168 59 -168 170v144h51v-135c0 -93 43 -134 124 -134c66 0 112 31 128 87v182h51v-482z" />
    <glyph glyph-name="afii10090" unicode="&#x448;" horiz-adv-x="793" 
d="M696 0h-599v482h51v-439h223v439h51v-439h223v439h51v-482z" />
    <glyph glyph-name="afii10091" unicode="&#x449;" horiz-adv-x="807" 
d="M771 -160h-51v160h-623v482h51v-439h223v439h51v-439h223v439h51v-439h75v-203z" />
    <glyph glyph-name="afii10092" unicode="&#x44a;" horiz-adv-x="583" 
d="M543 142c0 -86 -59 -142 -149 -142h-212v439h-172v43h223v-198h161c90 0 149 -56 149 -142zM492 142c0 63 -37 99 -106 99h-153v-198h153c69 0 106 35 106 99z" />
    <glyph glyph-name="afii10093" unicode="&#x44b;" horiz-adv-x="702" 
d="M592 0h-51v482h51v-482zM458 142c0 -86 -59 -142 -149 -142h-212v482h51v-198h161c90 0 149 -56 149 -142zM407 142c0 63 -37 99 -106 99h-153v-198h153c69 0 106 35 106 99z" />
    <glyph glyph-name="afii10094" unicode="&#x44c;" horiz-adv-x="498" 
d="M458 142c0 -86 -59 -142 -149 -142h-212v482h51v-198h161c90 0 149 -56 149 -142zM407 142c0 63 -37 99 -106 99h-153v-198h153c69 0 106 35 106 99z" />
    <glyph glyph-name="afii10095" unicode="&#x44d;" horiz-adv-x="493" 
d="M424 241c0 -154 -81 -247 -215 -247c-72 0 -108 23 -156 74l35 32c37 -40 67 -61 123 -61c117 0 162 88 162 191h-229v41h228c-5 97 -56 172 -162 172c-55 0 -86 -22 -122 -61l-35 32c49 51 84 74 156 74c134 0 215 -93 215 -247z" />
    <glyph glyph-name="afii10096" unicode="&#x44e;" horiz-adv-x="712" 
d="M643 244c0 -96 -18 -154 -60 -197c-34 -34 -81 -53 -134 -53s-100 19 -134 53c-40 40 -58 95 -60 179h-107v-226h-51v482h51v-213h108c3 77 21 128 59 166c34 34 81 53 134 53c124 0 194 -88 194 -244zM592 239c0 87 -11 130 -43 163c-25 26 -62 41 -100 41
s-75 -15 -100 -41c-31 -32 -43 -76 -43 -161s11 -128 43 -161c25 -26 62 -41 100 -41s75 15 100 41c31 32 43 76 43 159z" />
    <glyph glyph-name="afii10097" unicode="&#x44f;" horiz-adv-x="519" 
d="M422 0h-51v196h-135l-114 -196h-62l120 198c-74 11 -121 66 -121 142c0 86 59 142 149 142h214v-482zM371 239v200h-153c-69 0 -107 -36 -107 -100s38 -100 107 -100h153z" />
    <glyph glyph-name="sterling" unicode="&#xa3;" 
d="M465 0h-368v342h-64v38h64v122c0 131 84 216 213 216c64 0 108 -19 155 -61l-37 -37c-39 38 -68 50 -119 50c-101 0 -158 -64 -158 -179v-111h158v-38h-158v-294h314v-48z" />
    <glyph glyph-name="notequal" unicode="&#x2260;" 
d="M461 163h-224l-89 -163l-42 22l78 141h-131v47h156l57 106h-213v47h238l74 138l42 -22l-62 -116h116v-47h-142l-56 -106h198v-47z" />
    <glyph glyph-name="infinity" unicode="&#x221e;" horiz-adv-x="792" 
d="M720 260c0 -86 -62 -148 -148 -148c-82 0 -128 50 -176 108c-48 -58 -95 -109 -176 -109c-85 0 -148 63 -148 149s63 150 148 150c80 0 129 -53 176 -110c48 58 94 110 176 110c85 0 148 -63 148 -150zM672 260c0 60 -42 104 -101 104c-64 0 -108 -60 -145 -104
c38 -45 80 -102 145 -102c59 0 101 42 101 102zM366 260c-37 44 -81 105 -145 105c-58 0 -101 -44 -101 -105c0 -60 42 -102 101 -102c65 0 107 56 145 102z" />
    <glyph glyph-name="lessequal" unicode="&#x2264;" 
d="M473 118l-432 167v54l432 168v-54l-366 -141l366 -140v-54zM473 0h-432v48h432v-48z" />
    <glyph glyph-name="greaterequal" unicode="&#x2265;" 
d="M473 285l-432 -167v54l366 140l-366 141v54l432 -168v-54zM473 0h-432v48h432v-48z" />
    <glyph glyph-name="radical" unicode="&#x221a;" horiz-adv-x="550" 
d="M520 664h-88l-217 -664h-46l-159 482h56l126 -387l199 617h129v-48z" />
    <glyph glyph-name="florin" unicode="&#x192;" horiz-adv-x="394" 
d="M364 667h-43c-48 0 -79 -28 -88 -80l-36 -207h109v-38h-116l-101 -572h-51l101 572h-109v38h116l36 206c14 78 66 126 138 126h44v-45z" />
    <glyph glyph-name="approxequal" unicode="&#x2248;" 
d="M461 357c-36 -35 -49 -45 -70 -54c-11 -5 -27 -8 -43 -8c-26 0 -45 2 -92 25c-30 15 -57 29 -91 29c-29 0 -43 -8 -81 -45l-31 31c36 35 49 45 70 54c11 5 27 8 43 8c27 0 82 -22 110 -33c37 -15 52 -21 73 -21c29 0 43 8 81 45zM461 197c-36 -35 -49 -45 -70 -54
c-11 -5 -27 -8 -43 -8c-26 0 -45 2 -92 25c-30 15 -57 29 -91 29c-29 0 -43 -8 -81 -45l-31 31c36 35 49 45 70 54c11 5 27 8 43 8c27 0 82 -22 110 -33c37 -15 52 -21 73 -21c29 0 43 8 81 45z" />
    <glyph glyph-name="Delta" unicode="&#x394;" horiz-adv-x="591" 
d="M581 0h-571l262 712h47zM511 48l-216 592l-215 -592h431z" />
    <glyph glyph-name="divide" unicode="&#xf7;" 
d="M303 434c0 -26 -21 -47 -46 -47s-46 21 -46 46s21 46 46 46s46 -21 46 -45zM461 240h-408v47h408v-47zM303 95c0 -26 -21 -47 -46 -47s-46 21 -46 46s21 46 46 46s46 -21 46 -45z" />
    </font>
</defs>
</svg>
